<?xml version="1.0" standalone="no"?>
<!DOCTYPE svg PUBLIC "-//W3C//DTD SVG 1.1//EN" "http://www.w3.org/Graphics/SVG/1.1/DTD/svg11.dtd" >
<svg>
<metadata>
Created by FontForge 20090622 at Mon Nov 18 16:48:07 2013
 By ffonts
Copyright (c) 2012 by Laura Worthington. All rights reserved.
</metadata>
<defs>
<font id="UVFFunkydori" horiz-adv-x="292" >
  <font-face 
    font-family="UVF Funkydori"
    font-weight="400"
    font-stretch="normal"
    units-per-em="1000"
    panose-1="2 0 5 3 0 0 0 2 0 3"
    ascent="670"
    descent="-330"
    x-height="312"
    cap-height="663"
    bbox="-933 -1363 2268 1165"
    underline-thickness="50"
    underline-position="-50"
    unicode-range="U+0020-U+FB02"
  />
<missing-glyph horiz-adv-x="297" 
 />
    <glyph glyph-name="f_b" unicode="fb" horiz-adv-x="605" 
d="M342 76q0 -15 7 -25t21 -10q18 0 32.5 21.5t24.5 50t15.5 58t5.5 45.5q0 19 -9 27.5t-23 8.5q-12 0 -25.5 -9.5t-21.5 -35.5q-12 -37 -19.5 -73t-7.5 -58zM281 410q0 25 -10 35t-33 10q-16 0 -28.5 -12t-21.5 -29t-14 -36.5t-5 -34.5q0 -16 9.5 -26t38.5 -10
q5 0 9.5 -2.5t4.5 -8.5q0 -15 -7 -24.5t-16 -9.5q-55 0 -67 -61l-11 -56.5l-12 -63.5t-12.5 -61.5t-12.5 -51.5q-7 -28 -29 -50.5t-48 -38.5t-50.5 -24.5t-36.5 -8.5q-19 0 -19 14q0 5 4.5 11.5t9.5 12.5q10 14 19 32t17 47q8 30 17.5 76t17.5 90t13 77.5t5 38.5
q0 18 -20 18q-16 0 -16 14q0 11 7.5 20.5t14.5 9.5q15 0 20.5 5.5t9.5 20.5q12 52 33.5 85t47.5 51t56 24.5t59 6.5q9 13 22 27t28.5 25t33 18.5t36.5 7.5q39 0 62 -20t23 -58q0 -19 -7.5 -50.5t-17 -65l-18.5 -64.5t-12 -48q10 11 35.5 25.5t59.5 14.5q48 0 76.5 -23
t28.5 -79q0 -36 -13 -74.5t-39 -69.5t-65 -51t-91 -20q-77 0 -112.5 36t-35.5 93q0 36 9.5 73.5t21.5 74.5t21.5 72t9.5 66z" />
    <glyph glyph-name="f_h" unicode="fh" horiz-adv-x="641" 
d="M281 410q0 25 -10 35t-33 10q-16 0 -28.5 -12t-21.5 -29t-14 -36.5t-5 -34.5q0 -16 9.5 -26t38.5 -10q5 0 9.5 -2.5t4.5 -8.5q0 -15 -7 -24.5t-16 -9.5q-55 0 -67 -61l-11 -56.5l-12 -63.5t-12.5 -61.5t-12.5 -51.5q-7 -28 -29 -50.5t-48 -38.5t-50.5 -24.5t-36.5 -8.5
q-19 0 -19 14q0 5 4.5 11.5t9.5 12.5q10 14 19 32t17 47q8 30 17.5 76t17.5 90t13 77.5t5 38.5q0 18 -20 18q-16 0 -16 14q0 11 7.5 20.5t14.5 9.5q15 0 20.5 5.5t9.5 20.5q12 52 33.5 85t47.5 51t56 24.5t59 6.5q9 13 22 27t28.5 25t33 18.5t36.5 7.5q39 0 62 -20t23 -58
q0 -21 -7 -56.5t-16.5 -73t-19.5 -71l-15 -49.5q19 21 52.5 41.5t76.5 20.5q42 0 63.5 -18t21.5 -50q0 -19 -4.5 -36t-10.5 -33t-10.5 -32t-4.5 -33t8.5 -25.5t22.5 -8.5q13 0 20.5 5.5t17.5 15.5t17 10t10.5 -4.5t3.5 -9.5q0 -8 -4 -15t-12 -17t-20 -21.5t-28 -21.5
t-35.5 -16.5t-43.5 -6.5q-46 0 -67.5 21t-21.5 56q0 20 5 40t11 38t11 35t5 31q0 11 -6.5 17.5t-17.5 6.5q-32 0 -63 -62q-7 -13 -14 -36t-13 -47.5t-10.5 -45t-4.5 -28.5q0 -13 -5 -17t-16 -4q-23 0 -49 -2.5t-38 -2.5q-9 0 -14 4.5t-5 17.5q0 18 6 47.5t15 65l19.5 74.5
t19.5 76.5t15 71t6 58.5z" />
    <glyph glyph-name="f_j" unicode="fj" horiz-adv-x="369" 
d="M169 343q0 -11 6 -17.5t15.5 -11t21 -6.5t22.5 -2q24 -1 49 2.5t40 3.5q34 0 34 -26q0 -8 -3 -19t-8.5 -34.5t-13.5 -62t-19 -101.5l-14.5 -80.5t-19 -81t-27.5 -75t-39.5 -62t-55 -42t-73.5 -15.5q-29 0 -53 7.5t-41.5 21.5t-27.5 33.5t-10 43.5t8.5 43.5t20.5 34
t26 22.5t25 8q12 0 12 -9q0 -8 -5 -14t-5 -18q0 -16 13.5 -29t37.5 -13q27 0 46.5 26t35.5 64q15 39 25 87.5t16 93t8.5 78.5t2.5 43q0 30 -32 30q-23 0 -31.5 -16.5t-13.5 -39.5l-14.5 -65t-21.5 -87q-7 -28 -29 -50.5t-47.5 -38.5t-49.5 -24.5t-36 -8.5q-19 0 -19 14
q0 5 4.5 11.5t9.5 12.5q10 14 19 32t17 47q8 30 15 62l12.5 59t8.5 46.5t3 24.5q0 18 -20 18q-16 0 -16 14q0 11 7.5 20.5t14.5 9.5q15 0 20.5 5.5t9.5 20.5q13 52 34 84.5t46.5 50.5t52.5 24.5t52 6.5q63 0 92.5 -22t29.5 -51q0 -25 -16 -41.5t-38 -16.5q-29 0 -41.5 15.5
t-12.5 35.5q0 22 -20 22q-9 0 -16.5 -11.5t-13 -27.5t-8 -32.5t-2.5 -26.5z" />
    <glyph glyph-name="f_k" unicode="fk" horiz-adv-x="576" 
d="M281 410q0 25 -10 35t-33 10q-16 0 -28.5 -12t-21.5 -29t-14 -36.5t-5 -34.5q0 -16 9.5 -26t38.5 -10q5 0 9.5 -2.5t4.5 -8.5q0 -15 -7 -24.5t-16 -9.5q-55 0 -67 -61l-11 -56.5l-12 -63.5t-12.5 -61.5t-12.5 -51.5q-7 -28 -29 -50.5t-48 -38.5t-50.5 -24.5t-36.5 -8.5
q-19 0 -19 14q0 5 4.5 11.5t9.5 12.5q10 14 19 32t17 47q8 30 17.5 76t17.5 90t13 77.5t5 38.5q0 18 -20 18q-16 0 -16 14q0 11 7.5 20.5t14.5 9.5q15 0 20.5 5.5t9.5 20.5q12 52 33.5 85t47.5 51t56 24.5t59 6.5q9 13 22 27t28.5 25t33 18.5t36.5 7.5q39 0 62 -20t23 -58
q0 -16 -5.5 -43t-13 -59.5t-17 -67t-17 -65l-13 -54t-5.5 -33.5q11 0 22 5.5t19.5 14.5t13.5 19t5 19q0 8 -3.5 11.5t-3.5 11.5t10.5 17t26.5 17t35 13.5t36 5.5q29 0 29 -23q0 -32 -30.5 -69t-86.5 -68q4 -13 12.5 -26.5t19.5 -24.5t25 -18t30 -7q14 0 22.5 5.5t18.5 15.5
t17 10t10.5 -4.5t3.5 -9.5q0 -8 -4 -15t-12 -17q-8 -11 -20 -22.5t-27.5 -21t-34.5 -16t-40 -6.5q-22 0 -37.5 10t-26 24.5t-17 32t-10.5 32l-7 24.5t-5 10q-7 -25 -12 -46q-5 -18 -8.5 -36t-3.5 -25q0 -13 -5 -17t-16 -4q-23 0 -48.5 -2.5t-37.5 -2.5q-9 0 -14 4.5t-5 17.5
q0 33 12.5 82.5t28 104t28 109t12.5 97.5z" />
    <glyph glyph-name="fi" unicode="fi" horiz-adv-x="411" 
d="M217 243q0 23 -30 23q-23 0 -32 -21t-14 -44l-11 -56.5l-12 -63.5t-12.5 -61.5t-12.5 -51.5q-7 -28 -29 -50.5t-48 -38.5t-50.5 -24.5t-36.5 -8.5q-19 0 -19 14q0 5 4.5 11.5t9.5 12.5q10 14 19 32t17 47q8 30 17.5 76t17.5 90t13 77.5t5 38.5q0 18 -20 18q-16 0 -16 14
q0 11 7.5 20.5t14.5 9.5q15 0 20.5 5.5t9.5 20.5q12 52 33.5 84.5t47 50.5t53 24.5t52.5 6.5q63 0 92.5 -22t29.5 -51q0 -25 -16 -41.5t-38 -16.5q-29 0 -41.5 15.5t-12.5 35.5q0 22 -20 22q-9 0 -16.5 -11.5t-13 -27.5t-8 -32.5t-2.5 -26.5q0 -11 6 -17.5t15.5 -11t21 -6.5
t22.5 -2q24 -1 49 2.5t40 3.5q33 0 33 -26q0 -15 -5 -34l-11 -41t-11 -45.5t-5 -48.5q0 -20 9.5 -30.5t23.5 -10.5q13 0 20.5 5.5t17.5 15.5t17 10t10.5 -4.5t3.5 -9.5q0 -8 -4 -15t-12 -17t-20 -21.5t-28 -21.5t-35.5 -16.5t-43.5 -6.5q-50 0 -74.5 24t-24.5 59
q0 24 5 47.5t11.5 45.5l11.5 40t5 32z" />
    <glyph glyph-name="fl" unicode="fl" horiz-adv-x="466" 
d="M233 455q-16 0 -28 -12t-20 -29t-12 -36.5t-4 -34.5q0 -16 9.5 -26t38.5 -10q5 0 9.5 -2.5t4.5 -8.5q0 -15 -7 -24.5t-16 -9.5q-55 0 -67 -61l-11 -56.5l-12 -63.5t-12.5 -61.5t-12.5 -51.5q-7 -28 -29 -50.5t-48 -38.5t-50.5 -24.5t-36.5 -8.5q-19 0 -19 14
q0 5 4.5 11.5t9.5 12.5q10 14 19 32t17 47q8 30 17.5 76t17.5 90t13 77.5t5 38.5q0 18 -20 18q-16 0 -16 14q0 11 7.5 20.5t14.5 9.5q15 0 20.5 5.5t9.5 20.5q12 52 33.5 85t47.5 51t56 24.5t59 6.5q9 13 22 27t28.5 25t33 18.5t36.5 7.5q39 0 62 -20t23 -58
q0 -32 -12.5 -82l-27.5 -105t-27.5 -107.5t-12.5 -88.5q0 -20 9 -30.5t23 -10.5q13 0 20.5 5.5t17.5 15.5t17 10t10.5 -4.5t3.5 -9.5q0 -8 -4 -15t-12 -17t-20 -21.5t-27.5 -21.5t-35 -16.5t-43.5 -6.5q-51 0 -74.5 27.5t-23.5 66.5q0 34 11 72.5t24 79.5t24 83.5t11 85.5
q0 25 -12.5 35t-35.5 10z" />
    <glyph glyph-name=".notdef" horiz-adv-x="297" 
 />
    <glyph glyph-name=".null" horiz-adv-x="0" 
 />
    <glyph glyph-name="nonmarkingreturn" horiz-adv-x="179" 
 />
    <glyph glyph-name="space" unicode=" " horiz-adv-x="179" 
 />
    <glyph glyph-name="space" unicode="&#xa0;" horiz-adv-x="179" 
 />
    <glyph glyph-name="A.01_breve" horiz-adv-x="937" 
d="M298 -79q-64 0 -116.5 18t-90 53.5t-58.5 86.5t-21 117q0 60 25.5 111t68.5 88.5t100.5 59t120.5 21.5q84 0 155 -30.5t126 -75.5l48.5 82.5t48.5 74.5t48 60t48 39q29 16 54.5 25t45.5 13.5t34 6t20 1.5q10 0 14 -5t4 -12q0 -5 -1 -9t-4 -13l-8.5 -25.5t-14.5 -46.5
q-10 -32 -26 -88.5t-31 -119.5t-26 -123t-11 -98q0 -26 8 -41t25 -15q13 0 20.5 5.5t17.5 15.5t17 10t10.5 -4.5t3.5 -9.5q0 -8 -4 -15t-12 -17t-20 -21.5t-28 -21.5t-35.5 -16.5t-43.5 -6.5q-25 0 -41 7t-27.5 20.5t-19 32t-15.5 42.5q-12 34 -27 65t-35 59l-8 -18
q-27 -59 -60.5 -110.5t-75 -89.5t-92 -60t-111.5 -22zM399 361q-63 0 -102 -35t-39 -92q0 -47 32.5 -73.5t87.5 -26.5q33 0 59 12t46.5 31.5t37 43.5t30.5 49l18 32q-36 28 -78.5 43.5t-91.5 15.5zM831 578q-18 -11 -36 -37t-37 -63t-38.5 -83l-40.5 -95q22 -26 36 -51
t22 -47q3 21 10.5 53l16 69t18.5 75.5l19.5 73.5l17 62.5t12.5 42.5zM889 698q-20 0 -39 6.5t-33.5 18.5t-23.5 28.5t-9 36.5q0 17 12.5 29.5t28.5 12.5q29 0 29 -26q0 -12 -4 -16t-4 -15q0 -12 13.5 -19.5t35.5 -7.5q31 0 44.5 12.5t13.5 29.5q0 23 10 32.5t23 9.5
q16 0 25 -8t9 -21q0 -26 -17 -51q-14 -20 -40 -36t-74 -16z" />
    <glyph glyph-name="A.01_circumflex" horiz-adv-x="937" 
d="M298 -79q-64 0 -116.5 18t-90 53.5t-58.5 86.5t-21 117q0 60 25.5 111t68.5 88.5t100.5 59t120.5 21.5q84 0 155 -30.5t126 -75.5l48.5 82.5t48.5 74.5t48 60t48 39q29 16 54.5 25t45.5 13.5t34 6t20 1.5q10 0 14 -5t4 -12q0 -5 -1 -9t-4 -13l-8.5 -25.5t-14.5 -46.5
q-10 -32 -26 -88.5t-31 -119.5t-26 -123t-11 -98q0 -26 8 -41t25 -15q13 0 20.5 5.5t17.5 15.5t17 10t10.5 -4.5t3.5 -9.5q0 -8 -4 -15t-12 -17t-20 -21.5t-28 -21.5t-35.5 -16.5t-43.5 -6.5q-25 0 -41 7t-27.5 20.5t-19 32t-15.5 42.5q-12 34 -27 65t-35 59l-8 -18
q-27 -59 -60.5 -110.5t-75 -89.5t-92 -60t-111.5 -22zM399 361q-63 0 -102 -35t-39 -92q0 -47 32.5 -73.5t87.5 -26.5q33 0 59 12t46.5 31.5t37 43.5t30.5 49l18 32q-36 28 -78.5 43.5t-91.5 15.5zM831 578q-18 -11 -36 -37t-37 -63t-38.5 -83l-40.5 -95q22 -26 36 -51
t22 -47q3 21 10.5 53l16 69t18.5 75.5l19.5 73.5l17 62.5t12.5 42.5zM907 743l-35 -20.5l-33.5 -19.5t-27.5 -14.5t-17 -5.5q-8 0 -12 4.5t-4 9.5q0 12 15 23l20.5 15.5t16.5 14t17 17l23 24.5q11 13 20 22.5t28 9.5q21 0 26.5 -10t12.5 -26q11 -26 23 -39.5l24 -27.5
q8 -8 12.5 -11.5t4.5 -10.5q0 -6 -4.5 -10.5t-12.5 -4.5t-32 10.5t-65 49.5z" />
    <glyph glyph-name="A.01_dieresis" horiz-adv-x="937" 
d="M298 -79q-64 0 -116.5 18t-90 53.5t-58.5 86.5t-21 117q0 60 25.5 111t68.5 88.5t100.5 59t120.5 21.5q84 0 155 -30.5t126 -75.5l48.5 82.5t48.5 74.5t48 60t48 39q29 16 54.5 25t45.5 13.5t34 6t20 1.5q10 0 14 -5t4 -12q0 -5 -1 -9t-4 -13l-8.5 -25.5t-14.5 -46.5
q-10 -32 -26 -88.5t-31 -119.5t-26 -123t-11 -98q0 -26 8 -41t25 -15q13 0 20.5 5.5t17.5 15.5t17 10t10.5 -4.5t3.5 -9.5q0 -8 -4 -15t-12 -17t-20 -21.5t-28 -21.5t-35.5 -16.5t-43.5 -6.5q-25 0 -41 7t-27.5 20.5t-19 32t-15.5 42.5q-12 34 -27 65t-35 59l-8 -18
q-27 -59 -60.5 -110.5t-75 -89.5t-92 -60t-111.5 -22zM399 361q-63 0 -102 -35t-39 -92q0 -47 32.5 -73.5t87.5 -26.5q33 0 59 12t46.5 31.5t37 43.5t30.5 49l18 32q-36 28 -78.5 43.5t-91.5 15.5zM831 578q-18 -11 -36 -37t-37 -63t-38.5 -83l-40.5 -95q22 -26 36 -51
t22 -47q3 21 10.5 53l16 69t18.5 75.5l19.5 73.5l17 62.5t12.5 42.5zM817 740q0 12 5 25t14 23.5t21 17.5t26 7q18 0 29 -13t11 -33q0 -12 -5 -25.5t-14 -24t-21.5 -17.5t-27.5 -7q-17 0 -27.5 13.5t-10.5 33.5zM955 740q0 12 5 25t14 23.5t21 17.5t26 7q18 0 29 -13t11 -33
q0 -12 -5 -25.5t-14 -24t-21.5 -17.5t-27.5 -7q-17 0 -27.5 13.5t-10.5 33.5z" />
    <glyph glyph-name="A.01_grave" horiz-adv-x="937" 
d="M298 -79q-64 0 -116.5 18t-90 53.5t-58.5 86.5t-21 117q0 60 25.5 111t68.5 88.5t100.5 59t120.5 21.5q84 0 155 -30.5t126 -75.5l48.5 82.5t48.5 74.5t48 60t48 39q29 16 54.5 25t45.5 13.5t34 6t20 1.5q10 0 14 -5t4 -12q0 -5 -1 -9t-4 -13l-8.5 -25.5t-14.5 -46.5
q-10 -32 -26 -88.5t-31 -119.5t-26 -123t-11 -98q0 -26 8 -41t25 -15q13 0 20.5 5.5t17.5 15.5t17 10t10.5 -4.5t3.5 -9.5q0 -8 -4 -15t-12 -17t-20 -21.5t-28 -21.5t-35.5 -16.5t-43.5 -6.5q-25 0 -41 7t-27.5 20.5t-19 32t-15.5 42.5q-12 34 -27 65t-35 59l-8 -18
q-27 -59 -60.5 -110.5t-75 -89.5t-92 -60t-111.5 -22zM399 361q-63 0 -102 -35t-39 -92q0 -47 32.5 -73.5t87.5 -26.5q33 0 59 12t46.5 31.5t37 43.5t30.5 49l18 32q-36 28 -78.5 43.5t-91.5 15.5zM831 578q-18 -11 -36 -37t-37 -63t-38.5 -83l-40.5 -95q22 -26 36 -51
t22 -47q3 21 10.5 53l16 69t18.5 75.5l19.5 73.5l17 62.5t12.5 42.5zM890 850q16 0 23 -19q14 -42 37 -65.5t45 -36.5q9 -5 12 -9t3 -10q0 -5 -4.5 -9.5t-12.5 -4.5q-11 0 -27 3t-33.5 9.5t-35.5 16.5t-33 23q-14 12 -18.5 20t-4.5 20q0 8 5.5 18.5t13.5 20.5t16 16.5
t14 6.5z" />
    <glyph glyph-name="A.01_ogonek" horiz-adv-x="937" 
d="M298 -79q-64 0 -116.5 18t-90 53.5t-58.5 86.5t-21 117q0 60 25.5 111t68.5 88.5t100.5 59t120.5 21.5q84 0 155 -30.5t126 -75.5l48.5 82.5t48.5 74.5t48 60t48 39q29 16 54.5 25t45.5 13.5t34 6t20 1.5q10 0 14 -5t4 -12q0 -5 -1 -9t-4 -13l-8.5 -25.5t-14.5 -46.5
q-10 -32 -26 -88.5t-31 -119.5t-26 -123t-11 -98q0 -26 8 -41t25 -15q13 0 20.5 5.5t17.5 15.5t17 10t10.5 -4.5t3.5 -9.5q0 -8 -4 -15t-12 -17t-20 -21.5t-28 -21.5t-35.5 -16.5t-43.5 -6.5q-21 0 -33 4q-13 -9 -23.5 -22.5t-10.5 -27.5q0 -18 23.5 -30t59.5 -12
q16 0 16 -10t-14 -24q-12 -13 -31.5 -25t-39.5 -12q-13 0 -29 7t-29.5 18.5t-22.5 26.5t-9 31q0 18 7 33.5t18 28t24.5 22t27.5 16.5q-12 14 -20.5 33t-16.5 45q-12 34 -27 65t-35 59l-8 -18q-27 -59 -60.5 -110.5t-75 -89.5t-92 -60t-111.5 -22zM399 361q-63 0 -102 -35
t-39 -92q0 -47 32.5 -73.5t87.5 -26.5q33 0 59 12t46.5 31.5t37 43.5t30.5 49l18 32q-36 28 -78.5 43.5t-91.5 15.5zM831 578q-18 -11 -36 -37t-37 -63t-38.5 -83l-40.5 -95q22 -26 36 -51t22 -47q3 21 10.5 53l16 69t18.5 75.5l19.5 73.5l17 62.5t12.5 42.5z" />
    <glyph glyph-name="A.01_ring" horiz-adv-x="937" 
d="M298 -79q-64 0 -116.5 18t-90 53.5t-58.5 86.5t-21 117q0 60 25.5 111t68.5 88.5t100.5 59t120.5 21.5q84 0 155 -30.5t126 -75.5l48.5 82.5t48.5 74.5t48 60t48 39q29 16 54.5 25t45.5 13.5t34 6t20 1.5q10 0 14 -5t4 -12q0 -5 -1 -9t-4 -13l-8.5 -25.5t-14.5 -46.5
q-10 -32 -26 -88.5t-31 -119.5t-26 -123t-11 -98q0 -26 8 -41t25 -15q13 0 20.5 5.5t17.5 15.5t17 10t10.5 -4.5t3.5 -9.5q0 -8 -4 -15t-12 -17t-20 -21.5t-28 -21.5t-35.5 -16.5t-43.5 -6.5q-25 0 -41 7t-27.5 20.5t-19 32t-15.5 42.5q-12 34 -27 65t-35 59l-8 -18
q-27 -59 -60.5 -110.5t-75 -89.5t-92 -60t-111.5 -22zM399 361q-63 0 -102 -35t-39 -92q0 -47 32.5 -73.5t87.5 -26.5q33 0 59 12t46.5 31.5t37 43.5t30.5 49l18 32q-36 28 -78.5 43.5t-91.5 15.5zM831 578q-18 -11 -36 -37t-37 -63t-38.5 -83l-40.5 -95q22 -26 36 -51
t22 -47q3 21 10.5 53l16 69t18.5 75.5l19.5 73.5l17 62.5t12.5 42.5zM881 793q0 -17 12.5 -29.5t29.5 -12.5t28.5 12.5t11.5 29.5t-11.5 28.5t-28.5 11.5t-29.5 -11.5t-12.5 -28.5zM824 793q0 42 28.5 70.5t70.5 28.5t70.5 -28.5t28.5 -70.5t-28.5 -70.5t-70.5 -28.5
t-70.5 28.5t-28.5 70.5z" />
    <glyph glyph-name="A.01_tilde" horiz-adv-x="937" 
d="M298 -79q-64 0 -116.5 18t-90 53.5t-58.5 86.5t-21 117q0 60 25.5 111t68.5 88.5t100.5 59t120.5 21.5q84 0 155 -30.5t126 -75.5l48.5 82.5t48.5 74.5t48 60t48 39q29 16 54.5 25t45.5 13.5t34 6t20 1.5q10 0 14 -5t4 -12q0 -5 -1 -9t-4 -13l-8.5 -25.5t-14.5 -46.5
q-10 -32 -26 -88.5t-31 -119.5t-26 -123t-11 -98q0 -26 8 -41t25 -15q13 0 20.5 5.5t17.5 15.5t17 10t10.5 -4.5t3.5 -9.5q0 -8 -4 -15t-12 -17t-20 -21.5t-28 -21.5t-35.5 -16.5t-43.5 -6.5q-25 0 -41 7t-27.5 20.5t-19 32t-15.5 42.5q-12 34 -27 65t-35 59l-8 -18
q-27 -59 -60.5 -110.5t-75 -89.5t-92 -60t-111.5 -22zM399 361q-63 0 -102 -35t-39 -92q0 -47 32.5 -73.5t87.5 -26.5q33 0 59 12t46.5 31.5t37 43.5t30.5 49l18 32q-36 28 -78.5 43.5t-91.5 15.5zM831 578q-18 -11 -36 -37t-37 -63t-38.5 -83l-40.5 -95q22 -26 36 -51
t22 -47q3 21 10.5 53l16 69t18.5 75.5l19.5 73.5l17 62.5t12.5 42.5zM968 702q-17 0 -33 5.5t-31 12t-30.5 12t-32.5 5.5q-18 0 -34.5 -9.5t-23.5 -9.5q-5 0 -8.5 3t-3.5 9q0 5 3 11t7 11q6 9 15 18.5t20 17.5t23.5 13.5t25.5 5.5q17 0 31 -5.5t27.5 -12.5t28 -12.5
t32.5 -5.5q23 0 40 11t25 11q5 0 9 -2.5t4 -7.5t-2 -9.5t-4 -8.5q-17 -23 -38 -43t-50 -20z" />
    <glyph glyph-name="A.02" horiz-adv-x="818" 
d="M251 601q49 0 91 -12.5t76.5 -34.5t63 -53t52.5 -67q35 59 69 106t69 66q29 16 54.5 25t45.5 13.5t34 6t20 1.5q10 0 14 -5t4 -12q0 -5 -1 -9t-4 -13l-8.5 -25.5t-14.5 -46.5q-10 -32 -24 -85.5t-27.5 -112.5t-23 -116t-9.5 -95q0 -26 8 -41t25 -15q13 0 20.5 5.5
t17.5 15.5t17 10t10.5 -4.5t3.5 -9.5q0 -8 -4 -15t-12 -17t-20 -21.5t-28 -21.5t-35.5 -16.5t-43.5 -6.5q-50 0 -73.5 30.5t-23.5 80.5q0 21 -17 61t-49 84q-28 -57 -59.5 -111t-68 -96.5t-79.5 -68t-94 -25.5q-78 0 -123 39t-45 102q0 46 17 79.5t42 55t54.5 31.5t53.5 10
q14 0 14 -13q0 -9 -10.5 -22.5t-10.5 -36.5q0 -18 15 -35t46 -17q24 0 47.5 14t47 38.5t46 56.5t44.5 68q-42 38 -97.5 63t-123.5 25q-52 0 -86.5 -15t-55.5 -37.5t-32 -47.5t-15 -44q-3 -13 -6.5 -17.5t-10.5 -4.5q-13 0 -24 23q-8 17 -11.5 37.5t-3.5 43.5q0 44 16.5 89.5
t48.5 82t79 60t108 23.5zM624 235q5 31 15.5 77.5l22 93.5l22.5 88.5t18 63.5q-15 -9 -30.5 -28t-30.5 -45.5t-31 -59.5l-33 -69q28 -60 47 -121z" />
    <glyph glyph-name="A.02_acute" horiz-adv-x="818" 
d="M251 601q49 0 91 -12.5t76.5 -34.5t63 -53t52.5 -67q35 59 69 106t69 66q29 16 54.5 25t45.5 13.5t34 6t20 1.5q10 0 14 -5t4 -12q0 -5 -1 -9t-4 -13l-8.5 -25.5t-14.5 -46.5q-10 -32 -24 -85.5t-27.5 -112.5t-23 -116t-9.5 -95q0 -26 8 -41t25 -15q13 0 20.5 5.5
t17.5 15.5t17 10t10.5 -4.5t3.5 -9.5q0 -8 -4 -15t-12 -17t-20 -21.5t-28 -21.5t-35.5 -16.5t-43.5 -6.5q-50 0 -73.5 30.5t-23.5 80.5q0 21 -17 61t-49 84q-28 -57 -59.5 -111t-68 -96.5t-79.5 -68t-94 -25.5q-78 0 -123 39t-45 102q0 46 17 79.5t42 55t54.5 31.5t53.5 10
q14 0 14 -13q0 -9 -10.5 -22.5t-10.5 -36.5q0 -18 15 -35t46 -17q24 0 47.5 14t47 38.5t46 56.5t44.5 68q-42 38 -97.5 63t-123.5 25q-52 0 -86.5 -15t-55.5 -37.5t-32 -47.5t-15 -44q-3 -13 -6.5 -17.5t-10.5 -4.5q-13 0 -24 23q-8 17 -11.5 37.5t-3.5 43.5q0 44 16.5 89.5
t48.5 82t79 60t108 23.5zM624 235q5 31 15.5 77.5l22 93.5l22.5 88.5t18 63.5q-15 -9 -30.5 -28t-30.5 -45.5t-31 -59.5l-33 -69q28 -60 47 -121zM833 830q6 0 14 -6.5t16 -16.5t13.5 -20.5t5.5 -18.5q0 -12 -4.5 -20t-18.5 -20q-15 -13 -33 -23t-35.5 -16.5t-33.5 -9.5
t-27 -3q-8 0 -12.5 4.5t-4.5 9.5q0 6 3 10t12 9q22 13 45 36.5t37 65.5q7 19 23 19z" />
    <glyph glyph-name="A.02_breve" horiz-adv-x="818" 
d="M251 601q49 0 91 -12.5t76.5 -34.5t63 -53t52.5 -67q35 59 69 106t69 66q29 16 54.5 25t45.5 13.5t34 6t20 1.5q10 0 14 -5t4 -12q0 -5 -1 -9t-4 -13l-8.5 -25.5t-14.5 -46.5q-10 -32 -24 -85.5t-27.5 -112.5t-23 -116t-9.5 -95q0 -26 8 -41t25 -15q13 0 20.5 5.5
t17.5 15.5t17 10t10.5 -4.5t3.5 -9.5q0 -8 -4 -15t-12 -17t-20 -21.5t-28 -21.5t-35.5 -16.5t-43.5 -6.5q-50 0 -73.5 30.5t-23.5 80.5q0 21 -17 61t-49 84q-28 -57 -59.5 -111t-68 -96.5t-79.5 -68t-94 -25.5q-78 0 -123 39t-45 102q0 46 17 79.5t42 55t54.5 31.5t53.5 10
q14 0 14 -13q0 -9 -10.5 -22.5t-10.5 -36.5q0 -18 15 -35t46 -17q24 0 47.5 14t47 38.5t46 56.5t44.5 68q-42 38 -97.5 63t-123.5 25q-52 0 -86.5 -15t-55.5 -37.5t-32 -47.5t-15 -44q-3 -13 -6.5 -17.5t-10.5 -4.5q-13 0 -24 23q-8 17 -11.5 37.5t-3.5 43.5q0 44 16.5 89.5
t48.5 82t79 60t108 23.5zM624 235q5 31 15.5 77.5l22 93.5l22.5 88.5t18 63.5q-15 -9 -30.5 -28t-30.5 -45.5t-31 -59.5l-33 -69q28 -60 47 -121zM765 680q-20 0 -39 6.5t-33.5 18.5t-23.5 28.5t-9 36.5q0 17 12.5 29.5t28.5 12.5q29 0 29 -26q0 -12 -4 -16t-4 -15
q0 -12 13.5 -19.5t35.5 -7.5q31 0 44.5 12.5t13.5 29.5q0 23 10 32.5t23 9.5q16 0 25 -8t9 -21q0 -26 -17 -51q-14 -20 -40 -36t-74 -16z" />
    <glyph glyph-name="A.02_circumflex" horiz-adv-x="818" 
d="M251 601q49 0 91 -12.5t76.5 -34.5t63 -53t52.5 -67q35 59 69 106t69 66q29 16 54.5 25t45.5 13.5t34 6t20 1.5q10 0 14 -5t4 -12q0 -5 -1 -9t-4 -13l-8.5 -25.5t-14.5 -46.5q-10 -32 -24 -85.5t-27.5 -112.5t-23 -116t-9.5 -95q0 -26 8 -41t25 -15q13 0 20.5 5.5
t17.5 15.5t17 10t10.5 -4.5t3.5 -9.5q0 -8 -4 -15t-12 -17t-20 -21.5t-28 -21.5t-35.5 -16.5t-43.5 -6.5q-50 0 -73.5 30.5t-23.5 80.5q0 21 -17 61t-49 84q-28 -57 -59.5 -111t-68 -96.5t-79.5 -68t-94 -25.5q-78 0 -123 39t-45 102q0 46 17 79.5t42 55t54.5 31.5t53.5 10
q14 0 14 -13q0 -9 -10.5 -22.5t-10.5 -36.5q0 -18 15 -35t46 -17q24 0 47.5 14t47 38.5t46 56.5t44.5 68q-42 38 -97.5 63t-123.5 25q-52 0 -86.5 -15t-55.5 -37.5t-32 -47.5t-15 -44q-3 -13 -6.5 -17.5t-10.5 -4.5q-13 0 -24 23q-8 17 -11.5 37.5t-3.5 43.5q0 44 16.5 89.5
t48.5 82t79 60t108 23.5zM624 235q5 31 15.5 77.5l22 93.5l22.5 88.5t18 63.5q-15 -9 -30.5 -28t-30.5 -45.5t-31 -59.5l-33 -69q28 -60 47 -121zM802 728l-35 -20.5l-33.5 -19.5t-27.5 -14.5t-17 -5.5q-8 0 -12 4.5t-4 9.5q0 12 15 23l20.5 15.5t16.5 14t17 17l23 24.5
q11 13 20 22.5t28 9.5q21 0 26.5 -10t12.5 -26q11 -26 23 -39.5l24 -27.5q8 -8 12.5 -11.5t4.5 -10.5q0 -6 -4.5 -10.5t-12.5 -4.5t-32 10.5t-65 49.5z" />
    <glyph glyph-name="A.02_dieresis" horiz-adv-x="818" 
d="M251 601q49 0 91 -12.5t76.5 -34.5t63 -53t52.5 -67q35 59 69 106t69 66q29 16 54.5 25t45.5 13.5t34 6t20 1.5q10 0 14 -5t4 -12q0 -5 -1 -9t-4 -13l-8.5 -25.5t-14.5 -46.5q-10 -32 -24 -85.5t-27.5 -112.5t-23 -116t-9.5 -95q0 -26 8 -41t25 -15q13 0 20.5 5.5
t17.5 15.5t17 10t10.5 -4.5t3.5 -9.5q0 -8 -4 -15t-12 -17t-20 -21.5t-28 -21.5t-35.5 -16.5t-43.5 -6.5q-50 0 -73.5 30.5t-23.5 80.5q0 21 -17 61t-49 84q-28 -57 -59.5 -111t-68 -96.5t-79.5 -68t-94 -25.5q-78 0 -123 39t-45 102q0 46 17 79.5t42 55t54.5 31.5t53.5 10
q14 0 14 -13q0 -9 -10.5 -22.5t-10.5 -36.5q0 -18 15 -35t46 -17q24 0 47.5 14t47 38.5t46 56.5t44.5 68q-42 38 -97.5 63t-123.5 25q-52 0 -86.5 -15t-55.5 -37.5t-32 -47.5t-15 -44q-3 -13 -6.5 -17.5t-10.5 -4.5q-13 0 -24 23q-8 17 -11.5 37.5t-3.5 43.5q0 44 16.5 89.5
t48.5 82t79 60t108 23.5zM624 235q5 31 15.5 77.5l22 93.5l22.5 88.5t18 63.5q-15 -9 -30.5 -28t-30.5 -45.5t-31 -59.5l-33 -69q28 -60 47 -121zM690 729q0 12 5 25t14 23.5t21 17.5t26 7q18 0 29 -13t11 -33q0 -12 -5 -25.5t-14 -24t-21.5 -17.5t-27.5 -7
q-17 0 -27.5 13.5t-10.5 33.5zM828 729q0 12 5 25t14 23.5t21 17.5t26 7q18 0 29 -13t11 -33q0 -12 -5 -25.5t-14 -24t-21.5 -17.5t-27.5 -7q-17 0 -27.5 13.5t-10.5 33.5z" />
    <glyph glyph-name="A.02_grave" horiz-adv-x="818" 
d="M251 601q49 0 91 -12.5t76.5 -34.5t63 -53t52.5 -67q35 59 69 106t69 66q29 16 54.5 25t45.5 13.5t34 6t20 1.5q10 0 14 -5t4 -12q0 -5 -1 -9t-4 -13l-8.5 -25.5t-14.5 -46.5q-10 -32 -24 -85.5t-27.5 -112.5t-23 -116t-9.5 -95q0 -26 8 -41t25 -15q13 0 20.5 5.5
t17.5 15.5t17 10t10.5 -4.5t3.5 -9.5q0 -8 -4 -15t-12 -17t-20 -21.5t-28 -21.5t-35.5 -16.5t-43.5 -6.5q-50 0 -73.5 30.5t-23.5 80.5q0 21 -17 61t-49 84q-28 -57 -59.5 -111t-68 -96.5t-79.5 -68t-94 -25.5q-78 0 -123 39t-45 102q0 46 17 79.5t42 55t54.5 31.5t53.5 10
q14 0 14 -13q0 -9 -10.5 -22.5t-10.5 -36.5q0 -18 15 -35t46 -17q24 0 47.5 14t47 38.5t46 56.5t44.5 68q-42 38 -97.5 63t-123.5 25q-52 0 -86.5 -15t-55.5 -37.5t-32 -47.5t-15 -44q-3 -13 -6.5 -17.5t-10.5 -4.5q-13 0 -24 23q-8 17 -11.5 37.5t-3.5 43.5q0 44 16.5 89.5
t48.5 82t79 60t108 23.5zM624 235q5 31 15.5 77.5l22 93.5l22.5 88.5t18 63.5q-15 -9 -30.5 -28t-30.5 -45.5t-31 -59.5l-33 -69q28 -60 47 -121zM742 836q16 0 23 -19q14 -42 37 -65.5t45 -36.5q9 -5 12 -9t3 -10q0 -5 -4.5 -9.5t-12.5 -4.5q-11 0 -27 3t-33.5 9.5
t-35.5 16.5t-33 23q-14 12 -18.5 20t-4.5 20q0 8 5.5 18.5t13.5 20.5t16 16.5t14 6.5z" />
    <glyph glyph-name="A.02_ogonek" horiz-adv-x="818" 
d="M251 601q49 0 91 -12.5t76.5 -34.5t63 -53t52.5 -67q35 59 69 106t69 66q29 16 54.5 25t45.5 13.5t34 6t20 1.5q10 0 14 -5t4 -12q0 -5 -1 -9t-4 -13l-8.5 -25.5t-14.5 -46.5q-10 -32 -24 -85.5t-27.5 -112.5t-23 -116t-9.5 -95q0 -26 8 -41t25 -15q13 0 20.5 5.5
t17.5 15.5t17 10t10.5 -4.5t3.5 -9.5q0 -8 -4 -15t-12 -17t-20 -21.5t-28 -21.5t-35.5 -16.5t-43.5 -6.5q-7 0 -12.5 0.5t-10.5 1.5q-12 -9 -21 -21.5t-9 -25.5q0 -18 23.5 -30t59.5 -12q16 0 16 -10t-14 -24q-12 -13 -31.5 -25t-39.5 -12q-13 0 -29 7t-29.5 18.5
t-22.5 26.5t-9 31q0 33 21 56.5t46 37.5q-18 14 -26.5 38t-8.5 54q0 21 -17 61t-49 84q-28 -57 -59.5 -111t-68 -96.5t-79.5 -68t-94 -25.5q-78 0 -123 39t-45 102q0 46 17 79.5t42 55t54.5 31.5t53.5 10q14 0 14 -13q0 -9 -10.5 -22.5t-10.5 -36.5q0 -18 15 -35t46 -17
q24 0 47.5 14t47 38.5t46 56.5t44.5 68q-42 38 -97.5 63t-123.5 25q-52 0 -86.5 -15t-55.5 -37.5t-32 -47.5t-15 -44q-3 -13 -6.5 -17.5t-10.5 -4.5q-13 0 -24 23q-8 17 -11.5 37.5t-3.5 43.5q0 44 16.5 89.5t48.5 82t79 60t108 23.5zM624 235q5 31 15.5 77.5l22 93.5
l22.5 88.5t18 63.5q-15 -9 -30.5 -28t-30.5 -45.5t-31 -59.5l-33 -69q28 -60 47 -121z" />
    <glyph glyph-name="A.02_ring" horiz-adv-x="818" 
d="M251 601q49 0 91 -12.5t76.5 -34.5t63 -53t52.5 -67q35 59 69 106t69 66q29 16 54.5 25t45.5 13.5t34 6t20 1.5q10 0 14 -5t4 -12q0 -5 -1 -9t-4 -13l-8.5 -25.5t-14.5 -46.5q-10 -32 -24 -85.5t-27.5 -112.5t-23 -116t-9.5 -95q0 -26 8 -41t25 -15q13 0 20.5 5.5
t17.5 15.5t17 10t10.5 -4.5t3.5 -9.5q0 -8 -4 -15t-12 -17t-20 -21.5t-28 -21.5t-35.5 -16.5t-43.5 -6.5q-50 0 -73.5 30.5t-23.5 80.5q0 21 -17 61t-49 84q-28 -57 -59.5 -111t-68 -96.5t-79.5 -68t-94 -25.5q-78 0 -123 39t-45 102q0 46 17 79.5t42 55t54.5 31.5t53.5 10
q14 0 14 -13q0 -9 -10.5 -22.5t-10.5 -36.5q0 -18 15 -35t46 -17q24 0 47.5 14t47 38.5t46 56.5t44.5 68q-42 38 -97.5 63t-123.5 25q-52 0 -86.5 -15t-55.5 -37.5t-32 -47.5t-15 -44q-3 -13 -6.5 -17.5t-10.5 -4.5q-13 0 -24 23q-8 17 -11.5 37.5t-3.5 43.5q0 44 16.5 89.5
t48.5 82t79 60t108 23.5zM624 235q5 31 15.5 77.5l22 93.5l22.5 88.5t18 63.5q-15 -9 -30.5 -28t-30.5 -45.5t-31 -59.5l-33 -69q28 -60 47 -121zM736 772q0 -17 12.5 -29.5t29.5 -12.5t28.5 12.5t11.5 29.5t-11.5 28.5t-28.5 11.5t-29.5 -11.5t-12.5 -28.5zM679 772
q0 42 28.5 70.5t70.5 28.5t70.5 -28.5t28.5 -70.5t-28.5 -70.5t-70.5 -28.5t-70.5 28.5t-28.5 70.5z" />
    <glyph glyph-name="A.02_tilde" horiz-adv-x="818" 
d="M251 601q49 0 91 -12.5t76.5 -34.5t63 -53t52.5 -67q35 59 69 106t69 66q29 16 54.5 25t45.5 13.5t34 6t20 1.5q10 0 14 -5t4 -12q0 -5 -1 -9t-4 -13l-8.5 -25.5t-14.5 -46.5q-10 -32 -24 -85.5t-27.5 -112.5t-23 -116t-9.5 -95q0 -26 8 -41t25 -15q13 0 20.5 5.5
t17.5 15.5t17 10t10.5 -4.5t3.5 -9.5q0 -8 -4 -15t-12 -17t-20 -21.5t-28 -21.5t-35.5 -16.5t-43.5 -6.5q-50 0 -73.5 30.5t-23.5 80.5q0 21 -17 61t-49 84q-28 -57 -59.5 -111t-68 -96.5t-79.5 -68t-94 -25.5q-78 0 -123 39t-45 102q0 46 17 79.5t42 55t54.5 31.5t53.5 10
q14 0 14 -13q0 -9 -10.5 -22.5t-10.5 -36.5q0 -18 15 -35t46 -17q24 0 47.5 14t47 38.5t46 56.5t44.5 68q-42 38 -97.5 63t-123.5 25q-52 0 -86.5 -15t-55.5 -37.5t-32 -47.5t-15 -44q-3 -13 -6.5 -17.5t-10.5 -4.5q-13 0 -24 23q-8 17 -11.5 37.5t-3.5 43.5q0 44 16.5 89.5
t48.5 82t79 60t108 23.5zM624 235q5 31 15.5 77.5l22 93.5l22.5 88.5t18 63.5q-15 -9 -30.5 -28t-30.5 -45.5t-31 -59.5l-33 -69q28 -60 47 -121zM840 680q-17 0 -33 5.5t-31 12t-30.5 12t-32.5 5.5q-18 0 -34.5 -9.5t-23.5 -9.5q-5 0 -8.5 3t-3.5 9q0 5 3 11t7 11
q6 9 15 18.5t20 17.5t23.5 13.5t25.5 5.5q17 0 31 -5.5t27.5 -12.5t28 -12.5t32.5 -5.5q23 0 40 11t25 11q5 0 9 -2.5t4 -7.5t-2 -9.5t-4 -8.5q-17 -23 -38 -43t-50 -20z" />
    <glyph glyph-name="A.03" horiz-adv-x="871" 
d="M727 309q14 56 31 105t31 94q-18 -15 -37.5 -39.5t-38 -52.5t-34 -56t-24.5 -51h72zM801 -12q0 -64 14.5 -109.5t39.5 -74t59.5 -42t75.5 -13.5q48 0 90.5 14t81 35t73.5 46t69 46t67.5 35t69.5 14q49 0 83 -20.5t54 -51.5t29 -67.5t9 -68.5q0 -14 -1.5 -29t-6.5 -29
q-5 -15 -15 -15q-8 0 -11 5t-7 14q-17 42 -63.5 72t-121.5 30q-44 0 -93 -15.5l-105 -33.5t-119.5 -33.5t-136.5 -15.5q-52 0 -100.5 13t-86.5 43.5t-61 80t-23 121.5q0 41 6 88.5t14 91t16 78t12 49.5q-74 0 -130 -114l-28 -55t-40.5 -70t-53.5 -74t-67 -66.5t-80.5 -48
t-94.5 -18.5q-47 0 -87 13t-69 39t-46 64t-17 89q0 55 22 98.5t56 73.5t75.5 45.5t80.5 15.5q29 0 43 -7.5t14 -15.5q0 -12 -14 -16q-33 -10 -59.5 -31t-26.5 -61q0 -38 25.5 -59.5t67.5 -21.5q30 0 60.5 19t59 49t54.5 66.5t48.5 73t40 68l28.5 50.5l40 66.5t33.5 48
t35.5 37.5t47 37q-14 6 -37.5 13t-52.5 13.5t-62 10.5t-65 4q-54 0 -89 -24t-35 -64q0 -30 18 -45.5t44 -15.5q23 0 40 10.5t25 28.5q4 8 8 13.5t10 5.5q5 0 10 -6t5 -26q0 -29 -10 -60.5t-31.5 -57.5t-54.5 -42.5t-79 -16.5q-39 0 -71 12.5t-54 34.5t-34 51t-12 61
q0 53 23 95.5t61 72.5t88 46t104 16q52 0 97.5 -12.5t86 -27.5l76 -27.5t68.5 -12.5q24 0 42.5 5t34.5 5q17 0 25 -9t8 -23q0 -11 -3.5 -19t-9.5 -17t-12.5 -21.5t-12.5 -32.5q-10 -32 -23.5 -88.5t-26 -124.5t-21 -141t-8.5 -137z" />
    <glyph glyph-name="A.03_acute" horiz-adv-x="871" 
d="M727 309q14 56 31 105t31 94q-18 -15 -37.5 -39.5t-38 -52.5t-34 -56t-24.5 -51h72zM801 -12q0 -64 14.5 -109.5t39.5 -74t59.5 -42t75.5 -13.5q48 0 90.5 14t81 35t73.5 46t69 46t67.5 35t69.5 14q49 0 83 -20.5t54 -51.5t29 -67.5t9 -68.5q0 -14 -1.5 -29t-6.5 -29
q-5 -15 -15 -15q-8 0 -11 5t-7 14q-17 42 -63.5 72t-121.5 30q-44 0 -93 -15.5l-105 -33.5t-119.5 -33.5t-136.5 -15.5q-52 0 -100.5 13t-86.5 43.5t-61 80t-23 121.5q0 41 6 88.5t14 91t16 78t12 49.5q-74 0 -130 -114l-28 -55t-40.5 -70t-53.5 -74t-67 -66.5t-80.5 -48
t-94.5 -18.5q-47 0 -87 13t-69 39t-46 64t-17 89q0 55 22 98.5t56 73.5t75.5 45.5t80.5 15.5q29 0 43 -7.5t14 -15.5q0 -12 -14 -16q-33 -10 -59.5 -31t-26.5 -61q0 -38 25.5 -59.5t67.5 -21.5q30 0 60.5 19t59 49t54.5 66.5t48.5 73t40 68l28.5 50.5l40 66.5t33.5 48
t35.5 37.5t47 37q-14 6 -37.5 13t-52.5 13.5t-62 10.5t-65 4q-54 0 -89 -24t-35 -64q0 -30 18 -45.5t44 -15.5q23 0 40 10.5t25 28.5q4 8 8 13.5t10 5.5q5 0 10 -6t5 -26q0 -29 -10 -60.5t-31.5 -57.5t-54.5 -42.5t-79 -16.5q-39 0 -71 12.5t-54 34.5t-34 51t-12 61
q0 53 23 95.5t61 72.5t88 46t104 16q52 0 97.5 -12.5t86 -27.5l76 -27.5t68.5 -12.5q24 0 42.5 5t34.5 5q17 0 25 -9t8 -23q0 -11 -3.5 -19t-9.5 -17t-12.5 -21.5t-12.5 -32.5q-10 -32 -23.5 -88.5t-26 -124.5t-21 -141t-8.5 -137zM907 781q6 0 14 -6.5t16 -16.5t13.5 -20.5
t5.5 -18.5q0 -12 -4.5 -20t-18.5 -20q-15 -13 -33 -23t-35.5 -16.5t-33.5 -9.5t-27 -3q-8 0 -12.5 4.5t-4.5 9.5q0 6 3 10t12 9q22 13 45 36.5t37 65.5q7 19 23 19z" />
    <glyph glyph-name="A.03_breve" horiz-adv-x="871" 
d="M727 309q14 56 31 105t31 94q-18 -15 -37.5 -39.5t-38 -52.5t-34 -56t-24.5 -51h72zM801 -12q0 -64 14.5 -109.5t39.5 -74t59.5 -42t75.5 -13.5q48 0 90.5 14t81 35t73.5 46t69 46t67.5 35t69.5 14q49 0 83 -20.5t54 -51.5t29 -67.5t9 -68.5q0 -14 -1.5 -29t-6.5 -29
q-5 -15 -15 -15q-8 0 -11 5t-7 14q-17 42 -63.5 72t-121.5 30q-44 0 -93 -15.5l-105 -33.5t-119.5 -33.5t-136.5 -15.5q-52 0 -100.5 13t-86.5 43.5t-61 80t-23 121.5q0 41 6 88.5t14 91t16 78t12 49.5q-74 0 -130 -114l-28 -55t-40.5 -70t-53.5 -74t-67 -66.5t-80.5 -48
t-94.5 -18.5q-47 0 -87 13t-69 39t-46 64t-17 89q0 55 22 98.5t56 73.5t75.5 45.5t80.5 15.5q29 0 43 -7.5t14 -15.5q0 -12 -14 -16q-33 -10 -59.5 -31t-26.5 -61q0 -38 25.5 -59.5t67.5 -21.5q30 0 60.5 19t59 49t54.5 66.5t48.5 73t40 68l28.5 50.5l40 66.5t33.5 48
t35.5 37.5t47 37q-14 6 -37.5 13t-52.5 13.5t-62 10.5t-65 4q-54 0 -89 -24t-35 -64q0 -30 18 -45.5t44 -15.5q23 0 40 10.5t25 28.5q4 8 8 13.5t10 5.5q5 0 10 -6t5 -26q0 -29 -10 -60.5t-31.5 -57.5t-54.5 -42.5t-79 -16.5q-39 0 -71 12.5t-54 34.5t-34 51t-12 61
q0 53 23 95.5t61 72.5t88 46t104 16q52 0 97.5 -12.5t86 -27.5l76 -27.5t68.5 -12.5q24 0 42.5 5t34.5 5q17 0 25 -9t8 -23q0 -11 -3.5 -19t-9.5 -17t-12.5 -21.5t-12.5 -32.5q-10 -32 -23.5 -88.5t-26 -124.5t-21 -141t-8.5 -137zM800 633q-20 0 -39 6.5t-33.5 18.5
t-23.5 28.5t-9 36.5q0 17 12.5 29.5t28.5 12.5q29 0 29 -26q0 -12 -4 -16t-4 -15q0 -12 13.5 -19.5t35.5 -7.5q31 0 44.5 12.5t13.5 29.5q0 23 10 32.5t23 9.5q16 0 25 -8t9 -21q0 -26 -17 -51q-14 -20 -40 -36t-74 -16z" />
    <glyph glyph-name="A.03_circumflex" horiz-adv-x="871" 
d="M727 309q14 56 31 105t31 94q-18 -15 -37.5 -39.5t-38 -52.5t-34 -56t-24.5 -51h72zM801 -12q0 -64 14.5 -109.5t39.5 -74t59.5 -42t75.5 -13.5q48 0 90.5 14t81 35t73.5 46t69 46t67.5 35t69.5 14q49 0 83 -20.5t54 -51.5t29 -67.5t9 -68.5q0 -14 -1.5 -29t-6.5 -29
q-5 -15 -15 -15q-8 0 -11 5t-7 14q-17 42 -63.5 72t-121.5 30q-44 0 -93 -15.5l-105 -33.5t-119.5 -33.5t-136.5 -15.5q-52 0 -100.5 13t-86.5 43.5t-61 80t-23 121.5q0 41 6 88.5t14 91t16 78t12 49.5q-74 0 -130 -114l-28 -55t-40.5 -70t-53.5 -74t-67 -66.5t-80.5 -48
t-94.5 -18.5q-47 0 -87 13t-69 39t-46 64t-17 89q0 55 22 98.5t56 73.5t75.5 45.5t80.5 15.5q29 0 43 -7.5t14 -15.5q0 -12 -14 -16q-33 -10 -59.5 -31t-26.5 -61q0 -38 25.5 -59.5t67.5 -21.5q30 0 60.5 19t59 49t54.5 66.5t48.5 73t40 68l28.5 50.5l40 66.5t33.5 48
t35.5 37.5t47 37q-14 6 -37.5 13t-52.5 13.5t-62 10.5t-65 4q-54 0 -89 -24t-35 -64q0 -30 18 -45.5t44 -15.5q23 0 40 10.5t25 28.5q4 8 8 13.5t10 5.5q5 0 10 -6t5 -26q0 -29 -10 -60.5t-31.5 -57.5t-54.5 -42.5t-79 -16.5q-39 0 -71 12.5t-54 34.5t-34 51t-12 61
q0 53 23 95.5t61 72.5t88 46t104 16q52 0 97.5 -12.5t86 -27.5l76 -27.5t68.5 -12.5q24 0 42.5 5t34.5 5q17 0 25 -9t8 -23q0 -11 -3.5 -19t-9.5 -17t-12.5 -21.5t-12.5 -32.5q-10 -32 -23.5 -88.5t-26 -124.5t-21 -141t-8.5 -137zM814 705l-35 -20.5l-33.5 -19.5
t-27.5 -14.5t-17 -5.5q-8 0 -12 4.5t-4 9.5q0 12 15 23l20.5 15.5t16.5 14t17 17l23 24.5q11 13 20 22.5t28 9.5q21 0 26.5 -10t12.5 -26q11 -26 23 -39.5l24 -27.5q8 -8 12.5 -11.5t4.5 -10.5q0 -6 -4.5 -10.5t-12.5 -4.5t-32 10.5t-65 49.5z" />
    <glyph glyph-name="A.03_dieresis" horiz-adv-x="871" 
d="M727 309q14 56 31 105t31 94q-18 -15 -37.5 -39.5t-38 -52.5t-34 -56t-24.5 -51h72zM801 -12q0 -64 14.5 -109.5t39.5 -74t59.5 -42t75.5 -13.5q48 0 90.5 14t81 35t73.5 46t69 46t67.5 35t69.5 14q49 0 83 -20.5t54 -51.5t29 -67.5t9 -68.5q0 -14 -1.5 -29t-6.5 -29
q-5 -15 -15 -15q-8 0 -11 5t-7 14q-17 42 -63.5 72t-121.5 30q-44 0 -93 -15.5l-105 -33.5t-119.5 -33.5t-136.5 -15.5q-52 0 -100.5 13t-86.5 43.5t-61 80t-23 121.5q0 41 6 88.5t14 91t16 78t12 49.5q-74 0 -130 -114l-28 -55t-40.5 -70t-53.5 -74t-67 -66.5t-80.5 -48
t-94.5 -18.5q-47 0 -87 13t-69 39t-46 64t-17 89q0 55 22 98.5t56 73.5t75.5 45.5t80.5 15.5q29 0 43 -7.5t14 -15.5q0 -12 -14 -16q-33 -10 -59.5 -31t-26.5 -61q0 -38 25.5 -59.5t67.5 -21.5q30 0 60.5 19t59 49t54.5 66.5t48.5 73t40 68l28.5 50.5l40 66.5t33.5 48
t35.5 37.5t47 37q-14 6 -37.5 13t-52.5 13.5t-62 10.5t-65 4q-54 0 -89 -24t-35 -64q0 -30 18 -45.5t44 -15.5q23 0 40 10.5t25 28.5q4 8 8 13.5t10 5.5q5 0 10 -6t5 -26q0 -29 -10 -60.5t-31.5 -57.5t-54.5 -42.5t-79 -16.5q-39 0 -71 12.5t-54 34.5t-34 51t-12 61
q0 53 23 95.5t61 72.5t88 46t104 16q52 0 97.5 -12.5t86 -27.5l76 -27.5t68.5 -12.5q24 0 42.5 5t34.5 5q17 0 25 -9t8 -23q0 -11 -3.5 -19t-9.5 -17t-12.5 -21.5t-12.5 -32.5q-10 -32 -23.5 -88.5t-26 -124.5t-21 -141t-8.5 -137zM730 679q0 12 5 25t14 23.5t21 17.5t26 7
q18 0 29 -13t11 -33q0 -12 -5 -25.5t-14 -24t-21.5 -17.5t-27.5 -7q-17 0 -27.5 13.5t-10.5 33.5zM868 679q0 12 5 25t14 23.5t21 17.5t26 7q18 0 29 -13t11 -33q0 -12 -5 -25.5t-14 -24t-21.5 -17.5t-27.5 -7q-17 0 -27.5 13.5t-10.5 33.5z" />
    <glyph glyph-name="A.03_grave" horiz-adv-x="871" 
d="M727 309q14 56 31 105t31 94q-18 -15 -37.5 -39.5t-38 -52.5t-34 -56t-24.5 -51h72zM801 -12q0 -64 14.5 -109.5t39.5 -74t59.5 -42t75.5 -13.5q48 0 90.5 14t81 35t73.5 46t69 46t67.5 35t69.5 14q49 0 83 -20.5t54 -51.5t29 -67.5t9 -68.5q0 -14 -1.5 -29t-6.5 -29
q-5 -15 -15 -15q-8 0 -11 5t-7 14q-17 42 -63.5 72t-121.5 30q-44 0 -93 -15.5l-105 -33.5t-119.5 -33.5t-136.5 -15.5q-52 0 -100.5 13t-86.5 43.5t-61 80t-23 121.5q0 41 6 88.5t14 91t16 78t12 49.5q-74 0 -130 -114l-28 -55t-40.5 -70t-53.5 -74t-67 -66.5t-80.5 -48
t-94.5 -18.5q-47 0 -87 13t-69 39t-46 64t-17 89q0 55 22 98.5t56 73.5t75.5 45.5t80.5 15.5q29 0 43 -7.5t14 -15.5q0 -12 -14 -16q-33 -10 -59.5 -31t-26.5 -61q0 -38 25.5 -59.5t67.5 -21.5q30 0 60.5 19t59 49t54.5 66.5t48.5 73t40 68l28.5 50.5l40 66.5t33.5 48
t35.5 37.5t47 37q-14 6 -37.5 13t-52.5 13.5t-62 10.5t-65 4q-54 0 -89 -24t-35 -64q0 -30 18 -45.5t44 -15.5q23 0 40 10.5t25 28.5q4 8 8 13.5t10 5.5q5 0 10 -6t5 -26q0 -29 -10 -60.5t-31.5 -57.5t-54.5 -42.5t-79 -16.5q-39 0 -71 12.5t-54 34.5t-34 51t-12 61
q0 53 23 95.5t61 72.5t88 46t104 16q52 0 97.5 -12.5t86 -27.5l76 -27.5t68.5 -12.5q24 0 42.5 5t34.5 5q17 0 25 -9t8 -23q0 -11 -3.5 -19t-9.5 -17t-12.5 -21.5t-12.5 -32.5q-10 -32 -23.5 -88.5t-26 -124.5t-21 -141t-8.5 -137zM720 783q16 0 23 -19q14 -42 37 -65.5
t45 -36.5q9 -5 12 -9t3 -10q0 -5 -4.5 -9.5t-12.5 -4.5q-11 0 -27 3t-33.5 9.5t-35.5 16.5t-33 23q-14 12 -18.5 20t-4.5 20q0 8 5.5 18.5t13.5 20.5t16 16.5t14 6.5z" />
    <glyph glyph-name="A.03_ogonek" horiz-adv-x="871" 
d="M801 -12q0 -64 14.5 -109.5t39.5 -74t59.5 -42t75.5 -13.5q48 0 90.5 14t81 35t73.5 46t69 46t67.5 35t69.5 14q49 0 83 -20.5t54 -51.5t29 -67.5t9 -68.5q0 -14 -1.5 -29t-6.5 -29q-5 -15 -15 -15q-8 0 -11 5t-7 14q-17 42 -63.5 72t-121.5 30q-44 0 -93 -15.5
l-105 -33.5t-119.5 -33.5t-136.5 -15.5h-11q-14 -9 -29 -24.5t-15 -32.5q0 -18 23.5 -30t59.5 -12q16 0 16 -10t-14 -24q-12 -13 -31.5 -25t-39.5 -12q-13 0 -29 7t-29.5 18.5t-22.5 26.5t-9 31q0 32 19.5 55t43.5 38q-42 7 -78.5 24.5t-64.5 48t-44 75t-16 104.5
q0 41 6 88.5t14 91t16 78t12 49.5q-74 0 -130 -114l-28 -55t-40.5 -70t-53.5 -74t-67 -66.5t-80.5 -48t-94.5 -18.5q-47 0 -87 13t-69 39t-46 64t-17 89q0 55 22 98.5t56 73.5t75.5 45.5t80.5 15.5q29 0 43 -7.5t14 -15.5q0 -12 -14 -16q-33 -10 -59.5 -31t-26.5 -61
q0 -38 25.5 -59.5t67.5 -21.5q30 0 60.5 19t59 49t54.5 66.5t48.5 73t40 68l28.5 50.5l40 66.5t33.5 48t35.5 37.5t47 37q-14 6 -37.5 13t-52.5 13.5t-62 10.5t-65 4q-54 0 -89 -24t-35 -64q0 -30 18 -45.5t44 -15.5q23 0 40 10.5t25 28.5q4 8 8 13.5t10 5.5q5 0 10 -6
t5 -26q0 -29 -10 -60.5t-31.5 -57.5t-54.5 -42.5t-79 -16.5q-39 0 -71 12.5t-54 34.5t-34 51t-12 61q0 53 23 95.5t61 72.5t88 46t104 16q52 0 97.5 -12.5t86 -27.5l76 -27.5t68.5 -12.5q24 0 42.5 5t34.5 5q17 0 25 -9t8 -23q0 -11 -3.5 -19t-9.5 -17t-12.5 -21.5
t-12.5 -32.5q-10 -32 -23.5 -88.5t-26 -124.5t-21 -141t-8.5 -137zM727 309q14 56 31 105t31 94q-18 -15 -37.5 -39.5t-38 -52.5t-34 -56t-24.5 -51h72z" />
    <glyph glyph-name="A.03_ring" horiz-adv-x="871" 
d="M727 309q14 56 31 105t31 94q-18 -15 -37.5 -39.5t-38 -52.5t-34 -56t-24.5 -51h72zM801 -12q0 -64 14.5 -109.5t39.5 -74t59.5 -42t75.5 -13.5q48 0 90.5 14t81 35t73.5 46t69 46t67.5 35t69.5 14q49 0 83 -20.5t54 -51.5t29 -67.5t9 -68.5q0 -14 -1.5 -29t-6.5 -29
q-5 -15 -15 -15q-8 0 -11 5t-7 14q-17 42 -63.5 72t-121.5 30q-44 0 -93 -15.5l-105 -33.5t-119.5 -33.5t-136.5 -15.5q-52 0 -100.5 13t-86.5 43.5t-61 80t-23 121.5q0 41 6 88.5t14 91t16 78t12 49.5q-74 0 -130 -114l-28 -55t-40.5 -70t-53.5 -74t-67 -66.5t-80.5 -48
t-94.5 -18.5q-47 0 -87 13t-69 39t-46 64t-17 89q0 55 22 98.5t56 73.5t75.5 45.5t80.5 15.5q29 0 43 -7.5t14 -15.5q0 -12 -14 -16q-33 -10 -59.5 -31t-26.5 -61q0 -38 25.5 -59.5t67.5 -21.5q30 0 60.5 19t59 49t54.5 66.5t48.5 73t40 68l28.5 50.5l40 66.5t33.5 48
t35.5 37.5t47 37q-14 6 -37.5 13t-52.5 13.5t-62 10.5t-65 4q-54 0 -89 -24t-35 -64q0 -30 18 -45.5t44 -15.5q23 0 40 10.5t25 28.5q4 8 8 13.5t10 5.5q5 0 10 -6t5 -26q0 -29 -10 -60.5t-31.5 -57.5t-54.5 -42.5t-79 -16.5q-39 0 -71 12.5t-54 34.5t-34 51t-12 61
q0 53 23 95.5t61 72.5t88 46t104 16q52 0 97.5 -12.5t86 -27.5l76 -27.5t68.5 -12.5q24 0 42.5 5t34.5 5q17 0 25 -9t8 -23q0 -11 -3.5 -19t-9.5 -17t-12.5 -21.5t-12.5 -32.5q-10 -32 -23.5 -88.5t-26 -124.5t-21 -141t-8.5 -137zM767 731q0 -17 12.5 -29.5t29.5 -12.5
t28.5 12.5t11.5 29.5t-11.5 28.5t-28.5 11.5t-29.5 -11.5t-12.5 -28.5zM710 731q0 42 28.5 70.5t70.5 28.5t70.5 -28.5t28.5 -70.5t-28.5 -70.5t-70.5 -28.5t-70.5 28.5t-28.5 70.5z" />
    <glyph glyph-name="A.03_tilde" horiz-adv-x="871" 
d="M727 309q14 56 31 105t31 94q-18 -15 -37.5 -39.5t-38 -52.5t-34 -56t-24.5 -51h72zM801 -12q0 -64 14.5 -109.5t39.5 -74t59.5 -42t75.5 -13.5q48 0 90.5 14t81 35t73.5 46t69 46t67.5 35t69.5 14q49 0 83 -20.5t54 -51.5t29 -67.5t9 -68.5q0 -14 -1.5 -29t-6.5 -29
q-5 -15 -15 -15q-8 0 -11 5t-7 14q-17 42 -63.5 72t-121.5 30q-44 0 -93 -15.5l-105 -33.5t-119.5 -33.5t-136.5 -15.5q-52 0 -100.5 13t-86.5 43.5t-61 80t-23 121.5q0 41 6 88.5t14 91t16 78t12 49.5q-74 0 -130 -114l-28 -55t-40.5 -70t-53.5 -74t-67 -66.5t-80.5 -48
t-94.5 -18.5q-47 0 -87 13t-69 39t-46 64t-17 89q0 55 22 98.5t56 73.5t75.5 45.5t80.5 15.5q29 0 43 -7.5t14 -15.5q0 -12 -14 -16q-33 -10 -59.5 -31t-26.5 -61q0 -38 25.5 -59.5t67.5 -21.5q30 0 60.5 19t59 49t54.5 66.5t48.5 73t40 68l28.5 50.5l40 66.5t33.5 48
t35.5 37.5t47 37q-14 6 -37.5 13t-52.5 13.5t-62 10.5t-65 4q-54 0 -89 -24t-35 -64q0 -30 18 -45.5t44 -15.5q23 0 40 10.5t25 28.5q4 8 8 13.5t10 5.5q5 0 10 -6t5 -26q0 -29 -10 -60.5t-31.5 -57.5t-54.5 -42.5t-79 -16.5q-39 0 -71 12.5t-54 34.5t-34 51t-12 61
q0 53 23 95.5t61 72.5t88 46t104 16q52 0 97.5 -12.5t86 -27.5l76 -27.5t68.5 -12.5q24 0 42.5 5t34.5 5q17 0 25 -9t8 -23q0 -11 -3.5 -19t-9.5 -17t-12.5 -21.5t-12.5 -32.5q-10 -32 -23.5 -88.5t-26 -124.5t-21 -141t-8.5 -137zM856 642q-17 0 -33 5.5t-31 12t-30.5 12
t-32.5 5.5q-18 0 -34.5 -9.5t-23.5 -9.5q-5 0 -8.5 3t-3.5 9q0 5 3 11t7 11q6 9 15 18.5t20 17.5t23.5 13.5t25.5 5.5q17 0 31 -5.5t27.5 -12.5t28 -12.5t32.5 -5.5q23 0 40 11t25 11q5 0 9 -2.5t4 -7.5t-2 -9.5t-4 -8.5q-17 -23 -38 -43t-50 -20z" />
    <glyph glyph-name="A.salt" horiz-adv-x="900" 
d="M729 309q14 56 30 105l30 94q-18 -15 -37.5 -39.5t-38 -52.5t-34 -56t-24.5 -51h74zM892 -62q23 0 33 6.5t16 6.5q13 0 13 -12q0 -11 -26 -37q-19 -18 -47 -36.5t-67 -18.5q-66 0 -98 46t-32 132q0 24 3.5 56t8.5 63.5t10 59t9 42.5q-76 0 -132 -114l-28 -55t-40.5 -70
t-53.5 -74t-67 -66.5t-80.5 -48t-94.5 -18.5q-47 0 -87 13t-69 39t-46 64t-17 89q0 55 22 98.5t56 73.5t75.5 45.5t80.5 15.5q29 0 43 -7.5t14 -15.5q0 -12 -14 -16q-33 -10 -59.5 -31t-26.5 -61q0 -38 25.5 -59.5t67.5 -21.5q30 0 60.5 19t59 49t54.5 66.5t48.5 73t40 68
l28.5 50.5l40 66.5t33.5 48t35.5 37.5t47 37q-14 6 -37.5 13t-52.5 13.5t-62 10.5t-65 4q-54 0 -89 -24t-35 -64q0 -30 18 -45.5t44 -15.5q23 0 40 10.5t25 28.5q4 8 8 13.5t10 5.5q5 0 10 -6t5 -26q0 -29 -10 -60.5t-31.5 -57.5t-54.5 -42.5t-79 -16.5q-39 0 -71 12.5
t-54 34.5t-34 51t-12 61q0 53 23 95.5t61 72.5t88 46t104 16q52 0 97.5 -12.5t86 -27.5l76 -27.5t68.5 -12.5q24 0 42.5 5t34.5 5q17 0 25 -9t8 -23q0 -11 -3.5 -19t-9.5 -17t-12.5 -21.5t-12.5 -32.5q-10 -32 -19.5 -77.5t-17.5 -95.5t-13 -99.5t-5 -88.5q0 -22 1 -52.5
t7.5 -59t20 -48.5t38.5 -20z" />
    <glyph glyph-name="A.salt_acute" horiz-adv-x="900" 
d="M729 309q14 56 30 105l30 94q-18 -15 -37.5 -39.5t-38 -52.5t-34 -56t-24.5 -51h74zM892 -62q23 0 33 6.5t16 6.5q13 0 13 -12q0 -11 -26 -37q-19 -18 -47 -36.5t-67 -18.5q-66 0 -98 46t-32 132q0 24 3.5 56t8.5 63.5t10 59t9 42.5q-76 0 -132 -114l-28 -55t-40.5 -70
t-53.5 -74t-67 -66.5t-80.5 -48t-94.5 -18.5q-47 0 -87 13t-69 39t-46 64t-17 89q0 55 22 98.5t56 73.5t75.5 45.5t80.5 15.5q29 0 43 -7.5t14 -15.5q0 -12 -14 -16q-33 -10 -59.5 -31t-26.5 -61q0 -38 25.5 -59.5t67.5 -21.5q30 0 60.5 19t59 49t54.5 66.5t48.5 73t40 68
l28.5 50.5l40 66.5t33.5 48t35.5 37.5t47 37q-14 6 -37.5 13t-52.5 13.5t-62 10.5t-65 4q-54 0 -89 -24t-35 -64q0 -30 18 -45.5t44 -15.5q23 0 40 10.5t25 28.5q4 8 8 13.5t10 5.5q5 0 10 -6t5 -26q0 -29 -10 -60.5t-31.5 -57.5t-54.5 -42.5t-79 -16.5q-39 0 -71 12.5
t-54 34.5t-34 51t-12 61q0 53 23 95.5t61 72.5t88 46t104 16q52 0 97.5 -12.5t86 -27.5l76 -27.5t68.5 -12.5q24 0 42.5 5t34.5 5q17 0 25 -9t8 -23q0 -11 -3.5 -19t-9.5 -17t-12.5 -21.5t-12.5 -32.5q-10 -32 -19.5 -77.5t-17.5 -95.5t-13 -99.5t-5 -88.5q0 -22 1 -52.5
t7.5 -59t20 -48.5t38.5 -20zM893 779q6 0 14 -6.5t16 -16.5t13.5 -20.5t5.5 -18.5q0 -12 -4.5 -20t-18.5 -20q-15 -13 -33 -23t-35.5 -16.5t-33.5 -9.5t-27 -3q-8 0 -12.5 4.5t-4.5 9.5q0 6 3 10t12 9q22 13 45 36.5t37 65.5q7 19 23 19z" />
    <glyph glyph-name="A.salt_breve" horiz-adv-x="900" 
d="M729 309q14 56 30 105l30 94q-18 -15 -37.5 -39.5t-38 -52.5t-34 -56t-24.5 -51h74zM892 -62q23 0 33 6.5t16 6.5q13 0 13 -12q0 -11 -26 -37q-19 -18 -47 -36.5t-67 -18.5q-66 0 -98 46t-32 132q0 24 3.5 56t8.5 63.5t10 59t9 42.5q-76 0 -132 -114l-28 -55t-40.5 -70
t-53.5 -74t-67 -66.5t-80.5 -48t-94.5 -18.5q-47 0 -87 13t-69 39t-46 64t-17 89q0 55 22 98.5t56 73.5t75.5 45.5t80.5 15.5q29 0 43 -7.5t14 -15.5q0 -12 -14 -16q-33 -10 -59.5 -31t-26.5 -61q0 -38 25.5 -59.5t67.5 -21.5q30 0 60.5 19t59 49t54.5 66.5t48.5 73t40 68
l28.5 50.5l40 66.5t33.5 48t35.5 37.5t47 37q-14 6 -37.5 13t-52.5 13.5t-62 10.5t-65 4q-54 0 -89 -24t-35 -64q0 -30 18 -45.5t44 -15.5q23 0 40 10.5t25 28.5q4 8 8 13.5t10 5.5q5 0 10 -6t5 -26q0 -29 -10 -60.5t-31.5 -57.5t-54.5 -42.5t-79 -16.5q-39 0 -71 12.5
t-54 34.5t-34 51t-12 61q0 53 23 95.5t61 72.5t88 46t104 16q52 0 97.5 -12.5t86 -27.5l76 -27.5t68.5 -12.5q24 0 42.5 5t34.5 5q17 0 25 -9t8 -23q0 -11 -3.5 -19t-9.5 -17t-12.5 -21.5t-12.5 -32.5q-10 -32 -19.5 -77.5t-17.5 -95.5t-13 -99.5t-5 -88.5q0 -22 1 -52.5
t7.5 -59t20 -48.5t38.5 -20zM809 631q-20 0 -39 6.5t-33.5 18.5t-23.5 28.5t-9 36.5q0 17 12.5 29.5t28.5 12.5q29 0 29 -26q0 -12 -4 -16t-4 -15q0 -12 13.5 -19.5t35.5 -7.5q31 0 44.5 12.5t13.5 29.5q0 23 10 32.5t23 9.5q16 0 25 -8t9 -21q0 -26 -17 -51
q-14 -20 -40 -36t-74 -16z" />
    <glyph glyph-name="A.salt_circumflex" horiz-adv-x="900" 
d="M729 309q14 56 30 105l30 94q-18 -15 -37.5 -39.5t-38 -52.5t-34 -56t-24.5 -51h74zM892 -62q23 0 33 6.5t16 6.5q13 0 13 -12q0 -11 -26 -37q-19 -18 -47 -36.5t-67 -18.5q-66 0 -98 46t-32 132q0 24 3.5 56t8.5 63.5t10 59t9 42.5q-76 0 -132 -114l-28 -55t-40.5 -70
t-53.5 -74t-67 -66.5t-80.5 -48t-94.5 -18.5q-47 0 -87 13t-69 39t-46 64t-17 89q0 55 22 98.5t56 73.5t75.5 45.5t80.5 15.5q29 0 43 -7.5t14 -15.5q0 -12 -14 -16q-33 -10 -59.5 -31t-26.5 -61q0 -38 25.5 -59.5t67.5 -21.5q30 0 60.5 19t59 49t54.5 66.5t48.5 73t40 68
l28.5 50.5l40 66.5t33.5 48t35.5 37.5t47 37q-14 6 -37.5 13t-52.5 13.5t-62 10.5t-65 4q-54 0 -89 -24t-35 -64q0 -30 18 -45.5t44 -15.5q23 0 40 10.5t25 28.5q4 8 8 13.5t10 5.5q5 0 10 -6t5 -26q0 -29 -10 -60.5t-31.5 -57.5t-54.5 -42.5t-79 -16.5q-39 0 -71 12.5
t-54 34.5t-34 51t-12 61q0 53 23 95.5t61 72.5t88 46t104 16q52 0 97.5 -12.5t86 -27.5l76 -27.5t68.5 -12.5q24 0 42.5 5t34.5 5q17 0 25 -9t8 -23q0 -11 -3.5 -19t-9.5 -17t-12.5 -21.5t-12.5 -32.5q-10 -32 -19.5 -77.5t-17.5 -95.5t-13 -99.5t-5 -88.5q0 -22 1 -52.5
t7.5 -59t20 -48.5t38.5 -20zM824 694l-35 -20.5l-33.5 -19.5t-27.5 -14.5t-17 -5.5q-8 0 -12 4.5t-4 9.5q0 12 15 23l20.5 15.5t16.5 14t17 17l23 24.5q11 13 20 22.5t28 9.5q21 0 26.5 -10t12.5 -26q11 -26 23 -39.5l24 -27.5q8 -8 12.5 -11.5t4.5 -10.5q0 -6 -4.5 -10.5
t-12.5 -4.5t-32 10.5t-65 49.5z" />
    <glyph glyph-name="A.salt_dieresis" horiz-adv-x="900" 
d="M729 309q14 56 30 105l30 94q-18 -15 -37.5 -39.5t-38 -52.5t-34 -56t-24.5 -51h74zM892 -62q23 0 33 6.5t16 6.5q13 0 13 -12q0 -11 -26 -37q-19 -18 -47 -36.5t-67 -18.5q-66 0 -98 46t-32 132q0 24 3.5 56t8.5 63.5t10 59t9 42.5q-76 0 -132 -114l-28 -55t-40.5 -70
t-53.5 -74t-67 -66.5t-80.5 -48t-94.5 -18.5q-47 0 -87 13t-69 39t-46 64t-17 89q0 55 22 98.5t56 73.5t75.5 45.5t80.5 15.5q29 0 43 -7.5t14 -15.5q0 -12 -14 -16q-33 -10 -59.5 -31t-26.5 -61q0 -38 25.5 -59.5t67.5 -21.5q30 0 60.5 19t59 49t54.5 66.5t48.5 73t40 68
l28.5 50.5l40 66.5t33.5 48t35.5 37.5t47 37q-14 6 -37.5 13t-52.5 13.5t-62 10.5t-65 4q-54 0 -89 -24t-35 -64q0 -30 18 -45.5t44 -15.5q23 0 40 10.5t25 28.5q4 8 8 13.5t10 5.5q5 0 10 -6t5 -26q0 -29 -10 -60.5t-31.5 -57.5t-54.5 -42.5t-79 -16.5q-39 0 -71 12.5
t-54 34.5t-34 51t-12 61q0 53 23 95.5t61 72.5t88 46t104 16q52 0 97.5 -12.5t86 -27.5l76 -27.5t68.5 -12.5q24 0 42.5 5t34.5 5q17 0 25 -9t8 -23q0 -11 -3.5 -19t-9.5 -17t-12.5 -21.5t-12.5 -32.5q-10 -32 -19.5 -77.5t-17.5 -95.5t-13 -99.5t-5 -88.5q0 -22 1 -52.5
t7.5 -59t20 -48.5t38.5 -20zM720 679q0 12 5 25t14 23.5t21 17.5t26 7q18 0 29 -13t11 -33q0 -12 -5 -25.5t-14 -24t-21.5 -17.5t-27.5 -7q-17 0 -27.5 13.5t-10.5 33.5zM858 679q0 12 5 25t14 23.5t21 17.5t26 7q18 0 29 -13t11 -33q0 -12 -5 -25.5t-14 -24t-21.5 -17.5
t-27.5 -7q-17 0 -27.5 13.5t-10.5 33.5z" />
    <glyph glyph-name="A.salt_grave" horiz-adv-x="900" 
d="M729 309q14 56 30 105l30 94q-18 -15 -37.5 -39.5t-38 -52.5t-34 -56t-24.5 -51h74zM892 -62q23 0 33 6.5t16 6.5q13 0 13 -12q0 -11 -26 -37q-19 -18 -47 -36.5t-67 -18.5q-66 0 -98 46t-32 132q0 24 3.5 56t8.5 63.5t10 59t9 42.5q-76 0 -132 -114l-28 -55t-40.5 -70
t-53.5 -74t-67 -66.5t-80.5 -48t-94.5 -18.5q-47 0 -87 13t-69 39t-46 64t-17 89q0 55 22 98.5t56 73.5t75.5 45.5t80.5 15.5q29 0 43 -7.5t14 -15.5q0 -12 -14 -16q-33 -10 -59.5 -31t-26.5 -61q0 -38 25.5 -59.5t67.5 -21.5q30 0 60.5 19t59 49t54.5 66.5t48.5 73t40 68
l28.5 50.5l40 66.5t33.5 48t35.5 37.5t47 37q-14 6 -37.5 13t-52.5 13.5t-62 10.5t-65 4q-54 0 -89 -24t-35 -64q0 -30 18 -45.5t44 -15.5q23 0 40 10.5t25 28.5q4 8 8 13.5t10 5.5q5 0 10 -6t5 -26q0 -29 -10 -60.5t-31.5 -57.5t-54.5 -42.5t-79 -16.5q-39 0 -71 12.5
t-54 34.5t-34 51t-12 61q0 53 23 95.5t61 72.5t88 46t104 16q52 0 97.5 -12.5t86 -27.5l76 -27.5t68.5 -12.5q24 0 42.5 5t34.5 5q17 0 25 -9t8 -23q0 -11 -3.5 -19t-9.5 -17t-12.5 -21.5t-12.5 -32.5q-10 -32 -19.5 -77.5t-17.5 -95.5t-13 -99.5t-5 -88.5q0 -22 1 -52.5
t7.5 -59t20 -48.5t38.5 -20zM730 781q16 0 23 -19q14 -42 37 -65.5t45 -36.5q9 -5 12 -9t3 -10q0 -5 -4.5 -9.5t-12.5 -4.5q-11 0 -27 3t-33.5 9.5t-35.5 16.5t-33 23q-14 12 -18.5 20t-4.5 20q0 8 5.5 18.5t13.5 20.5t16 16.5t14 6.5z" />
    <glyph glyph-name="A.salt_ogonek" horiz-adv-x="900" 
d="M892 -62q23 0 33 6.5t16 6.5q13 0 13 -12q0 -11 -26 -37q-19 -18 -47 -36.5t-67 -18.5q-3 0 -6 0.5t-5 0.5q-7 -4 -15.5 -10.5t-15.5 -14.5t-12 -17t-5 -18q0 -18 23.5 -30t59.5 -12q16 0 16 -10t-14 -24q-12 -13 -31.5 -25t-39.5 -12q-13 0 -29 7t-29.5 18.5t-22.5 26.5
t-9 31q0 18 7 33.5t18 28t25 22.5t28 17q-37 17 -55 59.5t-18 106.5q0 24 3.5 56t8.5 63.5t10 59t9 42.5q-76 0 -132 -114l-28 -55t-40.5 -70t-53.5 -74t-67 -66.5t-80.5 -48t-94.5 -18.5q-47 0 -87 13t-69 39t-46 64t-17 89q0 55 22 98.5t56 73.5t75.5 45.5t80.5 15.5
q29 0 43 -7.5t14 -15.5q0 -12 -14 -16q-33 -10 -59.5 -31t-26.5 -61q0 -38 25.5 -59.5t67.5 -21.5q30 0 60.5 19t59 49t54.5 66.5t48.5 73t40 68l28.5 50.5l40 66.5t33.5 48t35.5 37.5t47 37q-14 6 -37.5 13t-52.5 13.5t-62 10.5t-65 4q-54 0 -89 -24t-35 -64
q0 -30 18 -45.5t44 -15.5q23 0 40 10.5t25 28.5q4 8 8 13.5t10 5.5q5 0 10 -6t5 -26q0 -29 -10 -60.5t-31.5 -57.5t-54.5 -42.5t-79 -16.5q-39 0 -71 12.5t-54 34.5t-34 51t-12 61q0 53 23 95.5t61 72.5t88 46t104 16q52 0 97.5 -12.5t86 -27.5l76 -27.5t68.5 -12.5
q24 0 42.5 5t34.5 5q17 0 25 -9t8 -23q0 -11 -3.5 -19t-9.5 -17t-12.5 -21.5t-12.5 -32.5q-10 -32 -19.5 -77.5t-17.5 -95.5t-13 -99.5t-5 -88.5q0 -22 1 -52.5t7.5 -59t20 -48.5t38.5 -20zM729 309q14 56 30 105l30 94q-18 -15 -37.5 -39.5t-38 -52.5t-34 -56t-24.5 -51h74
z" />
    <glyph glyph-name="A.salt_ring" horiz-adv-x="900" 
d="M729 309q14 56 30 105l30 94q-18 -15 -37.5 -39.5t-38 -52.5t-34 -56t-24.5 -51h74zM892 -62q23 0 33 6.5t16 6.5q13 0 13 -12q0 -11 -26 -37q-19 -18 -47 -36.5t-67 -18.5q-66 0 -98 46t-32 132q0 24 3.5 56t8.5 63.5t10 59t9 42.5q-76 0 -132 -114l-28 -55t-40.5 -70
t-53.5 -74t-67 -66.5t-80.5 -48t-94.5 -18.5q-47 0 -87 13t-69 39t-46 64t-17 89q0 55 22 98.5t56 73.5t75.5 45.5t80.5 15.5q29 0 43 -7.5t14 -15.5q0 -12 -14 -16q-33 -10 -59.5 -31t-26.5 -61q0 -38 25.5 -59.5t67.5 -21.5q30 0 60.5 19t59 49t54.5 66.5t48.5 73t40 68
l28.5 50.5l40 66.5t33.5 48t35.5 37.5t47 37q-14 6 -37.5 13t-52.5 13.5t-62 10.5t-65 4q-54 0 -89 -24t-35 -64q0 -30 18 -45.5t44 -15.5q23 0 40 10.5t25 28.5q4 8 8 13.5t10 5.5q5 0 10 -6t5 -26q0 -29 -10 -60.5t-31.5 -57.5t-54.5 -42.5t-79 -16.5q-39 0 -71 12.5
t-54 34.5t-34 51t-12 61q0 53 23 95.5t61 72.5t88 46t104 16q52 0 97.5 -12.5t86 -27.5l76 -27.5t68.5 -12.5q24 0 42.5 5t34.5 5q17 0 25 -9t8 -23q0 -11 -3.5 -19t-9.5 -17t-12.5 -21.5t-12.5 -32.5q-10 -32 -19.5 -77.5t-17.5 -95.5t-13 -99.5t-5 -88.5q0 -22 1 -52.5
t7.5 -59t20 -48.5t38.5 -20zM767 719q0 -17 12.5 -29.5t29.5 -12.5t28.5 12.5t11.5 29.5t-11.5 28.5t-28.5 11.5t-29.5 -11.5t-12.5 -28.5zM710 719q0 42 28.5 70.5t70.5 28.5t70.5 -28.5t28.5 -70.5t-28.5 -70.5t-70.5 -28.5t-70.5 28.5t-28.5 70.5z" />
    <glyph glyph-name="A.salt_tilde" horiz-adv-x="900" 
d="M729 309q14 56 30 105l30 94q-18 -15 -37.5 -39.5t-38 -52.5t-34 -56t-24.5 -51h74zM892 -62q23 0 33 6.5t16 6.5q13 0 13 -12q0 -11 -26 -37q-19 -18 -47 -36.5t-67 -18.5q-66 0 -98 46t-32 132q0 24 3.5 56t8.5 63.5t10 59t9 42.5q-76 0 -132 -114l-28 -55t-40.5 -70
t-53.5 -74t-67 -66.5t-80.5 -48t-94.5 -18.5q-47 0 -87 13t-69 39t-46 64t-17 89q0 55 22 98.5t56 73.5t75.5 45.5t80.5 15.5q29 0 43 -7.5t14 -15.5q0 -12 -14 -16q-33 -10 -59.5 -31t-26.5 -61q0 -38 25.5 -59.5t67.5 -21.5q30 0 60.5 19t59 49t54.5 66.5t48.5 73t40 68
l28.5 50.5l40 66.5t33.5 48t35.5 37.5t47 37q-14 6 -37.5 13t-52.5 13.5t-62 10.5t-65 4q-54 0 -89 -24t-35 -64q0 -30 18 -45.5t44 -15.5q23 0 40 10.5t25 28.5q4 8 8 13.5t10 5.5q5 0 10 -6t5 -26q0 -29 -10 -60.5t-31.5 -57.5t-54.5 -42.5t-79 -16.5q-39 0 -71 12.5
t-54 34.5t-34 51t-12 61q0 53 23 95.5t61 72.5t88 46t104 16q52 0 97.5 -12.5t86 -27.5l76 -27.5t68.5 -12.5q24 0 42.5 5t34.5 5q17 0 25 -9t8 -23q0 -11 -3.5 -19t-9.5 -17t-12.5 -21.5t-12.5 -32.5q-10 -32 -19.5 -77.5t-17.5 -95.5t-13 -99.5t-5 -88.5q0 -22 1 -52.5
t7.5 -59t20 -48.5t38.5 -20zM870 633q-17 0 -33 5.5t-31 12t-30.5 12t-32.5 5.5q-18 0 -34.5 -9.5t-23.5 -9.5q-5 0 -8.5 3t-3.5 9q0 5 3 11t7 11q6 9 15 18.5t20 17.5t23.5 13.5t25.5 5.5q17 0 31 -5.5t27.5 -12.5t28 -12.5t32.5 -5.5q23 0 40 11t25 11q5 0 9 -2.5t4 -7.5
t-2 -9.5t-4 -8.5q-17 -23 -38 -43t-50 -20z" />
    <glyph glyph-name="A.titl" horiz-adv-x="828" 
d="M623 309q14 56 30 105l30 94q-18 -15 -37.5 -39.5t-38 -52.5t-34 -56t-24.5 -51h74zM594 118q0 43 5 71l10 57q-38 0 -67 -17t-51 -57q-18 -32 -40 -76.5t-56 -84.5t-82 -68t-118 -28q-41 0 -77 12t-62 34.5t-41 55.5t-15 75t17 75t44 55.5t61.5 34.5t69.5 12
q26 0 38 -6.5t12 -12.5q0 -9 -14 -10q-25 -4 -42.5 -24t-17.5 -53q0 -31 19.5 -50t55.5 -19q29 0 61.5 29.5t63 71t57 85l44.5 72.5l41 66t33 48t35 38t47 37l-33 14t-43 15.5t-52 12.5t-60 5q-42 0 -65.5 -21.5t-23.5 -48.5q0 -24 14 -37.5t35 -13.5q18 0 29 10t20 23
l8 9.5t8 3.5t8.5 -5t3.5 -20q0 -23 -8 -48t-24.5 -45.5t-43 -33.5t-62.5 -13q-31 0 -56 10t-42.5 27.5t-27 40t-9.5 48.5q0 46 18 81.5t48 59.5t69.5 36t82.5 12q52 0 90.5 -11.5t70.5 -25l60.5 -24.5t61.5 -11q24 0 42.5 5t34.5 5q17 0 25 -9t8 -23q0 -11 -3.5 -19
t-9.5 -17t-12.5 -21.5t-12.5 -32.5q-10 -32 -18.5 -72t-14.5 -83t-9.5 -87t-3.5 -83q0 -45 15 -61.5t32 -16.5q13 0 20.5 5.5t17.5 15.5t17 10t10.5 -4.5t3.5 -9.5q0 -8 -4 -15t-12 -17t-20 -21.5t-28 -21.5t-35.5 -16.5t-43.5 -6.5q-25 0 -44.5 10t-33.5 27t-21.5 39
t-7.5 47z" />
    <glyph glyph-name="A.titl_acute" horiz-adv-x="818" 
d="M623 309q14 56 30 105l30 94q-18 -15 -37.5 -39.5t-38 -52.5t-34 -56t-24.5 -51h74zM594 118q0 43 5 71l10 57q-38 0 -67 -17t-51 -57q-18 -32 -40 -76.5t-56 -84.5t-82 -68t-118 -28q-41 0 -77 12t-62 34.5t-41 55.5t-15 75t17 75t44 55.5t61.5 34.5t69.5 12
q26 0 38 -6.5t12 -12.5q0 -9 -14 -10q-25 -4 -42.5 -24t-17.5 -53q0 -31 19.5 -50t55.5 -19q29 0 61.5 29.5t63 71t57 85l44.5 72.5l41 66t33 48t35 38t47 37l-33 14t-43 15.5t-52 12.5t-60 5q-42 0 -65.5 -21.5t-23.5 -48.5q0 -24 14 -37.5t35 -13.5q18 0 29 10t20 23
l8 9.5t8 3.5t8.5 -5t3.5 -20q0 -23 -8 -48t-24.5 -45.5t-43 -33.5t-62.5 -13q-31 0 -56 10t-42.5 27.5t-27 40t-9.5 48.5q0 46 18 81.5t48 59.5t69.5 36t82.5 12q52 0 90.5 -11.5t70.5 -25l60.5 -24.5t61.5 -11q24 0 42.5 5t34.5 5q17 0 25 -9t8 -23q0 -11 -3.5 -19
t-9.5 -17t-12.5 -21.5t-12.5 -32.5q-10 -32 -18.5 -72t-14.5 -83t-9.5 -87t-3.5 -83q0 -45 15 -61.5t32 -16.5q13 0 20.5 5.5t17.5 15.5t17 10t10.5 -4.5t3.5 -9.5q0 -8 -4 -15t-12 -17t-20 -21.5t-28 -21.5t-35.5 -16.5t-43.5 -6.5q-25 0 -44.5 10t-33.5 27t-21.5 39
t-7.5 47zM781 781q6 0 14 -6.5t16 -16.5t13.5 -20.5t5.5 -18.5q0 -12 -4.5 -20t-18.5 -20q-15 -13 -33 -23t-35.5 -16.5t-33.5 -9.5t-27 -3q-8 0 -12.5 4.5t-4.5 9.5q0 6 3 10t12 9q22 13 45 36.5t37 65.5q7 19 23 19z" />
    <glyph glyph-name="A.titl_breve" horiz-adv-x="818" 
d="M623 309q14 56 30 105l30 94q-18 -15 -37.5 -39.5t-38 -52.5t-34 -56t-24.5 -51h74zM594 118q0 43 5 71l10 57q-38 0 -67 -17t-51 -57q-18 -32 -40 -76.5t-56 -84.5t-82 -68t-118 -28q-41 0 -77 12t-62 34.5t-41 55.5t-15 75t17 75t44 55.5t61.5 34.5t69.5 12
q26 0 38 -6.5t12 -12.5q0 -9 -14 -10q-25 -4 -42.5 -24t-17.5 -53q0 -31 19.5 -50t55.5 -19q29 0 61.5 29.5t63 71t57 85l44.5 72.5l41 66t33 48t35 38t47 37l-33 14t-43 15.5t-52 12.5t-60 5q-42 0 -65.5 -21.5t-23.5 -48.5q0 -24 14 -37.5t35 -13.5q18 0 29 10t20 23
l8 9.5t8 3.5t8.5 -5t3.5 -20q0 -23 -8 -48t-24.5 -45.5t-43 -33.5t-62.5 -13q-31 0 -56 10t-42.5 27.5t-27 40t-9.5 48.5q0 46 18 81.5t48 59.5t69.5 36t82.5 12q52 0 90.5 -11.5t70.5 -25l60.5 -24.5t61.5 -11q24 0 42.5 5t34.5 5q17 0 25 -9t8 -23q0 -11 -3.5 -19
t-9.5 -17t-12.5 -21.5t-12.5 -32.5q-10 -32 -18.5 -72t-14.5 -83t-9.5 -87t-3.5 -83q0 -45 15 -61.5t32 -16.5q13 0 20.5 5.5t17.5 15.5t17 10t10.5 -4.5t3.5 -9.5q0 -8 -4 -15t-12 -17t-20 -21.5t-28 -21.5t-35.5 -16.5t-43.5 -6.5q-25 0 -44.5 10t-33.5 27t-21.5 39
t-7.5 47zM691 623q-20 0 -39 6.5t-33.5 18.5t-23.5 28.5t-9 36.5q0 17 12.5 29.5t28.5 12.5q29 0 29 -26q0 -12 -4 -16t-4 -15q0 -12 13.5 -19.5t35.5 -7.5q31 0 44.5 12.5t13.5 29.5q0 23 10 32.5t23 9.5q16 0 25 -8t9 -21q0 -26 -17 -51q-14 -20 -40 -36t-74 -16z" />
    <glyph glyph-name="A.titl_circumflex" horiz-adv-x="818" 
d="M623 309q14 56 30 105l30 94q-18 -15 -37.5 -39.5t-38 -52.5t-34 -56t-24.5 -51h74zM594 118q0 43 5 71l10 57q-38 0 -67 -17t-51 -57q-18 -32 -40 -76.5t-56 -84.5t-82 -68t-118 -28q-41 0 -77 12t-62 34.5t-41 55.5t-15 75t17 75t44 55.5t61.5 34.5t69.5 12
q26 0 38 -6.5t12 -12.5q0 -9 -14 -10q-25 -4 -42.5 -24t-17.5 -53q0 -31 19.5 -50t55.5 -19q29 0 61.5 29.5t63 71t57 85l44.5 72.5l41 66t33 48t35 38t47 37l-33 14t-43 15.5t-52 12.5t-60 5q-42 0 -65.5 -21.5t-23.5 -48.5q0 -24 14 -37.5t35 -13.5q18 0 29 10t20 23
l8 9.5t8 3.5t8.5 -5t3.5 -20q0 -23 -8 -48t-24.5 -45.5t-43 -33.5t-62.5 -13q-31 0 -56 10t-42.5 27.5t-27 40t-9.5 48.5q0 46 18 81.5t48 59.5t69.5 36t82.5 12q52 0 90.5 -11.5t70.5 -25l60.5 -24.5t61.5 -11q24 0 42.5 5t34.5 5q17 0 25 -9t8 -23q0 -11 -3.5 -19
t-9.5 -17t-12.5 -21.5t-12.5 -32.5q-10 -32 -18.5 -72t-14.5 -83t-9.5 -87t-3.5 -83q0 -45 15 -61.5t32 -16.5q13 0 20.5 5.5t17.5 15.5t17 10t10.5 -4.5t3.5 -9.5q0 -8 -4 -15t-12 -17t-20 -21.5t-28 -21.5t-35.5 -16.5t-43.5 -6.5q-25 0 -44.5 10t-33.5 27t-21.5 39
t-7.5 47zM717 704l-35 -20.5l-33.5 -19.5t-27.5 -14.5t-17 -5.5q-8 0 -12 4.5t-4 9.5q0 12 15 23l20.5 15.5t16.5 14t17 17l23 24.5q11 13 20 22.5t28 9.5q21 0 26.5 -10t12.5 -26q11 -26 23 -39.5l24 -27.5q8 -8 12.5 -11.5t4.5 -10.5q0 -6 -4.5 -10.5t-12.5 -4.5t-32 10.5
t-65 49.5z" />
    <glyph glyph-name="A.titl_dieresis" horiz-adv-x="818" 
d="M623 309q14 56 30 105l30 94q-18 -15 -37.5 -39.5t-38 -52.5t-34 -56t-24.5 -51h74zM594 118q0 43 5 71l10 57q-38 0 -67 -17t-51 -57q-18 -32 -40 -76.5t-56 -84.5t-82 -68t-118 -28q-41 0 -77 12t-62 34.5t-41 55.5t-15 75t17 75t44 55.5t61.5 34.5t69.5 12
q26 0 38 -6.5t12 -12.5q0 -9 -14 -10q-25 -4 -42.5 -24t-17.5 -53q0 -31 19.5 -50t55.5 -19q29 0 61.5 29.5t63 71t57 85l44.5 72.5l41 66t33 48t35 38t47 37l-33 14t-43 15.5t-52 12.5t-60 5q-42 0 -65.5 -21.5t-23.5 -48.5q0 -24 14 -37.5t35 -13.5q18 0 29 10t20 23
l8 9.5t8 3.5t8.5 -5t3.5 -20q0 -23 -8 -48t-24.5 -45.5t-43 -33.5t-62.5 -13q-31 0 -56 10t-42.5 27.5t-27 40t-9.5 48.5q0 46 18 81.5t48 59.5t69.5 36t82.5 12q52 0 90.5 -11.5t70.5 -25l60.5 -24.5t61.5 -11q24 0 42.5 5t34.5 5q17 0 25 -9t8 -23q0 -11 -3.5 -19
t-9.5 -17t-12.5 -21.5t-12.5 -32.5q-10 -32 -18.5 -72t-14.5 -83t-9.5 -87t-3.5 -83q0 -45 15 -61.5t32 -16.5q13 0 20.5 5.5t17.5 15.5t17 10t10.5 -4.5t3.5 -9.5q0 -8 -4 -15t-12 -17t-20 -21.5t-28 -21.5t-35.5 -16.5t-43.5 -6.5q-25 0 -44.5 10t-33.5 27t-21.5 39
t-7.5 47zM588 677q0 12 5 25t14 23.5t21 17.5t26 7q18 0 29 -13t11 -33q0 -12 -5 -25.5t-14 -24t-21.5 -17.5t-27.5 -7q-17 0 -27.5 13.5t-10.5 33.5zM726 677q0 12 5 25t14 23.5t21 17.5t26 7q18 0 29 -13t11 -33q0 -12 -5 -25.5t-14 -24t-21.5 -17.5t-27.5 -7
q-17 0 -27.5 13.5t-10.5 33.5z" />
    <glyph glyph-name="A.titl_grave" horiz-adv-x="818" 
d="M623 309q14 56 30 105l30 94q-18 -15 -37.5 -39.5t-38 -52.5t-34 -56t-24.5 -51h74zM594 118q0 43 5 71l10 57q-38 0 -67 -17t-51 -57q-18 -32 -40 -76.5t-56 -84.5t-82 -68t-118 -28q-41 0 -77 12t-62 34.5t-41 55.5t-15 75t17 75t44 55.5t61.5 34.5t69.5 12
q26 0 38 -6.5t12 -12.5q0 -9 -14 -10q-25 -4 -42.5 -24t-17.5 -53q0 -31 19.5 -50t55.5 -19q29 0 61.5 29.5t63 71t57 85l44.5 72.5l41 66t33 48t35 38t47 37l-33 14t-43 15.5t-52 12.5t-60 5q-42 0 -65.5 -21.5t-23.5 -48.5q0 -24 14 -37.5t35 -13.5q18 0 29 10t20 23
l8 9.5t8 3.5t8.5 -5t3.5 -20q0 -23 -8 -48t-24.5 -45.5t-43 -33.5t-62.5 -13q-31 0 -56 10t-42.5 27.5t-27 40t-9.5 48.5q0 46 18 81.5t48 59.5t69.5 36t82.5 12q52 0 90.5 -11.5t70.5 -25l60.5 -24.5t61.5 -11q24 0 42.5 5t34.5 5q17 0 25 -9t8 -23q0 -11 -3.5 -19
t-9.5 -17t-12.5 -21.5t-12.5 -32.5q-10 -32 -18.5 -72t-14.5 -83t-9.5 -87t-3.5 -83q0 -45 15 -61.5t32 -16.5q13 0 20.5 5.5t17.5 15.5t17 10t10.5 -4.5t3.5 -9.5q0 -8 -4 -15t-12 -17t-20 -21.5t-28 -21.5t-35.5 -16.5t-43.5 -6.5q-25 0 -44.5 10t-33.5 27t-21.5 39
t-7.5 47zM616 773q16 0 23 -19q14 -42 37 -65.5t45 -36.5q9 -5 12 -9t3 -10q0 -5 -4.5 -9.5t-12.5 -4.5q-11 0 -27 3t-33.5 9.5t-35.5 16.5t-33 23q-14 12 -18.5 20t-4.5 20q0 8 5.5 18.5t13.5 20.5t16 16.5t14 6.5z" />
    <glyph glyph-name="A.titl_ogonek" horiz-adv-x="818" 
d="M594 118q0 43 5 71l10 57q-38 0 -67 -17t-51 -57q-18 -32 -40 -76.5t-56 -84.5t-82 -68t-118 -28q-41 0 -77 12t-62 34.5t-41 55.5t-15 75t17 75t44 55.5t61.5 34.5t69.5 12q26 0 38 -6.5t12 -12.5q0 -9 -14 -10q-25 -4 -42.5 -24t-17.5 -53q0 -31 19.5 -50t55.5 -19
q29 0 61.5 29.5t63 71t57 85l44.5 72.5l41 66t33 48t35 38t47 37l-33 14t-43 15.5t-52 12.5t-60 5q-42 0 -65.5 -21.5t-23.5 -48.5q0 -24 14 -37.5t35 -13.5q18 0 29 10t20 23l8 9.5t8 3.5t8.5 -5t3.5 -20q0 -23 -8 -48t-24.5 -45.5t-43 -33.5t-62.5 -13q-31 0 -56 10
t-42.5 27.5t-27 40t-9.5 48.5q0 46 18 81.5t48 59.5t69.5 36t82.5 12q52 0 90.5 -11.5t70.5 -25l60.5 -24.5t61.5 -11q24 0 42.5 5t34.5 5q17 0 25 -9t8 -23q0 -11 -3.5 -19t-9.5 -17t-12.5 -21.5t-12.5 -32.5q-10 -32 -18.5 -72t-14.5 -83t-9.5 -87t-3.5 -83
q0 -45 15 -61.5t32 -16.5q13 0 20.5 5.5t17.5 15.5t17 10t10.5 -4.5t3.5 -9.5q0 -8 -4 -15t-12 -17t-20 -21.5t-28 -21.5t-35.5 -16.5t-43.5 -6.5h-1q-7 -4 -15.5 -10.5t-16 -14.5t-12.5 -17t-5 -18q0 -18 23.5 -30t59.5 -12q16 0 16 -10t-14 -24q-12 -13 -31.5 -25
t-39.5 -12q-13 0 -29 7t-29.5 18.5t-22.5 26.5t-9 31q0 18 7 33.5t18.5 28.5t25.5 22.5t28 16.5q-29 14 -44.5 44.5t-15.5 67.5zM623 309q14 56 30 105l30 94q-18 -15 -37.5 -39.5t-38 -52.5t-34 -56t-24.5 -51h74z" />
    <glyph glyph-name="A.titl_ring" horiz-adv-x="818" 
d="M623 309q14 56 30 105l30 94q-18 -15 -37.5 -39.5t-38 -52.5t-34 -56t-24.5 -51h74zM594 118q0 43 5 71l10 57q-38 0 -67 -17t-51 -57q-18 -32 -40 -76.5t-56 -84.5t-82 -68t-118 -28q-41 0 -77 12t-62 34.5t-41 55.5t-15 75t17 75t44 55.5t61.5 34.5t69.5 12
q26 0 38 -6.5t12 -12.5q0 -9 -14 -10q-25 -4 -42.5 -24t-17.5 -53q0 -31 19.5 -50t55.5 -19q29 0 61.5 29.5t63 71t57 85l44.5 72.5l41 66t33 48t35 38t47 37l-33 14t-43 15.5t-52 12.5t-60 5q-42 0 -65.5 -21.5t-23.5 -48.5q0 -24 14 -37.5t35 -13.5q18 0 29 10t20 23
l8 9.5t8 3.5t8.5 -5t3.5 -20q0 -23 -8 -48t-24.5 -45.5t-43 -33.5t-62.5 -13q-31 0 -56 10t-42.5 27.5t-27 40t-9.5 48.5q0 46 18 81.5t48 59.5t69.5 36t82.5 12q52 0 90.5 -11.5t70.5 -25l60.5 -24.5t61.5 -11q24 0 42.5 5t34.5 5q17 0 25 -9t8 -23q0 -11 -3.5 -19
t-9.5 -17t-12.5 -21.5t-12.5 -32.5q-10 -32 -18.5 -72t-14.5 -83t-9.5 -87t-3.5 -83q0 -45 15 -61.5t32 -16.5q13 0 20.5 5.5t17.5 15.5t17 10t10.5 -4.5t3.5 -9.5q0 -8 -4 -15t-12 -17t-20 -21.5t-28 -21.5t-35.5 -16.5t-43.5 -6.5q-25 0 -44.5 10t-33.5 27t-21.5 39
t-7.5 47zM655 720q0 -17 12.5 -29.5t29.5 -12.5t28.5 12.5t11.5 29.5t-11.5 28.5t-28.5 11.5t-29.5 -11.5t-12.5 -28.5zM598 720q0 42 28.5 70.5t70.5 28.5t70.5 -28.5t28.5 -70.5t-28.5 -70.5t-70.5 -28.5t-70.5 28.5t-28.5 70.5z" />
    <glyph glyph-name="A.titl_tilde" horiz-adv-x="818" 
d="M623 309q14 56 30 105l30 94q-18 -15 -37.5 -39.5t-38 -52.5t-34 -56t-24.5 -51h74zM594 118q0 43 5 71l10 57q-38 0 -67 -17t-51 -57q-18 -32 -40 -76.5t-56 -84.5t-82 -68t-118 -28q-41 0 -77 12t-62 34.5t-41 55.5t-15 75t17 75t44 55.5t61.5 34.5t69.5 12
q26 0 38 -6.5t12 -12.5q0 -9 -14 -10q-25 -4 -42.5 -24t-17.5 -53q0 -31 19.5 -50t55.5 -19q29 0 61.5 29.5t63 71t57 85l44.5 72.5l41 66t33 48t35 38t47 37l-33 14t-43 15.5t-52 12.5t-60 5q-42 0 -65.5 -21.5t-23.5 -48.5q0 -24 14 -37.5t35 -13.5q18 0 29 10t20 23
l8 9.5t8 3.5t8.5 -5t3.5 -20q0 -23 -8 -48t-24.5 -45.5t-43 -33.5t-62.5 -13q-31 0 -56 10t-42.5 27.5t-27 40t-9.5 48.5q0 46 18 81.5t48 59.5t69.5 36t82.5 12q52 0 90.5 -11.5t70.5 -25l60.5 -24.5t61.5 -11q24 0 42.5 5t34.5 5q17 0 25 -9t8 -23q0 -11 -3.5 -19
t-9.5 -17t-12.5 -21.5t-12.5 -32.5q-10 -32 -18.5 -72t-14.5 -83t-9.5 -87t-3.5 -83q0 -45 15 -61.5t32 -16.5q13 0 20.5 5.5t17.5 15.5t17 10t10.5 -4.5t3.5 -9.5q0 -8 -4 -15t-12 -17t-20 -21.5t-28 -21.5t-35.5 -16.5t-43.5 -6.5q-25 0 -44.5 10t-33.5 27t-21.5 39
t-7.5 47zM758 641q-17 0 -33 5.5t-31 12t-30.5 12t-32.5 5.5q-18 0 -34.5 -9.5t-23.5 -9.5q-5 0 -8.5 3t-3.5 9q0 5 3 11t7 11q6 9 15 18.5t20 17.5t23.5 13.5t25.5 5.5q17 0 31 -5.5t27.5 -12.5t28 -12.5t32.5 -5.5q23 0 40 11t25 11q5 0 9 -2.5t4 -7.5t-2 -9.5t-4 -8.5
q-17 -23 -38 -43t-50 -20z" />
    <glyph glyph-name="AE" unicode="&#xc6;" horiz-adv-x="954" 
d="M671 216q0 -54 33 -82.5t80 -28.5q19 0 35.5 6t29.5 15t23.5 19.5t18.5 20.5q8 8 13.5 14t10.5 6q13 0 13 -11q0 -8 -8 -27q-8 -20 -25 -47.5t-45.5 -53t-70.5 -43t-100 -17.5q-43 0 -74.5 13t-52 34.5t-30.5 49.5t-10 57q0 43 6.5 82t12.5 68q-38 0 -61 -17.5t-42 -52.5
q-24 -45 -49 -86.5t-56.5 -74t-72 -51.5t-93.5 -19q-34 0 -62.5 10t-49.5 28.5t-33 44t-12 57.5q0 35 16 61t38 43t46 25t39 8q14 0 14 -13q0 -9 -9 -20.5t-9 -28.5q0 -18 12 -32.5t43 -14.5q24 0 48 15t47 39t44 53.5t39 58.5l42 70l42 69t43 62t45 50q-26 8 -60 14t-70 6
q-43 0 -70 -22.5t-27 -50.5q0 -22 11 -33t31 -11q12 0 18.5 5t11.5 5q11 0 11 -11q0 -14 -8.5 -31.5t-24 -33t-37.5 -26t-48 -10.5q-23 0 -44 8.5t-36.5 23.5t-24.5 36.5t-9 47.5q0 40 18 72t48 54t69.5 33.5t81.5 11.5q40 0 72 -4t57.5 -9.5t46.5 -9.5t40 -4q51 0 77.5 4
t45 9.5t36.5 9.5t52 4q66 0 102 -27t36 -79q0 -38 -18.5 -62.5t-50.5 -24.5q-20 0 -34.5 12t-14.5 32q0 15 6.5 23.5t14.5 15t14.5 13.5t6.5 18q0 25 -34 25q-20 0 -37 -10.5t-29 -28t-19 -41t-7 -50.5q0 -17 3 -28t7 -18q4 -8 11 -13q6 2 14 4q7 2 16.5 3t23.5 1
q24 0 38.5 -12.5t14.5 -32.5q0 -25 -18 -40t-47 -15q-28 0 -50 8t-31 13q-7 -5 -16.5 -17.5t-18 -30.5t-14.5 -39.5t-6 -45.5zM548 354q13 56 35.5 111.5t39.5 92.5q-23 -18 -44.5 -45.5t-40 -56.5t-33 -56t-22.5 -46h65z" />
    <glyph glyph-name="Aacute" unicode="&#xc1;" horiz-adv-x="721" 
d="M668 76q13 0 20.5 5.5t17.5 15.5t17 10t10.5 -4.5t3.5 -9.5q0 -8 -4 -15t-12 -17t-20 -21.5t-28 -21.5t-35.5 -16.5t-43.5 -6.5q-50 0 -73.5 30.5t-23.5 80.5q0 21 2.5 47.5t6.5 52t8 48t7 37.5q-38 0 -61 -17.5t-42 -52.5l-47.5 -86.5t-53.5 -74t-68.5 -51.5t-91.5 -19
q-34 0 -62.5 10t-49.5 28.5t-33 44t-12 57.5q0 35 16 61t38 43t46 25t39 8q14 0 14 -13q0 -9 -9 -20.5t-9 -28.5q0 -23 13.5 -37.5t44.5 -14.5q23 0 45 16t43 41t40 55l37 59l42 70l42 69t43 62t45 50q-26 8 -60 14t-70 6q-43 0 -70 -22.5t-27 -50.5q0 -22 11 -33t31 -11
q12 0 18.5 5t11.5 5q11 0 11 -11q0 -14 -8.5 -31.5t-24 -33t-37.5 -26t-48 -10.5q-23 0 -44 8.5t-36.5 23.5t-24.5 36.5t-9 47.5q0 40 18 72t48 54t69.5 33.5t81.5 11.5q40 0 72 -4t57.5 -9.5t46.5 -9.5t40 -4q62 0 96 8t46 8q10 0 14 -5t4 -12q0 -5 -3 -11.5l-8 -18
l-12.5 -30t-16.5 -48.5q-10 -32 -22.5 -83.5t-23.5 -108t-18.5 -111t-7.5 -92.5q0 -26 8 -41t25 -15zM538 354q13 56 35.5 111.5t39.5 92.5q-23 -18 -44.5 -45.5t-40 -56.5t-33 -56t-22.5 -46h65zM686 826q6 0 14 -6.5t16 -16.5t13.5 -20.5t5.5 -18.5q0 -12 -4.5 -20
t-18.5 -20q-15 -13 -33 -23t-35.5 -16.5t-33.5 -9.5t-27 -3q-8 0 -12.5 4.5t-4.5 9.5q0 6 3 10t12 9q22 13 45 36.5t37 65.5q7 19 23 19z" />
    <glyph glyph-name="Abreve" unicode="&#x102;" horiz-adv-x="721" 
d="M668 76q13 0 20.5 5.5t17.5 15.5t17 10t10.5 -4.5t3.5 -9.5q0 -8 -4 -15t-12 -17t-20 -21.5t-28 -21.5t-35.5 -16.5t-43.5 -6.5q-50 0 -73.5 30.5t-23.5 80.5q0 21 2.5 47.5t6.5 52t8 48t7 37.5q-38 0 -61 -17.5t-42 -52.5l-47.5 -86.5t-53.5 -74t-68.5 -51.5t-91.5 -19
q-34 0 -62.5 10t-49.5 28.5t-33 44t-12 57.5q0 35 16 61t38 43t46 25t39 8q14 0 14 -13q0 -9 -9 -20.5t-9 -28.5q0 -23 13.5 -37.5t44.5 -14.5q23 0 45 16t43 41t40 55l37 59l42 70l42 69t43 62t45 50q-26 8 -60 14t-70 6q-43 0 -70 -22.5t-27 -50.5q0 -22 11 -33t31 -11
q12 0 18.5 5t11.5 5q11 0 11 -11q0 -14 -8.5 -31.5t-24 -33t-37.5 -26t-48 -10.5q-23 0 -44 8.5t-36.5 23.5t-24.5 36.5t-9 47.5q0 40 18 72t48 54t69.5 33.5t81.5 11.5q40 0 72 -4t57.5 -9.5t46.5 -9.5t40 -4q62 0 96 8t46 8q10 0 14 -5t4 -12q0 -5 -3 -11.5l-8 -18
l-12.5 -30t-16.5 -48.5q-10 -32 -22.5 -83.5t-23.5 -108t-18.5 -111t-7.5 -92.5q0 -26 8 -41t25 -15zM538 354q13 56 35.5 111.5t39.5 92.5q-23 -18 -44.5 -45.5t-40 -56.5t-33 -56t-22.5 -46h65zM606 676q-20 0 -39 6.5t-33.5 18.5t-23.5 28.5t-9 36.5q0 17 12.5 29.5
t28.5 12.5q29 0 29 -26q0 -12 -4 -16t-4 -15q0 -12 13.5 -19.5t35.5 -7.5q31 0 44.5 12.5t13.5 29.5q0 23 10 32.5t23 9.5q16 0 25 -8t9 -21q0 -26 -17 -51q-14 -20 -40 -36t-74 -16z" />
    <glyph glyph-name="Acircumflex" unicode="&#xc2;" horiz-adv-x="721" 
d="M668 76q13 0 20.5 5.5t17.5 15.5t17 10t10.5 -4.5t3.5 -9.5q0 -8 -4 -15t-12 -17t-20 -21.5t-28 -21.5t-35.5 -16.5t-43.5 -6.5q-50 0 -73.5 30.5t-23.5 80.5q0 21 2.5 47.5t6.5 52t8 48t7 37.5q-38 0 -61 -17.5t-42 -52.5l-47.5 -86.5t-53.5 -74t-68.5 -51.5t-91.5 -19
q-34 0 -62.5 10t-49.5 28.5t-33 44t-12 57.5q0 35 16 61t38 43t46 25t39 8q14 0 14 -13q0 -9 -9 -20.5t-9 -28.5q0 -23 13.5 -37.5t44.5 -14.5q23 0 45 16t43 41t40 55l37 59l42 70l42 69t43 62t45 50q-26 8 -60 14t-70 6q-43 0 -70 -22.5t-27 -50.5q0 -22 11 -33t31 -11
q12 0 18.5 5t11.5 5q11 0 11 -11q0 -14 -8.5 -31.5t-24 -33t-37.5 -26t-48 -10.5q-23 0 -44 8.5t-36.5 23.5t-24.5 36.5t-9 47.5q0 40 18 72t48 54t69.5 33.5t81.5 11.5q40 0 72 -4t57.5 -9.5t46.5 -9.5t40 -4q62 0 96 8t46 8q10 0 14 -5t4 -12q0 -5 -3 -11.5l-8 -18
l-12.5 -30t-16.5 -48.5q-10 -32 -22.5 -83.5t-23.5 -108t-18.5 -111t-7.5 -92.5q0 -26 8 -41t25 -15zM538 354q13 56 35.5 111.5t39.5 92.5q-23 -18 -44.5 -45.5t-40 -56.5t-33 -56t-22.5 -46h65zM581 737l-35 -20.5l-33.5 -19.5t-27.5 -14.5t-17 -5.5q-8 0 -12 4.5t-4 9.5
q0 12 15 23l20.5 15.5t16.5 14t17 17l23 24.5q11 13 20 22.5t28 9.5q21 0 26.5 -10t12.5 -26q11 -26 23 -39.5l24 -27.5q8 -8 12.5 -11.5t4.5 -10.5q0 -6 -4.5 -10.5t-12.5 -4.5t-32 10.5t-65 49.5z" />
    <glyph glyph-name="Adieresis" unicode="&#xc4;" horiz-adv-x="721" 
d="M668 76q13 0 20.5 5.5t17.5 15.5t17 10t10.5 -4.5t3.5 -9.5q0 -8 -4 -15t-12 -17t-20 -21.5t-28 -21.5t-35.5 -16.5t-43.5 -6.5q-50 0 -73.5 30.5t-23.5 80.5q0 21 2.5 47.5t6.5 52t8 48t7 37.5q-38 0 -61 -17.5t-42 -52.5l-47.5 -86.5t-53.5 -74t-68.5 -51.5t-91.5 -19
q-34 0 -62.5 10t-49.5 28.5t-33 44t-12 57.5q0 35 16 61t38 43t46 25t39 8q14 0 14 -13q0 -9 -9 -20.5t-9 -28.5q0 -23 13.5 -37.5t44.5 -14.5q23 0 45 16t43 41t40 55l37 59l42 70l42 69t43 62t45 50q-26 8 -60 14t-70 6q-43 0 -70 -22.5t-27 -50.5q0 -22 11 -33t31 -11
q12 0 18.5 5t11.5 5q11 0 11 -11q0 -14 -8.5 -31.5t-24 -33t-37.5 -26t-48 -10.5q-23 0 -44 8.5t-36.5 23.5t-24.5 36.5t-9 47.5q0 40 18 72t48 54t69.5 33.5t81.5 11.5q40 0 72 -4t57.5 -9.5t46.5 -9.5t40 -4q62 0 96 8t46 8q10 0 14 -5t4 -12q0 -5 -3 -11.5l-8 -18
l-12.5 -30t-16.5 -48.5q-10 -32 -22.5 -83.5t-23.5 -108t-18.5 -111t-7.5 -92.5q0 -26 8 -41t25 -15zM538 354q13 56 35.5 111.5t39.5 92.5q-23 -18 -44.5 -45.5t-40 -56.5t-33 -56t-22.5 -46h65zM500 727q0 12 5 25t14 23.5t21 17.5t26 7q18 0 29 -13t11 -33
q0 -12 -5 -25.5t-14 -24t-21.5 -17.5t-27.5 -7q-17 0 -27.5 13.5t-10.5 33.5zM638 727q0 12 5 25t14 23.5t21 17.5t26 7q18 0 29 -13t11 -33q0 -12 -5 -25.5t-14 -24t-21.5 -17.5t-27.5 -7q-17 0 -27.5 13.5t-10.5 33.5z" />
    <glyph glyph-name="Agrave" unicode="&#xc0;" horiz-adv-x="721" 
d="M668 76q13 0 20.5 5.5t17.5 15.5t17 10t10.5 -4.5t3.5 -9.5q0 -8 -4 -15t-12 -17t-20 -21.5t-28 -21.5t-35.5 -16.5t-43.5 -6.5q-50 0 -73.5 30.5t-23.5 80.5q0 21 2.5 47.5t6.5 52t8 48t7 37.5q-38 0 -61 -17.5t-42 -52.5l-47.5 -86.5t-53.5 -74t-68.5 -51.5t-91.5 -19
q-34 0 -62.5 10t-49.5 28.5t-33 44t-12 57.5q0 35 16 61t38 43t46 25t39 8q14 0 14 -13q0 -9 -9 -20.5t-9 -28.5q0 -23 13.5 -37.5t44.5 -14.5q23 0 45 16t43 41t40 55l37 59l42 70l42 69t43 62t45 50q-26 8 -60 14t-70 6q-43 0 -70 -22.5t-27 -50.5q0 -22 11 -33t31 -11
q12 0 18.5 5t11.5 5q11 0 11 -11q0 -14 -8.5 -31.5t-24 -33t-37.5 -26t-48 -10.5q-23 0 -44 8.5t-36.5 23.5t-24.5 36.5t-9 47.5q0 40 18 72t48 54t69.5 33.5t81.5 11.5q40 0 72 -4t57.5 -9.5t46.5 -9.5t40 -4q62 0 96 8t46 8q10 0 14 -5t4 -12q0 -5 -3 -11.5l-8 -18
l-12.5 -30t-16.5 -48.5q-10 -32 -22.5 -83.5t-23.5 -108t-18.5 -111t-7.5 -92.5q0 -26 8 -41t25 -15zM538 354q13 56 35.5 111.5t39.5 92.5q-23 -18 -44.5 -45.5t-40 -56.5t-33 -56t-22.5 -46h65zM528 819q16 0 23 -19q14 -42 37 -65.5t45 -36.5q9 -5 12 -9t3 -10
q0 -5 -4.5 -9.5t-12.5 -4.5q-11 0 -27 3t-33.5 9.5t-35.5 16.5t-33 23q-14 12 -18.5 20t-4.5 20q0 8 5.5 18.5t13.5 20.5t16 16.5t14 6.5z" />
    <glyph glyph-name="Aogonek" unicode="&#x104;" horiz-adv-x="721" 
d="M668 76q13 0 20.5 5.5t17.5 15.5t17 10t10.5 -4.5t3.5 -9.5q0 -8 -4 -15t-12 -17t-20 -21.5t-28 -21.5t-35.5 -16.5t-43.5 -6.5q-9 0 -13 1q-14 -9 -29 -25t-15 -33q0 -18 23.5 -30t59.5 -12q16 0 16 -10t-14 -24q-12 -13 -31.5 -25t-39.5 -12q-13 0 -29 7t-29.5 18.5
t-22.5 26.5t-9 31q0 18 7 33.5t18.5 28.5t25 22.5t27.5 16.5q-22 14 -32 39t-10 58q0 21 2.5 47.5t6.5 52t8 48t7 37.5q-38 0 -61 -17.5t-42 -52.5l-47.5 -86.5t-53.5 -74t-68.5 -51.5t-91.5 -19q-34 0 -62.5 10t-49.5 28.5t-33 44t-12 57.5q0 35 16 61t38 43t46 25t39 8
q14 0 14 -13q0 -9 -9 -20.5t-9 -28.5q0 -23 13.5 -37.5t44.5 -14.5q23 0 45 16t43 41t40 55l37 59l42 70l42 69t43 62t45 50q-26 8 -60 14t-70 6q-43 0 -70 -22.5t-27 -50.5q0 -22 11 -33t31 -11q12 0 18.5 5t11.5 5q11 0 11 -11q0 -14 -8.5 -31.5t-24 -33t-37.5 -26
t-48 -10.5q-23 0 -44 8.5t-36.5 23.5t-24.5 36.5t-9 47.5q0 40 18 72t48 54t69.5 33.5t81.5 11.5q40 0 72 -4t57.5 -9.5t46.5 -9.5t40 -4q62 0 96 8t46 8q10 0 14 -5t4 -12q0 -5 -3 -11.5l-8 -18l-12.5 -30t-16.5 -48.5q-10 -32 -22.5 -83.5t-23.5 -108t-18.5 -111
t-7.5 -92.5q0 -26 8 -41t25 -15zM538 354q13 56 35.5 111.5t39.5 92.5q-23 -18 -44.5 -45.5t-40 -56.5t-33 -56t-22.5 -46h65z" />
    <glyph glyph-name="Aring" unicode="&#xc5;" horiz-adv-x="721" 
d="M668 76q13 0 20.5 5.5t17.5 15.5t17 10t10.5 -4.5t3.5 -9.5q0 -8 -4 -15t-12 -17t-20 -21.5t-28 -21.5t-35.5 -16.5t-43.5 -6.5q-50 0 -73.5 30.5t-23.5 80.5q0 21 2.5 47.5t6.5 52t8 48t7 37.5q-38 0 -61 -17.5t-42 -52.5l-47.5 -86.5t-53.5 -74t-68.5 -51.5t-91.5 -19
q-34 0 -62.5 10t-49.5 28.5t-33 44t-12 57.5q0 35 16 61t38 43t46 25t39 8q14 0 14 -13q0 -9 -9 -20.5t-9 -28.5q0 -23 13.5 -37.5t44.5 -14.5q23 0 45 16t43 41t40 55l37 59l42 70l42 69t43 62t45 50q-26 8 -60 14t-70 6q-43 0 -70 -22.5t-27 -50.5q0 -22 11 -33t31 -11
q12 0 18.5 5t11.5 5q11 0 11 -11q0 -14 -8.5 -31.5t-24 -33t-37.5 -26t-48 -10.5q-23 0 -44 8.5t-36.5 23.5t-24.5 36.5t-9 47.5q0 40 18 72t48 54t69.5 33.5t81.5 11.5q40 0 72 -4t57.5 -9.5t46.5 -9.5t40 -4q62 0 96 8t46 8q10 0 14 -5t4 -12q0 -5 -3 -11.5l-8 -18
l-12.5 -30t-16.5 -48.5q-10 -32 -22.5 -83.5t-23.5 -108t-18.5 -111t-7.5 -92.5q0 -26 8 -41t25 -15zM538 354q13 56 35.5 111.5t39.5 92.5q-23 -18 -44.5 -45.5t-40 -56.5t-33 -56t-22.5 -46h65zM569 766q0 -17 12.5 -29.5t29.5 -12.5t28.5 12.5t11.5 29.5t-11.5 28.5
t-28.5 11.5t-29.5 -11.5t-12.5 -28.5zM512 766q0 42 28.5 70.5t70.5 28.5t70.5 -28.5t28.5 -70.5t-28.5 -70.5t-70.5 -28.5t-70.5 28.5t-28.5 70.5z" />
    <glyph glyph-name="Atilde" unicode="&#xc3;" horiz-adv-x="721" 
d="M668 76q13 0 20.5 5.5t17.5 15.5t17 10t10.5 -4.5t3.5 -9.5q0 -8 -4 -15t-12 -17t-20 -21.5t-28 -21.5t-35.5 -16.5t-43.5 -6.5q-50 0 -73.5 30.5t-23.5 80.5q0 21 2.5 47.5t6.5 52t8 48t7 37.5q-38 0 -61 -17.5t-42 -52.5l-47.5 -86.5t-53.5 -74t-68.5 -51.5t-91.5 -19
q-34 0 -62.5 10t-49.5 28.5t-33 44t-12 57.5q0 35 16 61t38 43t46 25t39 8q14 0 14 -13q0 -9 -9 -20.5t-9 -28.5q0 -23 13.5 -37.5t44.5 -14.5q23 0 45 16t43 41t40 55l37 59l42 70l42 69t43 62t45 50q-26 8 -60 14t-70 6q-43 0 -70 -22.5t-27 -50.5q0 -22 11 -33t31 -11
q12 0 18.5 5t11.5 5q11 0 11 -11q0 -14 -8.5 -31.5t-24 -33t-37.5 -26t-48 -10.5q-23 0 -44 8.5t-36.5 23.5t-24.5 36.5t-9 47.5q0 40 18 72t48 54t69.5 33.5t81.5 11.5q40 0 72 -4t57.5 -9.5t46.5 -9.5t40 -4q62 0 96 8t46 8q10 0 14 -5t4 -12q0 -5 -3 -11.5l-8 -18
l-12.5 -30t-16.5 -48.5q-10 -32 -22.5 -83.5t-23.5 -108t-18.5 -111t-7.5 -92.5q0 -26 8 -41t25 -15zM538 354q13 56 35.5 111.5t39.5 92.5q-23 -18 -44.5 -45.5t-40 -56.5t-33 -56t-22.5 -46h65zM647 676q-17 0 -33 5.5t-31 12t-30.5 12t-32.5 5.5q-18 0 -34.5 -9.5
t-23.5 -9.5q-5 0 -8.5 3t-3.5 9q0 5 3 11t7 11q6 9 15 18.5t20 17.5t23.5 13.5t25.5 5.5q17 0 31 -5.5t27.5 -12.5t28 -12.5t32.5 -5.5q23 0 40 11t25 11q5 0 9 -2.5t4 -7.5t-2 -9.5t-4 -8.5q-17 -23 -38 -43t-50 -20z" />
    <glyph glyph-name="B" unicode="B" horiz-adv-x="704" 
d="M310 503q7 25 15.5 42.5t18 29.5t19.5 20.5t20 15.5q-49 -3 -90.5 -21t-71.5 -43t-47 -54t-17 -54q0 -47 41 -47q10 0 20 3.5t14 3.5q10 0 10 -11t-10 -28t-28 -33.5t-42.5 -28.5t-54.5 -12q-47 0 -77 28.5t-30 81.5q0 59 36 108t97.5 84.5t142.5 55t171 19.5
q115 0 173.5 -38.5t58.5 -104.5q0 -35 -13.5 -63.5t-36 -49.5t-51 -33.5t-59.5 -16.5q21 -2 46 -14.5t46.5 -33t36 -48t14.5 -58.5q0 -60 -21 -100t-53.5 -64t-72.5 -34t-77 -10q-27 0 -49.5 5.5t-40 12.5t-29 12.5t-16.5 5.5q-9 0 -22 -5.5t-27 -12.5t-28.5 -12.5
t-24.5 -5.5q-16 0 -16 13q0 5 2.5 9.5t7 11t10.5 18t13 29.5q4 11 10.5 39.5t14.5 67l16.5 83l17.5 88.5l17.5 83t15.5 66zM425 389q27 0 49 13.5t38.5 35t25.5 48.5t9 55q0 30 -13 51t-38 21q-7 -7 -15 -26t-16 -44t-15.5 -52t-13 -50t-8.5 -37.5zM513 240q0 48 -29.5 73.5
t-71.5 25.5q-12 -61 -21 -112q-4 -22 -7.5 -43.5l-6.5 -40t-4.5 -31.5t-1.5 -18q0 -19 12 -32.5t32 -13.5q15 0 32.5 10.5t32 33t24 59t9.5 89.5z" />
    <glyph glyph-name="B.01" horiz-adv-x="842" 
d="M802 181q0 -49 -14 -87.5t-39.5 -65t-61.5 -40.5t-79 -14q-51 0 -92.5 18.5t-76.5 44.5q-17 -32 -39.5 -60t-51.5 -49t-65 -33.5t-80 -12.5q-36 0 -68.5 10.5t-56.5 31t-38 51t-14 70.5q0 38 15.5 68t41.5 51t59.5 32t68.5 11q45 0 81 -10.5t66 -24.5q18 33 32 72
t26 77.5t21 75t17 65.5q11 43 22 76t32 68q-8 1 -15.5 1.5t-15.5 0.5q-44 0 -77 -8.5t-54.5 -23.5t-32 -34t-10.5 -40q0 -22 11.5 -34t28.5 -12q30 0 45 29q6 14 13 14q5 0 8.5 -5t3.5 -21q0 -26 -8.5 -53.5t-26 -51t-43.5 -38.5t-61 -15q-63 0 -99.5 36.5t-36.5 95.5
q0 53 26.5 93.5t72.5 67.5t108.5 41t135.5 14q17 0 34 -1t35 -3q30 38 64 61t83 23q36 0 59 -15t23 -44q0 -20 -14 -30.5t-32 -10.5q-13 0 -21 6t-15 13.5t-14.5 13.5t-18.5 6q-18 0 -29.5 -10.5t-23.5 -27.5q32 -6 61.5 -17.5t52.5 -29t37 -40.5t14 -52t-14.5 -54
t-36.5 -43.5t-48.5 -30t-50.5 -14.5q24 -4 54.5 -15t57.5 -32t45.5 -54t18.5 -81zM668 203q0 21 -8 42t-25.5 38t-45 27.5t-65.5 10.5q-6 -38 -13 -71t-18 -73l-10 -34.5t-12 -35.5q21 -11 42.5 -17.5t46.5 -6.5q52 0 80 32t28 88zM648 501q0 35 -20.5 56.5t-47.5 33.5
q-5 -14 -10.5 -38.5t-11.5 -54.5t-12 -63.5l-12 -64.5q33 6 54.5 19t35 31t19 39t5.5 42zM230 65q29 0 53.5 16t45.5 44q-26 17 -51.5 28.5t-54.5 11.5q-21 0 -36.5 -14t-15.5 -36q0 -19 14 -34.5t45 -15.5z" />
    <glyph glyph-name="B.salt" horiz-adv-x="949" 
d="M718 501q0 35 -20.5 56.5t-47.5 33.5q-5 -14 -10.5 -38.5t-11.5 -54.5t-12 -63.5l-12 -64.5q33 6 54.5 19t35 31t19 39t5.5 42zM494 614q-30 0 -61 -7.5t-56 -22.5t-41 -37.5t-16 -52.5t18 -45.5t44 -15.5q23 0 38 12t26 29q5 8 9 12.5t10 4.5q5 0 9 -5.5t4 -25.5
q0 -29 -9.5 -60.5t-30.5 -57.5t-54 -43t-79 -17q-39 0 -71 12.5t-54 34.5t-34 51t-12 61q0 43 16.5 77t44 59.5t63.5 43t75.5 29t80 16.5t76.5 5q55 0 84 -3.5t46 -8.5q30 38 64 61t83 23q36 0 59 -15t23 -44q0 -20 -14 -30.5t-32 -10.5q-13 0 -21 6t-15 13.5t-14.5 13.5
t-18.5 6q-18 0 -29.5 -10.5t-23.5 -27.5q32 -6 61.5 -17.5t52.5 -29t37 -40.5t14 -52t-14.5 -54t-36.5 -43.5t-48.5 -30t-50.5 -14.5q24 -4 60 -18.5t70 -40.5t58.5 -65t24.5 -91q0 -45 -13.5 -81.5t-38 -62.5t-59 -40.5t-76.5 -14.5q-30 0 -55 8.5t-43 24t-28.5 36.5
t-10.5 47q0 23 7.5 42t18.5 32.5t23.5 20.5t21.5 7q13 0 13 -10q0 -5 -2.5 -11t-2.5 -15q0 -14 8.5 -25.5t28.5 -11.5q29 0 46 24t17 59q0 22 -11.5 47.5t-33 47t-52 35.5t-68.5 14l-16 -98.5t-25.5 -113.5t-41.5 -113.5t-62.5 -99t-90.5 -70t-125 -26.5q-52 0 -95.5 14.5
t-75 42.5t-49.5 67.5t-18 90.5q0 55 22 97t56 70t75.5 42t80.5 14q29 0 43 -7.5t14 -15.5q0 -12 -14 -16q-33 -10 -59.5 -33.5t-26.5 -63.5q0 -38 25.5 -57t67.5 -19q46 0 79 29.5t59.5 85t50 136.5l51.5 185q11 42 22 75.5t32 68.5q-8 3 -31.5 5.5t-52.5 2.5z" />
    <glyph glyph-name="B.titl" horiz-adv-x="842" 
d="M648 501q0 35 -20.5 56.5t-47.5 33.5q-5 -14 -10.5 -38.5t-11.5 -54.5t-12 -63.5l-12 -64.5q33 6 54.5 19t35 31t19 39t5.5 42zM611 644q32 -6 61.5 -17.5t52.5 -29t37 -40.5t14 -52t-14.5 -54t-36.5 -43.5t-48.5 -30t-50.5 -14.5q24 -4 54.5 -15t57.5 -32t45.5 -54
t18.5 -81q0 -41 -12.5 -75t-35 -58.5t-54.5 -38.5t-70 -14q-27 0 -50 8t-39.5 22t-26 33.5t-9.5 42.5q0 21 7 38t17 29.5t21 19t20 6.5q12 0 12 -9q0 -5 -2.5 -10.5t-2.5 -13.5q0 -13 7.5 -23.5t26.5 -10.5q26 0 41.5 22t15.5 54q0 21 -7.5 42t-24 38t-43.5 27.5t-65 10.5
q-8 -38 -16 -71t-19 -73q-14 -50 -38.5 -97t-60 -84t-82.5 -59t-105 -22q-41 0 -78.5 10.5t-66 32t-45.5 54t-17 76.5q0 42 16.5 75.5t43.5 57t61 36t69 12.5q26 0 38 -6.5t12 -12.5q0 -7 -14 -10q-9 -2 -19.5 -8.5t-19.5 -17t-15 -24.5t-6 -30q0 -29 16.5 -47t47.5 -18
q33 0 60 18t49 48t39.5 68.5t31.5 79.5t24.5 80.5l19.5 72.5q11 43 22 76t32 68q-8 1 -15.5 1.5t-15.5 0.5q-44 0 -77 -8.5t-54.5 -23.5t-32 -34t-10.5 -40q0 -22 11.5 -34t28.5 -12q30 0 45 29q6 14 13 14q5 0 8.5 -5t3.5 -21q0 -26 -8.5 -53.5t-26 -51t-43.5 -38.5
t-61 -15q-63 0 -99.5 36.5t-36.5 95.5q0 53 26.5 93.5t72.5 67.5t108.5 41t135.5 14q17 0 34 -1t35 -3q30 38 64 61t83 23q36 0 59 -15t23 -44q0 -20 -14 -30.5t-32 -10.5q-13 0 -21 6t-15 13.5t-14.5 13.5t-18.5 6q-18 0 -29.5 -10.5t-23.5 -27.5z" />
    <glyph glyph-name="C" unicode="C" horiz-adv-x="477" 
d="M341 663q58 0 97 -32t39 -94q0 -42 -19 -69.5t-48 -27.5q-20 0 -34.5 12t-14.5 33q0 17 7 27t15.5 17.5t15.5 16.5t7 25q0 18 -13.5 27t-31.5 9q-38 0 -73.5 -29.5t-62.5 -79t-43 -115.5t-16 -138q0 -71 37.5 -105.5t91.5 -34.5q20 0 37 7t31.5 17t25.5 21l19 19
q15 17 23 17q13 0 13 -11q0 -7 -2.5 -14t-7.5 -17q-8 -18 -27.5 -45t-49 -51.5t-67.5 -42.5t-83 -18q-46 0 -84 12.5t-65.5 40.5t-42.5 72t-15 106q0 93 30 174.5t79 141.5t109.5 94.5t122.5 34.5z" />
    <glyph glyph-name="C.01" horiz-adv-x="817" 
d="M688 598q-35 0 -60 -15.5t-53 -41.5q23 -5 48 -9.5t51 -4.5q23 0 38 12t15 29t-11 23.5t-28 6.5zM775 165q0 -39 -15.5 -77t-46.5 -69t-77.5 -50t-107.5 -19q-58 0 -105.5 17t-81.5 48t-52.5 74.5t-18.5 96.5q0 46 10 93.5t28.5 92.5t44 84.5t56.5 70.5q-11 4 -27 6.5
t-33.5 4t-34 2.5t-28.5 1q-54 0 -82.5 -22.5t-28.5 -55.5q0 -18 11.5 -30.5t28.5 -12.5t28 7.5t19 21.5q8 13 16 13q5 0 8.5 -5t3.5 -20q0 -21 -7.5 -45t-24 -44.5t-42 -33.5t-61.5 -13q-35 0 -63.5 10.5t-48.5 30t-31.5 46.5t-11.5 61q0 44 16 78.5t45 58.5t68.5 36.5
t86.5 12.5q37 0 70 -4.5t63 -12.5t59 -18.5l59 -21.5q54 40 105 62.5t110 22.5q51 0 78.5 -23.5t27.5 -64.5q0 -46 -34 -74.5t-83 -28.5q-35 0 -64.5 5.5t-67.5 15.5q-21 -28 -38 -63.5t-28 -74t-17 -77.5t-6 -73q0 -69 27.5 -106.5t77.5 -37.5q19 0 34 8t25.5 21t16 28
t5.5 30q0 26 -14.5 39.5t-35.5 13.5q-17 0 -26.5 -8t-19.5 -21q-5 -6 -8.5 -9.5t-8.5 -3.5t-8.5 3.5t-3.5 12.5q0 18 9 39.5t26.5 40t42 30.5t54.5 12q60 0 96 -32t36 -100z" />
    <glyph glyph-name="C.01_acute" horiz-adv-x="817" 
d="M688 598q-35 0 -60 -15.5t-53 -41.5q23 -5 48 -9.5t51 -4.5q23 0 38 12t15 29t-11 23.5t-28 6.5zM775 165q0 -39 -15.5 -77t-46.5 -69t-77.5 -50t-107.5 -19q-58 0 -105.5 17t-81.5 48t-52.5 74.5t-18.5 96.5q0 46 10 93.5t28.5 92.5t44 84.5t56.5 70.5q-11 4 -27 6.5
t-33.5 4t-34 2.5t-28.5 1q-54 0 -82.5 -22.5t-28.5 -55.5q0 -18 11.5 -30.5t28.5 -12.5t28 7.5t19 21.5q8 13 16 13q5 0 8.5 -5t3.5 -20q0 -21 -7.5 -45t-24 -44.5t-42 -33.5t-61.5 -13q-35 0 -63.5 10.5t-48.5 30t-31.5 46.5t-11.5 61q0 44 16 78.5t45 58.5t68.5 36.5
t86.5 12.5q37 0 70 -4.5t63 -12.5t59 -18.5l59 -21.5q54 40 105 62.5t110 22.5q51 0 78.5 -23.5t27.5 -64.5q0 -46 -34 -74.5t-83 -28.5q-35 0 -64.5 5.5t-67.5 15.5q-21 -28 -38 -63.5t-28 -74t-17 -77.5t-6 -73q0 -69 27.5 -106.5t77.5 -37.5q19 0 34 8t25.5 21t16 28
t5.5 30q0 26 -14.5 39.5t-35.5 13.5q-17 0 -26.5 -8t-19.5 -21q-5 -6 -8.5 -9.5t-8.5 -3.5t-8.5 3.5t-3.5 12.5q0 18 9 39.5t26.5 40t42 30.5t54.5 12q60 0 96 -32t36 -100zM714 838q6 0 14 -6.5t16 -16.5t13.5 -20.5t5.5 -18.5q0 -12 -4.5 -20t-18.5 -20q-15 -13 -33 -23
t-35.5 -16.5t-33.5 -9.5t-27 -3q-8 0 -12.5 4.5t-4.5 9.5q0 6 3 10t12 9q22 13 45 36.5t37 65.5q7 19 23 19z" />
    <glyph glyph-name="C.01_caron" horiz-adv-x="817" 
d="M688 598q-35 0 -60 -15.5t-53 -41.5q23 -5 48 -9.5t51 -4.5q23 0 38 12t15 29t-11 23.5t-28 6.5zM775 165q0 -39 -15.5 -77t-46.5 -69t-77.5 -50t-107.5 -19q-58 0 -105.5 17t-81.5 48t-52.5 74.5t-18.5 96.5q0 46 10 93.5t28.5 92.5t44 84.5t56.5 70.5q-11 4 -27 6.5
t-33.5 4t-34 2.5t-28.5 1q-54 0 -82.5 -22.5t-28.5 -55.5q0 -18 11.5 -30.5t28.5 -12.5t28 7.5t19 21.5q8 13 16 13q5 0 8.5 -5t3.5 -20q0 -21 -7.5 -45t-24 -44.5t-42 -33.5t-61.5 -13q-35 0 -63.5 10.5t-48.5 30t-31.5 46.5t-11.5 61q0 44 16 78.5t45 58.5t68.5 36.5
t86.5 12.5q37 0 70 -4.5t63 -12.5t59 -18.5l59 -21.5q54 40 105 62.5t110 22.5q51 0 78.5 -23.5t27.5 -64.5q0 -46 -34 -74.5t-83 -28.5q-35 0 -64.5 5.5t-67.5 15.5q-21 -28 -38 -63.5t-28 -74t-17 -77.5t-6 -73q0 -69 27.5 -106.5t77.5 -37.5q19 0 34 8t25.5 21t16 28
t5.5 30q0 26 -14.5 39.5t-35.5 13.5q-17 0 -26.5 -8t-19.5 -21q-5 -6 -8.5 -9.5t-8.5 -3.5t-8.5 3.5t-3.5 12.5q0 18 9 39.5t26.5 40t42 30.5t54.5 12q60 0 96 -32t36 -100zM625 688q-8 0 -16.5 5.5t-18 14.5t-18.5 20t-16 21q-13 17 -18 28.5t-5 18.5q0 14 11 14
q7 0 25 -15q9 -8 20.5 -15t22.5 -11.5t20 -7t13 -2.5q14 0 28.5 10.5t32.5 27.5q9 8 15.5 12.5t13.5 4.5q12 0 12 -11q0 -8 -9 -21t-37 -42q-19 -20 -40.5 -36t-35.5 -16z" />
    <glyph glyph-name="C.01_cedilla" horiz-adv-x="817" 
d="M775 165q0 -38 -15 -75t-44 -67.5t-73 -50.5t-102 -22q0 -8 3 -19.5t12 -11.5q11 0 22.5 1.5t19.5 1.5q12 0 17.5 -7.5t5.5 -19.5q0 -17 -8.5 -37t-25 -37t-42.5 -29t-60 -12q-26 0 -43 11t-17 30q0 12 9 22.5t21 10.5q9 0 14 -4t10 -8.5t11.5 -8.5t19.5 -4q15 0 27.5 5
t21.5 12t14 15t5 13q-14 -4 -36 -7.5t-36 -3.5q-11 0 -16.5 6.5t-5.5 13.5t1.5 17l3 20t3.5 18.5t3 13.5q-51 4 -93 23t-71 49t-45 71t-16 91q0 46 10 93.5t28.5 92.5t44 84.5t56.5 70.5q-11 4 -27 6.5t-33.5 4t-34 2.5t-28.5 1q-54 0 -82.5 -22.5t-28.5 -55.5
q0 -18 11.5 -30.5t28.5 -12.5t28 7.5t19 21.5q8 13 16 13q5 0 8.5 -5t3.5 -20q0 -21 -7.5 -45t-24 -44.5t-42 -33.5t-61.5 -13q-35 0 -63.5 10.5t-48.5 30t-31.5 46.5t-11.5 61q0 44 16 78.5t45 58.5t68.5 36.5t86.5 12.5q37 0 70 -4.5t63 -12.5t59 -18.5l59 -21.5
q54 40 105 62.5t110 22.5q51 0 78.5 -23.5t27.5 -64.5q0 -46 -34 -74.5t-83 -28.5q-35 0 -64.5 5.5t-67.5 15.5q-21 -28 -38 -63.5t-28 -74t-17 -77.5t-6 -73q0 -69 27.5 -106.5t77.5 -37.5q19 0 34 8t25.5 21t16 28t5.5 30q0 26 -14.5 39.5t-35.5 13.5q-17 0 -26.5 -8
t-19.5 -21q-5 -6 -8.5 -9.5t-8.5 -3.5t-8.5 3.5t-3.5 12.5q0 18 9 39.5t26.5 40t42 30.5t54.5 12q60 0 96 -32t36 -100zM688 598q-35 0 -60 -15.5t-53 -41.5q23 -5 48 -9.5t51 -4.5q23 0 38 12t15 29t-11 23.5t-28 6.5z" />
    <glyph glyph-name="C.salt" horiz-adv-x="812" 
d="M787 587q-40 0 -69.5 -17.5t-61.5 -48.5q26 -9 54.5 -15t59.5 -6q26 0 44 16t18 36t-12.5 27.5t-32.5 7.5zM612 470q-21 -28 -38.5 -62.5t-30 -72.5t-19 -78t-6.5 -79t10.5 -68t29 -49t43 -30t52.5 -10q38 0 74 17.5t62 52.5q8 10 13.5 15.5t11.5 5.5q14 0 14 -15
q0 -11 -8 -33t-23.5 -48t-38.5 -53.5t-53 -49.5t-67 -36.5t-81 -14.5q-54 0 -99.5 19.5t-78.5 55t-51 85t-18 110.5q0 55 15.5 112t40 109.5t55 97.5t61.5 76q-11 4 -30 9.5t-40 10.5t-41 9t-35 4q-63 0 -96.5 -26.5t-33.5 -64.5q0 -21 13.5 -36t33.5 -15t32.5 9t22.5 25
q5 8 9 12t10 4q5 0 9.5 -6t4.5 -24q0 -25 -9 -53t-28 -52t-49.5 -39.5t-72.5 -15.5q-41 0 -74.5 12.5t-57.5 35t-37 54.5t-13 72q0 52 19 93t53 69t80.5 42.5t101.5 14.5q44 0 84.5 -9t76.5 -23t67 -30l58 -31q49 35 110 60t130 25q59 0 91 -27.5t32 -74.5q0 -27 -10.5 -49
t-29 -37.5t-43.5 -24.5t-53 -9q-41 0 -77 7.5t-78 21.5z" />
    <glyph glyph-name="C.salt_acute" horiz-adv-x="812" 
d="M787 587q-40 0 -69.5 -17.5t-61.5 -48.5q26 -9 54.5 -15t59.5 -6q26 0 44 16t18 36t-12.5 27.5t-32.5 7.5zM612 470q-21 -28 -38.5 -62.5t-30 -72.5t-19 -78t-6.5 -79t10.5 -68t29 -49t43 -30t52.5 -10q38 0 74 17.5t62 52.5q8 10 13.5 15.5t11.5 5.5q14 0 14 -15
q0 -11 -8 -33t-23.5 -48t-38.5 -53.5t-53 -49.5t-67 -36.5t-81 -14.5q-54 0 -99.5 19.5t-78.5 55t-51 85t-18 110.5q0 55 15.5 112t40 109.5t55 97.5t61.5 76q-11 4 -30 9.5t-40 10.5t-41 9t-35 4q-63 0 -96.5 -26.5t-33.5 -64.5q0 -21 13.5 -36t33.5 -15t32.5 9t22.5 25
q5 8 9 12t10 4q5 0 9.5 -6t4.5 -24q0 -25 -9 -53t-28 -52t-49.5 -39.5t-72.5 -15.5q-41 0 -74.5 12.5t-57.5 35t-37 54.5t-13 72q0 52 19 93t53 69t80.5 42.5t101.5 14.5q44 0 84.5 -9t76.5 -23t67 -30l58 -31q49 35 110 60t130 25q59 0 91 -27.5t32 -74.5q0 -27 -10.5 -49
t-29 -37.5t-43.5 -24.5t-53 -9q-41 0 -77 7.5t-78 21.5zM839 844q6 0 14 -6.5t16 -16.5t13.5 -20.5t5.5 -18.5q0 -12 -4.5 -20t-18.5 -20q-15 -13 -33 -23t-35.5 -16.5t-33.5 -9.5t-27 -3q-8 0 -12.5 4.5t-4.5 9.5q0 6 3 10t12 9q22 13 45 36.5t37 65.5q7 19 23 19z" />
    <glyph glyph-name="C.salt_caron" horiz-adv-x="813" 
d="M787 587q-40 0 -69.5 -17.5t-61.5 -48.5q26 -9 54.5 -15t59.5 -6q26 0 44 16t18 36t-12.5 27.5t-32.5 7.5zM612 470q-21 -28 -38.5 -62.5t-30 -72.5t-19 -78t-6.5 -79t10.5 -68t29 -49t43 -30t52.5 -10q38 0 74 17.5t62 52.5q8 10 13.5 15.5t11.5 5.5q14 0 14 -15
q0 -11 -8 -33t-23.5 -48t-38.5 -53.5t-53 -49.5t-67 -36.5t-81 -14.5q-54 0 -99.5 19.5t-78.5 55t-51 85t-18 110.5q0 55 15.5 112t40 109.5t55 97.5t61.5 76q-11 4 -30 9.5t-40 10.5t-41 9t-35 4q-63 0 -96.5 -26.5t-33.5 -64.5q0 -21 13.5 -36t33.5 -15t32.5 9t22.5 25
q5 8 9 12t10 4q5 0 9.5 -6t4.5 -24q0 -25 -9 -53t-28 -52t-49.5 -39.5t-72.5 -15.5q-41 0 -74.5 12.5t-57.5 35t-37 54.5t-13 72q0 52 19 93t53 69t80.5 42.5t101.5 14.5q44 0 84.5 -9t76.5 -23t67 -30l58 -31q49 35 110 60t130 25q59 0 91 -27.5t32 -74.5q0 -27 -10.5 -49
t-29 -37.5t-43.5 -24.5t-53 -9q-41 0 -77 7.5t-78 21.5zM763 694q-8 0 -16.5 5.5t-18 14.5t-18.5 20t-16 21q-13 17 -18 28.5t-5 18.5q0 14 11 14q7 0 25 -15q9 -8 20.5 -15t22.5 -11.5t20 -7t13 -2.5q14 0 28.5 10.5t32.5 27.5q9 8 15.5 12.5t13.5 4.5q12 0 12 -11
q0 -8 -9 -21t-37 -42q-19 -20 -40.5 -36t-35.5 -16z" />
    <glyph glyph-name="C.salt_cedilla" horiz-adv-x="812" 
d="M612 470q-21 -28 -38.5 -62.5t-30 -72.5t-19 -78t-6.5 -79t10.5 -68t29 -49t43 -30t52.5 -10q38 0 74 17.5t62 52.5q8 10 13.5 15.5t11.5 5.5q14 0 14 -15q0 -11 -7.5 -32t-22 -46t-36 -51t-49.5 -48.5t-63 -38t-76 -18.5q1 -8 4 -17t11 -9q11 0 22.5 1.5t19.5 1.5
q12 0 17.5 -7.5t5.5 -19.5q0 -17 -8.5 -37t-25 -37t-42.5 -29t-60 -12q-26 0 -43 11t-17 30q0 12 9 22.5t21 10.5q9 0 14 -4t10 -8.5t11.5 -8.5t19.5 -4q15 0 27.5 5t21.5 12t14 15t5 13q-14 -4 -36 -7.5t-36 -3.5q-11 0 -16.5 6.5t-5.5 13.5q0 13 3.5 32t5.5 31
q-48 5 -88 26.5t-68.5 56.5t-44 82t-15.5 103q0 55 15.5 112t40 109.5t55 97.5t61.5 76q-11 4 -30 9.5t-40 10.5t-41 9t-35 4q-63 0 -96.5 -26.5t-33.5 -64.5q0 -21 13.5 -36t33.5 -15t32.5 9t22.5 25q5 8 9 12t10 4q5 0 9.5 -6t4.5 -24q0 -25 -9 -53t-28 -52t-49.5 -39.5
t-72.5 -15.5q-41 0 -74.5 12.5t-57.5 35t-37 54.5t-13 72q0 52 19 93t53 69t80.5 42.5t101.5 14.5q44 0 84.5 -9t76.5 -23t67 -30l58 -31q49 35 110 60t130 25q59 0 91 -27.5t32 -74.5q0 -27 -10.5 -49t-29 -37.5t-43.5 -24.5t-53 -9q-41 0 -77 7.5t-78 21.5zM787 587
q-40 0 -69.5 -17.5t-61.5 -48.5q26 -9 54.5 -15t59.5 -6q26 0 44 16t18 36t-12.5 27.5t-32.5 7.5z" />
    <glyph glyph-name="C.titl" horiz-adv-x="713" 
d="M688 598q-35 0 -60 -15.5t-53 -41.5q23 -5 48 -9.5t51 -4.5q23 0 38 12t15 29t-11 23.5t-28 6.5zM286 541q-54 0 -82.5 -22.5t-28.5 -55.5q0 -18 11.5 -30.5t28.5 -12.5t28 7.5t19 21.5q8 13 16 13q5 0 8.5 -5t3.5 -20q0 -21 -7.5 -45t-24 -44.5t-42 -33.5t-61.5 -13
q-35 0 -63.5 10.5t-48.5 30t-31.5 46.5t-11.5 61q0 44 16 78.5t45 58.5t68.5 36.5t86.5 12.5q37 0 70 -4.5t63 -12.5t59 -18.5l59 -21.5q54 40 105 62.5t110 22.5q51 0 78.5 -23.5t27.5 -64.5q0 -46 -34 -74.5t-83 -28.5q-35 0 -64.5 5.5t-67.5 15.5q-43 -56 -66 -126.5
t-23 -139.5q0 -34 9.5 -60t26 -43.5t38 -26.5t46.5 -9q33 0 64.5 16t54.5 46q7 8 12.5 13.5t10.5 5.5q12 0 12 -13q0 -15 -15 -48t-44 -66.5t-71 -59t-96 -25.5q-53 0 -95 16.5t-71.5 47.5t-45.5 74.5t-16 96.5q0 42 10 88t28.5 90.5t44 85t56.5 71.5q-11 4 -27 6.5t-33.5 4
t-34 2.5t-28.5 1z" />
    <glyph glyph-name="C.titl_acute" horiz-adv-x="713" 
d="M688 598q-35 0 -60 -15.5t-53 -41.5q23 -5 48 -9.5t51 -4.5q23 0 38 12t15 29t-11 23.5t-28 6.5zM286 541q-54 0 -82.5 -22.5t-28.5 -55.5q0 -18 11.5 -30.5t28.5 -12.5t28 7.5t19 21.5q8 13 16 13q5 0 8.5 -5t3.5 -20q0 -21 -7.5 -45t-24 -44.5t-42 -33.5t-61.5 -13
q-35 0 -63.5 10.5t-48.5 30t-31.5 46.5t-11.5 61q0 44 16 78.5t45 58.5t68.5 36.5t86.5 12.5q37 0 70 -4.5t63 -12.5t59 -18.5l59 -21.5q54 40 105 62.5t110 22.5q51 0 78.5 -23.5t27.5 -64.5q0 -46 -34 -74.5t-83 -28.5q-35 0 -64.5 5.5t-67.5 15.5q-43 -56 -66 -126.5
t-23 -139.5q0 -34 9.5 -60t26 -43.5t38 -26.5t46.5 -9q33 0 64.5 16t54.5 46q7 8 12.5 13.5t10.5 5.5q12 0 12 -13q0 -15 -15 -48t-44 -66.5t-71 -59t-96 -25.5q-53 0 -95 16.5t-71.5 47.5t-45.5 74.5t-16 96.5q0 42 10 88t28.5 90.5t44 85t56.5 71.5q-11 4 -27 6.5t-33.5 4
t-34 2.5t-28.5 1zM731 846q6 0 14 -6.5t16 -16.5t13.5 -20.5t5.5 -18.5q0 -12 -4.5 -20t-18.5 -20q-15 -13 -33 -23t-35.5 -16.5t-33.5 -9.5t-27 -3q-8 0 -12.5 4.5t-4.5 9.5q0 6 3 10t12 9q22 13 45 36.5t37 65.5q7 19 23 19z" />
    <glyph glyph-name="C.titl_caron" horiz-adv-x="713" 
d="M688 598q-35 0 -60 -15.5t-53 -41.5q23 -5 48 -9.5t51 -4.5q23 0 38 12t15 29t-11 23.5t-28 6.5zM286 541q-54 0 -82.5 -22.5t-28.5 -55.5q0 -18 11.5 -30.5t28.5 -12.5t28 7.5t19 21.5q8 13 16 13q5 0 8.5 -5t3.5 -20q0 -21 -7.5 -45t-24 -44.5t-42 -33.5t-61.5 -13
q-35 0 -63.5 10.5t-48.5 30t-31.5 46.5t-11.5 61q0 44 16 78.5t45 58.5t68.5 36.5t86.5 12.5q37 0 70 -4.5t63 -12.5t59 -18.5l59 -21.5q54 40 105 62.5t110 22.5q51 0 78.5 -23.5t27.5 -64.5q0 -46 -34 -74.5t-83 -28.5q-35 0 -64.5 5.5t-67.5 15.5q-43 -56 -66 -126.5
t-23 -139.5q0 -34 9.5 -60t26 -43.5t38 -26.5t46.5 -9q33 0 64.5 16t54.5 46q7 8 12.5 13.5t10.5 5.5q12 0 12 -13q0 -15 -15 -48t-44 -66.5t-71 -59t-96 -25.5q-53 0 -95 16.5t-71.5 47.5t-45.5 74.5t-16 96.5q0 42 10 88t28.5 90.5t44 85t56.5 71.5q-11 4 -27 6.5t-33.5 4
t-34 2.5t-28.5 1zM671 694q-8 0 -16.5 5.5t-18 14.5t-18.5 20t-16 21q-13 17 -18 28.5t-5 18.5q0 14 11 14q7 0 25 -15q9 -8 20.5 -15t22.5 -11.5t20 -7t13 -2.5q14 0 28.5 10.5t32.5 27.5q9 8 15.5 12.5t13.5 4.5q12 0 12 -11q0 -8 -9 -21t-37 -42q-19 -20 -40.5 -36
t-35.5 -16z" />
    <glyph glyph-name="C.titl_cedilla" horiz-adv-x="713" 
d="M286 541q-54 0 -82.5 -22.5t-28.5 -55.5q0 -18 11.5 -30.5t28.5 -12.5t28 7.5t19 21.5q8 13 16 13q5 0 8.5 -5t3.5 -20q0 -21 -7.5 -45t-24 -44.5t-42 -33.5t-61.5 -13q-35 0 -63.5 10.5t-48.5 30t-31.5 46.5t-11.5 61q0 44 16 78.5t45 58.5t68.5 36.5t86.5 12.5
q37 0 70 -4.5t63 -12.5t59 -18.5l59 -21.5q54 40 105 62.5t110 22.5q51 0 78.5 -23.5t27.5 -64.5q0 -46 -34 -74.5t-83 -28.5q-35 0 -64.5 5.5t-67.5 15.5q-43 -56 -66 -126.5t-23 -139.5q0 -34 9.5 -60t26 -43.5t38 -26.5t46.5 -9q33 0 64.5 16t54.5 46q7 8 12.5 13.5
t10.5 5.5q12 0 12 -13q0 -15 -14.5 -46.5t-41.5 -64t-66.5 -58.5t-90.5 -29q1 -9 4 -19t11 -10q11 0 22.5 1.5t19.5 1.5q12 0 17.5 -7.5t5.5 -19.5q0 -17 -8.5 -37t-25 -37t-42.5 -29t-60 -12q-26 0 -43 11t-17 30q0 12 9 22.5t21 10.5q9 0 14 -4t10 -8.5t11.5 -8.5t19.5 -4
q15 0 27.5 5t21.5 12t14 15t5 13q-14 -4 -36 -7.5t-36 -3.5q-11 0 -16.5 6.5t-5.5 13.5q0 14 3.5 34.5t6.5 31.5q-91 11 -142.5 73t-51.5 160q0 42 10 88t28.5 90.5t44 85t56.5 71.5q-11 4 -27 6.5t-33.5 4t-34 2.5t-28.5 1zM688 598q-35 0 -60 -15.5t-53 -41.5
q23 -5 48 -9.5t51 -4.5q23 0 38 12t15 29t-11 23.5t-28 6.5z" />
    <glyph glyph-name="Cacute" unicode="&#x106;" horiz-adv-x="477" 
d="M341 663q58 0 97 -32t39 -94q0 -42 -19 -69.5t-48 -27.5q-20 0 -34.5 12t-14.5 33q0 17 7 27t15.5 17.5t15.5 16.5t7 25q0 18 -13.5 27t-31.5 9q-38 0 -73.5 -29.5t-62.5 -79t-43 -115.5t-16 -138q0 -71 37.5 -105.5t91.5 -34.5q20 0 37 7t31.5 17t25.5 21l19 19
q15 17 23 17q13 0 13 -11q0 -7 -2.5 -14t-7.5 -17q-8 -18 -27.5 -45t-49 -51.5t-67.5 -42.5t-83 -18q-46 0 -84 12.5t-65.5 40.5t-42.5 72t-15 106q0 93 30 174.5t79 141.5t109.5 94.5t122.5 34.5zM384 844q6 0 14 -6.5t16 -16.5t13.5 -20.5t5.5 -18.5q0 -12 -4.5 -20
t-18.5 -20q-15 -13 -33 -23t-35.5 -16.5t-33.5 -9.5t-27 -3q-8 0 -12.5 4.5t-4.5 9.5q0 6 3 10t12 9q22 13 45 36.5t37 65.5q7 19 23 19z" />
    <glyph glyph-name="Ccaron" unicode="&#x10c;" horiz-adv-x="477" 
d="M341 663q58 0 97 -32t39 -94q0 -42 -19 -69.5t-48 -27.5q-20 0 -34.5 12t-14.5 33q0 17 7 27t15.5 17.5t15.5 16.5t7 25q0 18 -13.5 27t-31.5 9q-38 0 -73.5 -29.5t-62.5 -79t-43 -115.5t-16 -138q0 -71 37.5 -105.5t91.5 -34.5q20 0 37 7t31.5 17t25.5 21l19 19
q15 17 23 17q13 0 13 -11q0 -7 -2.5 -14t-7.5 -17q-8 -18 -27.5 -45t-49 -51.5t-67.5 -42.5t-83 -18q-46 0 -84 12.5t-65.5 40.5t-42.5 72t-15 106q0 93 30 174.5t79 141.5t109.5 94.5t122.5 34.5zM334 692q-8 0 -16.5 5.5t-18 14.5t-18.5 20t-16 21q-13 17 -18 28.5
t-5 18.5q0 14 11 14q7 0 25 -15q9 -8 20.5 -15t22.5 -11.5t20 -7t13 -2.5q14 0 28.5 10.5t32.5 27.5q9 8 15.5 12.5t13.5 4.5q12 0 12 -11q0 -8 -9 -21t-37 -42q-19 -20 -40.5 -36t-35.5 -16z" />
    <glyph glyph-name="Ccedilla" unicode="&#xc7;" horiz-adv-x="477" 
d="M341 663q58 0 97 -32t39 -94q0 -42 -19 -69.5t-48 -27.5q-20 0 -34.5 12t-14.5 33q0 17 7 27t15.5 17.5t15.5 16.5t7 25q0 18 -13.5 27t-31.5 9q-38 0 -73.5 -29.5t-62.5 -79t-43 -115.5t-16 -138q0 -71 37.5 -105.5t91.5 -34.5q20 0 37 7t31.5 17t25.5 21l19 19
q15 17 23 17q13 0 13 -11q0 -7 -2.5 -14t-7.5 -17q-8 -18 -27 -44t-47 -50.5t-64.5 -42.5t-79.5 -20q1 -8 4 -18t11 -10q11 0 22.5 1.5t19.5 1.5q12 0 17.5 -7.5t5.5 -19.5q0 -17 -8.5 -37t-25 -37t-42.5 -29t-60 -12q-26 0 -43 11t-17 30q0 12 9 22.5t21 10.5q9 0 14 -4
t10 -8.5t11.5 -8.5t19.5 -4q15 0 27.5 5t21.5 12t14 15t5 13q-14 -4 -36 -7.5t-36 -3.5q-11 0 -16.5 6.5t-5.5 13.5q0 14 4 35l6 32q-38 4 -69 19.5t-53.5 43t-34.5 68.5t-12 97q0 93 30 174.5t79 141.5t109.5 94.5t122.5 34.5z" />
    <glyph glyph-name="D" unicode="D" horiz-adv-x="748" 
d="M582 439q0 43 -7 73.5t-19 50t-27.5 30t-33.5 13.5q-12 -15 -22.5 -39.5t-22.5 -68.5q-9 -30 -18 -69.5t-17.5 -82.5t-16 -85.5t-13 -77.5t-9 -59.5t-3.5 -31.5q0 -39 41 -39q45 0 80 44t56 113q16 52 24 108.5t8 120.5zM218 76q4 11 10.5 39.5l14.5 66.5l17 83l18 88.5
l17 83t15 66.5q6 25 14.5 42.5t18 29.5t20 20.5t20.5 15.5q-49 -3 -90.5 -21t-71.5 -43t-47 -54t-17 -54q0 -47 41 -47q10 0 20 3.5t14 3.5q10 0 10 -11t-10 -28t-28 -33.5t-42.5 -28.5t-54.5 -12q-47 0 -77 28.5t-30 81.5q0 59 36.5 108t97 84.5t138.5 55t161 19.5
q60 0 113.5 -13.5t94 -44t64 -79.5t23.5 -119q0 -63 -7.5 -113.5t-26.5 -98.5q-40 -100 -106 -150t-144 -50q-25 0 -48 5.5t-41.5 12.5l-32 12.5t-19.5 5.5q-9 0 -22 -5.5t-27 -12.5t-28.5 -12.5t-24.5 -5.5q-16 0 -16 13q0 5 2.5 9.5t7 11t10.5 18t13 29.5z" />
    <glyph glyph-name="D.01" horiz-adv-x="896" 
d="M866 303q0 -69 -20 -129t-56 -104.5t-87 -70t-114 -25.5q-54 0 -96.5 19t-79.5 45q-17 -32 -39.5 -60.5t-51.5 -49.5t-65 -33.5t-80 -12.5q-36 0 -68.5 10.5t-56.5 31t-38 51t-14 70.5q0 38 15.5 68t41.5 51t59.5 32t68.5 11q45 0 80.5 -10t67.5 -24q16 33 30 71.5
t26 77.5t21.5 75l17.5 65q11 43 22 76t32 68q-8 1 -15.5 1.5t-15.5 0.5q-44 0 -77 -8.5t-54.5 -23.5t-32 -34t-10.5 -40q0 -22 11.5 -34t28.5 -12q30 0 45 29q6 14 13 14q5 0 8.5 -5t3.5 -21q0 -26 -8.5 -53.5t-26 -51t-43.5 -38.5t-61 -15q-63 0 -99.5 36.5t-36.5 95.5
q0 53 26.5 93.5t72.5 67.5t108.5 41t135.5 14q17 0 34 -1t35 -3q30 38 64 61t83 23q36 0 59 -15t23 -44q0 -20 -14 -30.5t-32 -10.5q-13 0 -21 6t-15 13.5t-14.5 13.5t-18.5 6q-18 0 -30 -10.5t-26 -27.5q56 -12 107.5 -39t90.5 -69.5t62.5 -100.5t23.5 -132zM721 312
q0 46 -12 92t-34 84t-52.5 66t-67.5 38q-9 -17 -15 -46.5l-11 -52.5q-6 -26 -12 -63l-13 -79t-16 -87t-21 -87l-10 -32t-11 -32q26 -13 52 -21.5t56 -8.5q39 0 70 16t52.5 46t33 72.5t11.5 94.5zM204 65q29 0 53.5 16t45.5 44q-26 17 -51.5 28.5t-54.5 11.5q-21 0 -36.5 -14
t-15.5 -36q0 -19 14 -34.5t45 -15.5z" />
    <glyph glyph-name="D.01_caron" horiz-adv-x="896" 
d="M866 303q0 -69 -20 -129t-56 -104.5t-87 -70t-114 -25.5q-54 0 -96.5 19t-79.5 45q-17 -32 -39.5 -60.5t-51.5 -49.5t-65 -33.5t-80 -12.5q-36 0 -68.5 10.5t-56.5 31t-38 51t-14 70.5q0 38 15.5 68t41.5 51t59.5 32t68.5 11q45 0 80.5 -10t67.5 -24q16 33 30 71.5
t26 77.5t21.5 75l17.5 65q11 43 22 76t32 68q-8 1 -15.5 1.5t-15.5 0.5q-44 0 -77 -8.5t-54.5 -23.5t-32 -34t-10.5 -40q0 -22 11.5 -34t28.5 -12q30 0 45 29q6 14 13 14q5 0 8.5 -5t3.5 -21q0 -26 -8.5 -53.5t-26 -51t-43.5 -38.5t-61 -15q-63 0 -99.5 36.5t-36.5 95.5
q0 53 26.5 93.5t72.5 67.5t108.5 41t135.5 14q17 0 34 -1t35 -3q30 38 64 61t83 23q36 0 59 -15t23 -44q0 -20 -14 -30.5t-32 -10.5q-13 0 -21 6t-15 13.5t-14.5 13.5t-18.5 6q-18 0 -30 -10.5t-26 -27.5q56 -12 107.5 -39t90.5 -69.5t62.5 -100.5t23.5 -132zM721 312
q0 46 -12 92t-34 84t-52.5 66t-67.5 38q-9 -17 -15 -46.5l-11 -52.5q-6 -26 -12 -63l-13 -79t-16 -87t-21 -87l-10 -32t-11 -32q26 -13 52 -21.5t56 -8.5q39 0 70 16t52.5 46t33 72.5t11.5 94.5zM204 65q29 0 53.5 16t45.5 44q-26 17 -51.5 28.5t-54.5 11.5q-21 0 -36.5 -14
t-15.5 -36q0 -19 14 -34.5t45 -15.5zM473 704q-8 0 -16.5 5.5t-18 14.5t-18.5 20t-16 21q-13 17 -18 28.5t-5 18.5q0 14 11 14q7 0 25 -15q9 -8 20.5 -15t22.5 -11.5t20 -7t13 -2.5q14 0 28.5 10.5t32.5 27.5q9 8 15.5 12.5t13.5 4.5q12 0 12 -11q0 -8 -9 -21t-37 -42
q-19 -20 -40.5 -36t-35.5 -16z" />
    <glyph glyph-name="D.salt" horiz-adv-x="1015" 
d="M599 321q-8 -43 -20 -98.5t-30 -113.5t-43.5 -113.5t-63 -99t-88 -70t-116.5 -26.5q-52 0 -95.5 14.5t-75 42.5t-49.5 67.5t-18 90.5q0 55 22 97t56 70t75.5 42t80.5 14q29 0 43 -7.5t14 -15.5q0 -12 -14 -16q-33 -10 -59.5 -33.5t-26.5 -63.5q0 -38 25.5 -57t67.5 -19
q46 0 79 29.5t59.5 85t50 136.5l51.5 185q11 42 22 75.5t32 68.5q-8 3 -31.5 5.5t-52.5 2.5q-30 0 -61 -7.5t-56 -22.5t-41 -37.5t-16 -52.5t18 -45.5t44 -15.5q23 0 38 12t26 29q5 8 9 12.5t10 4.5q5 0 9 -5.5t4 -25.5q0 -29 -9.5 -60.5t-30.5 -57.5t-54 -43t-79 -17
q-39 0 -71 12.5t-54 34.5t-34 51t-12 61q0 43 16.5 77t44 59.5t63.5 43t75.5 29t80 16.5t76.5 5q55 0 84 -3.5t46 -8.5q30 38 64 61t83 23q36 0 59 -15t23 -44q0 -20 -14 -30.5t-32 -10.5q-13 0 -21 6t-15 13.5t-14.5 13.5t-18.5 6q-18 0 -29.5 -10.5t-23.5 -27.5
q56 -12 110.5 -43t97.5 -78.5t69.5 -109.5t26.5 -136q0 -67 -15.5 -126.5t-46 -104t-75 -70.5t-102.5 -26q-37 0 -67.5 9t-53 26t-35 42t-12.5 58q0 22 8.5 41t21 33.5t28 23t30.5 8.5q17 0 17 -10q0 -8 -5 -14t-5 -20q0 -17 13 -30t39 -13q46 0 71.5 53t25.5 147
q0 46 -12.5 90.5t-35 81.5t-53 63.5t-67.5 36.5q-5 -14 -12 -44t-14.5 -66.5l-15 -75z" />
    <glyph glyph-name="D.salt_caron" horiz-adv-x="1015" 
d="M599 321q-8 -43 -20 -98.5t-30 -113.5t-43.5 -113.5t-63 -99t-88 -70t-116.5 -26.5q-52 0 -95.5 14.5t-75 42.5t-49.5 67.5t-18 90.5q0 55 22 97t56 70t75.5 42t80.5 14q29 0 43 -7.5t14 -15.5q0 -12 -14 -16q-33 -10 -59.5 -33.5t-26.5 -63.5q0 -38 25.5 -57t67.5 -19
q46 0 79 29.5t59.5 85t50 136.5l51.5 185q11 42 22 75.5t32 68.5q-8 3 -31.5 5.5t-52.5 2.5q-30 0 -61 -7.5t-56 -22.5t-41 -37.5t-16 -52.5t18 -45.5t44 -15.5q23 0 38 12t26 29q5 8 9 12.5t10 4.5q5 0 9 -5.5t4 -25.5q0 -29 -9.5 -60.5t-30.5 -57.5t-54 -43t-79 -17
q-39 0 -71 12.5t-54 34.5t-34 51t-12 61q0 43 16.5 77t44 59.5t63.5 43t75.5 29t80 16.5t76.5 5q55 0 84 -3.5t46 -8.5q30 38 64 61t83 23q36 0 59 -15t23 -44q0 -20 -14 -30.5t-32 -10.5q-13 0 -21 6t-15 13.5t-14.5 13.5t-18.5 6q-18 0 -29.5 -10.5t-23.5 -27.5
q56 -12 110.5 -43t97.5 -78.5t69.5 -109.5t26.5 -136q0 -67 -15.5 -126.5t-46 -104t-75 -70.5t-102.5 -26q-37 0 -67.5 9t-53 26t-35 42t-12.5 58q0 22 8.5 41t21 33.5t28 23t30.5 8.5q17 0 17 -10q0 -8 -5 -14t-5 -20q0 -17 13 -30t39 -13q46 0 71.5 53t25.5 147
q0 46 -12.5 90.5t-35 81.5t-53 63.5t-67.5 36.5q-5 -14 -12 -44t-14.5 -66.5l-15 -75zM582 702q-8 0 -16.5 5.5t-18 14.5t-18.5 20t-16 21q-13 17 -18 28.5t-5 18.5q0 14 11 14q7 0 25 -15q9 -8 20.5 -15t22.5 -11.5t20 -7t13 -2.5q14 0 28.5 10.5t32.5 27.5q9 8 15.5 12.5
t13.5 4.5q12 0 12 -11q0 -8 -9 -21t-37 -42q-19 -20 -40.5 -36t-35.5 -16z" />
    <glyph glyph-name="D.titl" horiz-adv-x="917" 
d="M603 644q56 -12 107.5 -39t90.5 -69.5t62.5 -100.5t23.5 -132q0 -67 -19 -123.5t-51.5 -97.5t-76.5 -64t-94 -23q-32 0 -58.5 8.5t-46 24t-30.5 38t-11 50.5q0 19 7 35.5t18 29t24.5 19.5t26.5 7q14 0 14 -9q0 -6 -4 -11.5t-4 -17.5q0 -15 15.5 -26t32.5 -11q54 0 83 43
t29 137q0 46 -12 89.5t-34 78.5t-52.5 60.5t-67.5 35.5q-9 -17 -15 -38.5t-11 -44.5q-6 -26 -13 -60l-15.5 -73l-18.5 -81.5t-23 -84.5q-17 -54 -40 -104.5t-56.5 -89.5t-80 -62t-109.5 -23q-41 0 -76.5 12t-61.5 34.5t-41 55.5t-15 75t17 75t44 55.5t61.5 34.5t69.5 12
q26 0 38 -6.5t12 -12.5q0 -7 -14 -11q-23 -7 -41.5 -27t-18.5 -49q0 -31 17.5 -49.5t51.5 -18.5q30 0 53.5 20.5t43 55.5t36.5 81t33.5 96.5l33 102.5t36.5 99q6 15 11.5 25.5t14.5 21.5q-9 1 -18 1.5t-19 0.5q-85 0 -126.5 -27.5t-41.5 -69.5q0 -22 11.5 -34t28.5 -12
q28 0 44 29q6 14 13 14q5 0 8.5 -5t3.5 -21q0 -26 -9.5 -53.5t-27.5 -51t-45 -38.5t-62 -15q-27 0 -50.5 9.5t-41.5 26.5t-28.5 41t-10.5 53q0 57 28 98t74 67.5t105.5 39.5t122.5 13q21 0 42.5 -0.5t41.5 -3.5q30 38 64 61t83 23q36 0 59 -15t23 -44q0 -20 -14 -30.5
t-32 -10.5q-13 0 -21 6t-15 13.5t-14.5 13.5t-18.5 6q-18 0 -29.5 -10.5t-23.5 -27.5z" />
    <glyph glyph-name="D.titl_caron" horiz-adv-x="917" 
d="M603 644q56 -12 107.5 -39t90.5 -69.5t62.5 -100.5t23.5 -132q0 -67 -19 -123.5t-51.5 -97.5t-76.5 -64t-94 -23q-32 0 -58.5 8.5t-46 24t-30.5 38t-11 50.5q0 19 7 35.5t18 29t24.5 19.5t26.5 7q14 0 14 -9q0 -6 -4 -11.5t-4 -17.5q0 -15 15.5 -26t32.5 -11q54 0 83 43
t29 137q0 46 -12 89.5t-34 78.5t-52.5 60.5t-67.5 35.5q-9 -17 -15 -38.5t-11 -44.5q-6 -26 -13 -60l-15.5 -73l-18.5 -81.5t-23 -84.5q-17 -54 -40 -104.5t-56.5 -89.5t-80 -62t-109.5 -23q-41 0 -76.5 12t-61.5 34.5t-41 55.5t-15 75t17 75t44 55.5t61.5 34.5t69.5 12
q26 0 38 -6.5t12 -12.5q0 -7 -14 -11q-23 -7 -41.5 -27t-18.5 -49q0 -31 17.5 -49.5t51.5 -18.5q30 0 53.5 20.5t43 55.5t36.5 81t33.5 96.5l33 102.5t36.5 99q6 15 11.5 25.5t14.5 21.5q-9 1 -18 1.5t-19 0.5q-85 0 -126.5 -27.5t-41.5 -69.5q0 -22 11.5 -34t28.5 -12
q28 0 44 29q6 14 13 14q5 0 8.5 -5t3.5 -21q0 -26 -9.5 -53.5t-27.5 -51t-45 -38.5t-62 -15q-27 0 -50.5 9.5t-41.5 26.5t-28.5 41t-10.5 53q0 57 28 98t74 67.5t105.5 39.5t122.5 13q21 0 42.5 -0.5t41.5 -3.5q30 38 64 61t83 23q36 0 59 -15t23 -44q0 -20 -14 -30.5
t-32 -10.5q-13 0 -21 6t-15 13.5t-14.5 13.5t-18.5 6q-18 0 -29.5 -10.5t-23.5 -27.5zM498 690q-8 0 -16.5 5.5t-18 14.5t-18.5 20t-16 21q-13 17 -18 28.5t-5 18.5q0 14 11 14q7 0 25 -15q9 -8 20.5 -15t22.5 -11.5t20 -7t13 -2.5q14 0 28.5 10.5t32.5 27.5q9 8 15.5 12.5
t13.5 4.5q12 0 12 -11q0 -8 -9 -21t-37 -42q-19 -20 -40.5 -36t-35.5 -16z" />
    <glyph glyph-name="Dcaron" unicode="&#x10e;" horiz-adv-x="748" 
d="M582 439q0 43 -7 73.5t-19 50t-27.5 30t-33.5 13.5q-12 -15 -22.5 -39.5t-22.5 -68.5q-9 -30 -18 -69.5t-17.5 -82.5t-16 -85.5t-13 -77.5t-9 -59.5t-3.5 -31.5q0 -39 41 -39q45 0 80 44t56 113q16 52 24 108.5t8 120.5zM218 76q4 11 10.5 39.5l14.5 66.5l17 83l18 88.5
l17 83t15 66.5q6 25 14.5 42.5t18 29.5t20 20.5t20.5 15.5q-49 -3 -90.5 -21t-71.5 -43t-47 -54t-17 -54q0 -47 41 -47q10 0 20 3.5t14 3.5q10 0 10 -11t-10 -28t-28 -33.5t-42.5 -28.5t-54.5 -12q-47 0 -77 28.5t-30 81.5q0 59 36.5 108t97 84.5t138.5 55t161 19.5
q60 0 113.5 -13.5t94 -44t64 -79.5t23.5 -119q0 -63 -7.5 -113.5t-26.5 -98.5q-40 -100 -106 -150t-144 -50q-25 0 -48 5.5t-41.5 12.5l-32 12.5t-19.5 5.5q-9 0 -22 -5.5t-27 -12.5t-28.5 -12.5t-24.5 -5.5q-16 0 -16 13q0 5 2.5 9.5t7 11t10.5 18t13 29.5zM455 700
q-8 0 -16.5 5.5t-18 14.5t-18.5 20t-16 21q-13 17 -18 28.5t-5 18.5q0 14 11 14q7 0 25 -15q9 -8 20.5 -15t22.5 -11.5t20 -7t13 -2.5q14 0 28.5 10.5t32.5 27.5q9 8 15.5 12.5t13.5 4.5q12 0 12 -11q0 -8 -9 -21t-37 -42q-19 -20 -40.5 -36t-35.5 -16z" />
    <glyph glyph-name="Delta" unicode="&#x2206;" horiz-adv-x="514" 
d="M44 0q-14 0 -21 8.5t-7 20.5q0 17 10 34q14 31 33.5 80.5l44 113.5l53.5 141l62 163q7 17 17.5 24t21.5 7q16 0 23 -8t14 -23l83 -218l56 -146.5l34 -89l17.5 -47t6.5 -18.5t1 -4q0 -21 -14 -30t-34 -9zM392 77l-136 358l-134 -358h270z" />
    <glyph glyph-name="E" unicode="E" horiz-adv-x="454" 
d="M157 216q0 -54 33 -82.5t80 -28.5q19 0 35.5 6t29.5 15t23.5 19.5t18.5 20.5q8 8 13.5 14t10.5 6q13 0 13 -11q0 -8 -8 -27q-8 -20 -23.5 -47.5t-41 -53t-61 -43t-84.5 -17.5q-42 0 -77.5 14t-62 38.5t-41.5 58.5t-15 73q0 50 16 86.5t39.5 62t49 41t43.5 23.5
q-23 23 -37.5 52t-14.5 62q0 34 16.5 64t44 52.5t63.5 35.5t74 13q66 0 102 -27t36 -79q0 -38 -18.5 -62.5t-50.5 -24.5q-20 0 -34.5 12t-14.5 32q0 15 6.5 23.5t14.5 15t14.5 13.5t6.5 18q0 25 -34 25q-20 0 -37 -10.5t-29 -28t-19 -41t-7 -50.5q0 -17 3 -28t7 -18
q4 -8 11 -13q6 2 14 4q7 2 16.5 3t23.5 1q24 0 38.5 -12.5t14.5 -32.5q0 -25 -18 -40t-47 -15q-28 0 -50 8t-31 13q-7 -5 -16.5 -17.5t-18 -30.5t-14.5 -39.5t-6 -45.5z" />
    <glyph glyph-name="E.01" horiz-adv-x="764" 
d="M373 136q0 -69 32.5 -104t82.5 -35q23 0 40.5 9t29 24t17.5 35t6 41q0 26 -17 40.5t-38 14.5q-17 0 -26.5 -8t-19.5 -21q-5 -6 -8.5 -9.5t-8.5 -3.5t-8.5 3.5t-3.5 12.5q0 18 10.5 39.5t29 40t44.5 30.5t56 12q25 0 48.5 -7.5t41 -23t28 -38.5t10.5 -53
q0 -39 -16.5 -78.5t-48 -72t-79 -53t-108.5 -20.5q-45 0 -90 13t-81 39t-58.5 66t-22.5 94t18 98t45 77.5t59.5 56.5t61.5 36q-14 14 -30.5 37.5t-16.5 61.5q0 21 8 43q-20 4 -37.5 6t-36.5 2q-54 0 -82.5 -22.5t-28.5 -55.5q0 -18 11.5 -30.5t28.5 -12.5t28 7.5t19 21.5
q8 13 16 13q5 0 8.5 -5t3.5 -20q0 -21 -7.5 -45t-24 -44.5t-42 -33.5t-61.5 -13q-35 0 -63.5 10.5t-48.5 30t-31.5 46.5t-11.5 61q0 44 16 78.5t45 58.5t68.5 36.5t86.5 12.5q51 0 95 -13t89 -30q35 33 83 52t105 19q56 0 88.5 -21.5t32.5 -54.5q0 -23 -10 -40t-26 -27.5
t-36 -15.5t-41 -5q-36 0 -63.5 3.5t-52.5 9.5q-5 -14 -5 -33q0 -14 3 -24t7 -18q4 -9 10 -15q8 2 19 4q9 2 20 3.5t25 1.5q26 0 41.5 -14.5t15.5 -34.5q0 -29 -20.5 -45.5t-48.5 -16.5q-29 0 -55 9.5t-36 14.5q-8 -4 -21.5 -20.5t-27.5 -43t-24 -63t-10 -81.5zM600 606
q-54 0 -97 -48q23 -6 43.5 -9.5t46.5 -3.5q24 0 38.5 8.5t14.5 25.5q0 13 -12.5 20t-33.5 7z" />
    <glyph glyph-name="E.01_acute" horiz-adv-x="764" 
d="M373 136q0 -69 32.5 -104t82.5 -35q23 0 40.5 9t29 24t17.5 35t6 41q0 26 -17 40.5t-38 14.5q-17 0 -26.5 -8t-19.5 -21q-5 -6 -8.5 -9.5t-8.5 -3.5t-8.5 3.5t-3.5 12.5q0 18 10.5 39.5t29 40t44.5 30.5t56 12q25 0 48.5 -7.5t41 -23t28 -38.5t10.5 -53
q0 -39 -16.5 -78.5t-48 -72t-79 -53t-108.5 -20.5q-45 0 -90 13t-81 39t-58.5 66t-22.5 94t18 98t45 77.5t59.5 56.5t61.5 36q-14 14 -30.5 37.5t-16.5 61.5q0 21 8 43q-20 4 -37.5 6t-36.5 2q-54 0 -82.5 -22.5t-28.5 -55.5q0 -18 11.5 -30.5t28.5 -12.5t28 7.5t19 21.5
q8 13 16 13q5 0 8.5 -5t3.5 -20q0 -21 -7.5 -45t-24 -44.5t-42 -33.5t-61.5 -13q-35 0 -63.5 10.5t-48.5 30t-31.5 46.5t-11.5 61q0 44 16 78.5t45 58.5t68.5 36.5t86.5 12.5q51 0 95 -13t89 -30q35 33 83 52t105 19q56 0 88.5 -21.5t32.5 -54.5q0 -23 -10 -40t-26 -27.5
t-36 -15.5t-41 -5q-36 0 -63.5 3.5t-52.5 9.5q-5 -14 -5 -33q0 -14 3 -24t7 -18q4 -9 10 -15q8 2 19 4q9 2 20 3.5t25 1.5q26 0 41.5 -14.5t15.5 -34.5q0 -29 -20.5 -45.5t-48.5 -16.5q-29 0 -55 9.5t-36 14.5q-8 -4 -21.5 -20.5t-27.5 -43t-24 -63t-10 -81.5zM600 606
q-54 0 -97 -48q23 -6 43.5 -9.5t46.5 -3.5q24 0 38.5 8.5t14.5 25.5q0 13 -12.5 20t-33.5 7zM636 832q6 0 14 -6.5t16 -16.5t13.5 -20.5t5.5 -18.5q0 -12 -4.5 -20t-18.5 -20q-15 -13 -33 -23t-35.5 -16.5t-33.5 -9.5t-27 -3q-8 0 -12.5 4.5t-4.5 9.5q0 6 3 10t12 9
q22 13 45 36.5t37 65.5q7 19 23 19z" />
    <glyph glyph-name="E.01_breve" horiz-adv-x="764" 
d="M373 136q0 -69 32.5 -104t82.5 -35q23 0 40.5 9t29 24t17.5 35t6 41q0 26 -17 40.5t-38 14.5q-17 0 -26.5 -8t-19.5 -21q-5 -6 -8.5 -9.5t-8.5 -3.5t-8.5 3.5t-3.5 12.5q0 18 10.5 39.5t29 40t44.5 30.5t56 12q25 0 48.5 -7.5t41 -23t28 -38.5t10.5 -53
q0 -39 -16.5 -78.5t-48 -72t-79 -53t-108.5 -20.5q-45 0 -90 13t-81 39t-58.5 66t-22.5 94t18 98t45 77.5t59.5 56.5t61.5 36q-14 14 -30.5 37.5t-16.5 61.5q0 21 8 43q-20 4 -37.5 6t-36.5 2q-54 0 -82.5 -22.5t-28.5 -55.5q0 -18 11.5 -30.5t28.5 -12.5t28 7.5t19 21.5
q8 13 16 13q5 0 8.5 -5t3.5 -20q0 -21 -7.5 -45t-24 -44.5t-42 -33.5t-61.5 -13q-35 0 -63.5 10.5t-48.5 30t-31.5 46.5t-11.5 61q0 44 16 78.5t45 58.5t68.5 36.5t86.5 12.5q51 0 95 -13t89 -30q35 33 83 52t105 19q56 0 88.5 -21.5t32.5 -54.5q0 -23 -10 -40t-26 -27.5
t-36 -15.5t-41 -5q-36 0 -63.5 3.5t-52.5 9.5q-5 -14 -5 -33q0 -14 3 -24t7 -18q4 -9 10 -15q8 2 19 4q9 2 20 3.5t25 1.5q26 0 41.5 -14.5t15.5 -34.5q0 -29 -20.5 -45.5t-48.5 -16.5q-29 0 -55 9.5t-36 14.5q-8 -4 -21.5 -20.5t-27.5 -43t-24 -63t-10 -81.5zM600 606
q-54 0 -97 -48q23 -6 43.5 -9.5t46.5 -3.5q24 0 38.5 8.5t14.5 25.5q0 13 -12.5 20t-33.5 7zM559 690q-20 0 -39 6.5t-33.5 18.5t-23.5 28.5t-9 36.5q0 17 12.5 29.5t28.5 12.5q29 0 29 -26q0 -12 -4 -16t-4 -15q0 -12 13.5 -19.5t35.5 -7.5q31 0 44.5 12.5t13.5 29.5
q0 23 10 32.5t23 9.5q16 0 25 -8t9 -21q0 -26 -17 -51q-14 -20 -40 -36t-74 -16z" />
    <glyph glyph-name="E.01_circumflex" horiz-adv-x="764" 
d="M373 136q0 -69 32.5 -104t82.5 -35q23 0 40.5 9t29 24t17.5 35t6 41q0 26 -17 40.5t-38 14.5q-17 0 -26.5 -8t-19.5 -21q-5 -6 -8.5 -9.5t-8.5 -3.5t-8.5 3.5t-3.5 12.5q0 18 10.5 39.5t29 40t44.5 30.5t56 12q25 0 48.5 -7.5t41 -23t28 -38.5t10.5 -53
q0 -39 -16.5 -78.5t-48 -72t-79 -53t-108.5 -20.5q-45 0 -90 13t-81 39t-58.5 66t-22.5 94t18 98t45 77.5t59.5 56.5t61.5 36q-14 14 -30.5 37.5t-16.5 61.5q0 21 8 43q-20 4 -37.5 6t-36.5 2q-54 0 -82.5 -22.5t-28.5 -55.5q0 -18 11.5 -30.5t28.5 -12.5t28 7.5t19 21.5
q8 13 16 13q5 0 8.5 -5t3.5 -20q0 -21 -7.5 -45t-24 -44.5t-42 -33.5t-61.5 -13q-35 0 -63.5 10.5t-48.5 30t-31.5 46.5t-11.5 61q0 44 16 78.5t45 58.5t68.5 36.5t86.5 12.5q51 0 95 -13t89 -30q35 33 83 52t105 19q56 0 88.5 -21.5t32.5 -54.5q0 -23 -10 -40t-26 -27.5
t-36 -15.5t-41 -5q-36 0 -63.5 3.5t-52.5 9.5q-5 -14 -5 -33q0 -14 3 -24t7 -18q4 -9 10 -15q8 2 19 4q9 2 20 3.5t25 1.5q26 0 41.5 -14.5t15.5 -34.5q0 -29 -20.5 -45.5t-48.5 -16.5q-29 0 -55 9.5t-36 14.5q-8 -4 -21.5 -20.5t-27.5 -43t-24 -63t-10 -81.5zM600 606
q-54 0 -97 -48q23 -6 43.5 -9.5t46.5 -3.5q24 0 38.5 8.5t14.5 25.5q0 13 -12.5 20t-33.5 7zM592 745l-35 -20.5l-33.5 -19.5t-27.5 -14.5t-17 -5.5q-8 0 -12 4.5t-4 9.5q0 12 15 23l20.5 15.5t16.5 14t17 17l23 24.5q11 13 20 22.5t28 9.5q21 0 26.5 -10t12.5 -26
q11 -26 23 -39.5l24 -27.5q8 -8 12.5 -11.5t4.5 -10.5q0 -6 -4.5 -10.5t-12.5 -4.5t-32 10.5t-65 49.5z" />
    <glyph glyph-name="E.01_dieresis" horiz-adv-x="764" 
d="M373 136q0 -69 32.5 -104t82.5 -35q23 0 40.5 9t29 24t17.5 35t6 41q0 26 -17 40.5t-38 14.5q-17 0 -26.5 -8t-19.5 -21q-5 -6 -8.5 -9.5t-8.5 -3.5t-8.5 3.5t-3.5 12.5q0 18 10.5 39.5t29 40t44.5 30.5t56 12q25 0 48.5 -7.5t41 -23t28 -38.5t10.5 -53
q0 -39 -16.5 -78.5t-48 -72t-79 -53t-108.5 -20.5q-45 0 -90 13t-81 39t-58.5 66t-22.5 94t18 98t45 77.5t59.5 56.5t61.5 36q-14 14 -30.5 37.5t-16.5 61.5q0 21 8 43q-20 4 -37.5 6t-36.5 2q-54 0 -82.5 -22.5t-28.5 -55.5q0 -18 11.5 -30.5t28.5 -12.5t28 7.5t19 21.5
q8 13 16 13q5 0 8.5 -5t3.5 -20q0 -21 -7.5 -45t-24 -44.5t-42 -33.5t-61.5 -13q-35 0 -63.5 10.5t-48.5 30t-31.5 46.5t-11.5 61q0 44 16 78.5t45 58.5t68.5 36.5t86.5 12.5q51 0 95 -13t89 -30q35 33 83 52t105 19q56 0 88.5 -21.5t32.5 -54.5q0 -23 -10 -40t-26 -27.5
t-36 -15.5t-41 -5q-36 0 -63.5 3.5t-52.5 9.5q-5 -14 -5 -33q0 -14 3 -24t7 -18q4 -9 10 -15q8 2 19 4q9 2 20 3.5t25 1.5q26 0 41.5 -14.5t15.5 -34.5q0 -29 -20.5 -45.5t-48.5 -16.5q-29 0 -55 9.5t-36 14.5q-8 -4 -21.5 -20.5t-27.5 -43t-24 -63t-10 -81.5zM600 606
q-54 0 -97 -48q23 -6 43.5 -9.5t46.5 -3.5q24 0 38.5 8.5t14.5 25.5q0 13 -12.5 20t-33.5 7zM467 734q0 12 5 25t14 23.5t21 17.5t26 7q18 0 29 -13t11 -33q0 -12 -5 -25.5t-14 -24t-21.5 -17.5t-27.5 -7q-17 0 -27.5 13.5t-10.5 33.5zM605 734q0 12 5 25t14 23.5t21 17.5
t26 7q18 0 29 -13t11 -33q0 -12 -5 -25.5t-14 -24t-21.5 -17.5t-27.5 -7q-17 0 -27.5 13.5t-10.5 33.5z" />
    <glyph glyph-name="E.01_grave" horiz-adv-x="764" 
d="M373 136q0 -69 32.5 -104t82.5 -35q23 0 40.5 9t29 24t17.5 35t6 41q0 26 -17 40.5t-38 14.5q-17 0 -26.5 -8t-19.5 -21q-5 -6 -8.5 -9.5t-8.5 -3.5t-8.5 3.5t-3.5 12.5q0 18 10.5 39.5t29 40t44.5 30.5t56 12q25 0 48.5 -7.5t41 -23t28 -38.5t10.5 -53
q0 -39 -16.5 -78.5t-48 -72t-79 -53t-108.5 -20.5q-45 0 -90 13t-81 39t-58.5 66t-22.5 94t18 98t45 77.5t59.5 56.5t61.5 36q-14 14 -30.5 37.5t-16.5 61.5q0 21 8 43q-20 4 -37.5 6t-36.5 2q-54 0 -82.5 -22.5t-28.5 -55.5q0 -18 11.5 -30.5t28.5 -12.5t28 7.5t19 21.5
q8 13 16 13q5 0 8.5 -5t3.5 -20q0 -21 -7.5 -45t-24 -44.5t-42 -33.5t-61.5 -13q-35 0 -63.5 10.5t-48.5 30t-31.5 46.5t-11.5 61q0 44 16 78.5t45 58.5t68.5 36.5t86.5 12.5q51 0 95 -13t89 -30q35 33 83 52t105 19q56 0 88.5 -21.5t32.5 -54.5q0 -23 -10 -40t-26 -27.5
t-36 -15.5t-41 -5q-36 0 -63.5 3.5t-52.5 9.5q-5 -14 -5 -33q0 -14 3 -24t7 -18q4 -9 10 -15q8 2 19 4q9 2 20 3.5t25 1.5q26 0 41.5 -14.5t15.5 -34.5q0 -29 -20.5 -45.5t-48.5 -16.5q-29 0 -55 9.5t-36 14.5q-8 -4 -21.5 -20.5t-27.5 -43t-24 -63t-10 -81.5zM600 606
q-54 0 -97 -48q23 -6 43.5 -9.5t46.5 -3.5q24 0 38.5 8.5t14.5 25.5q0 13 -12.5 20t-33.5 7zM557 838q16 0 23 -19q14 -42 37 -65.5t45 -36.5q9 -5 12 -9t3 -10q0 -5 -4.5 -9.5t-12.5 -4.5q-11 0 -27 3t-33.5 9.5t-35.5 16.5t-33 23q-14 12 -18.5 20t-4.5 20q0 8 5.5 18.5
t13.5 20.5t16 16.5t14 6.5z" />
    <glyph glyph-name="E.01_ogonek" horiz-adv-x="764" 
d="M373 136q0 -69 32.5 -104t82.5 -35q23 0 40.5 9t29 24t17.5 35t6 41q0 26 -17 40.5t-38 14.5q-17 0 -26.5 -8t-19.5 -21q-5 -6 -8.5 -9.5t-8.5 -3.5t-8.5 3.5t-3.5 12.5q0 18 10.5 39.5t29 40t44.5 30.5t56 12q25 0 48.5 -7.5t41 -23t28 -38.5t10.5 -53
q0 -39 -16.5 -78.5t-48 -72t-79 -53t-108.5 -20.5h-3q-7 -4 -16 -10.5t-16.5 -14.5t-13 -17.5t-5.5 -18.5q0 -18 23.5 -30t59.5 -12q16 0 16 -10t-14 -24q-12 -13 -31.5 -25t-39.5 -12q-13 0 -29 7t-29.5 18.5t-22.5 26.5t-9 31q0 34 22 58.5t48 38.5q-38 7 -72.5 23.5
t-61 42t-42.5 60.5t-16 80q0 54 18 98t45 77.5t59.5 56.5t61.5 36q-14 14 -30.5 37.5t-16.5 61.5q0 21 8 43q-20 4 -37.5 6t-36.5 2q-54 0 -82.5 -22.5t-28.5 -55.5q0 -18 11.5 -30.5t28.5 -12.5t28 7.5t19 21.5q8 13 16 13q5 0 8.5 -5t3.5 -20q0 -21 -7.5 -45t-24 -44.5
t-42 -33.5t-61.5 -13q-35 0 -63.5 10.5t-48.5 30t-31.5 46.5t-11.5 61q0 44 16 78.5t45 58.5t68.5 36.5t86.5 12.5q51 0 95 -13t89 -30q35 33 83 52t105 19q56 0 88.5 -21.5t32.5 -54.5q0 -23 -10 -40t-26 -27.5t-36 -15.5t-41 -5q-36 0 -63.5 3.5t-52.5 9.5q-5 -14 -5 -33
q0 -14 3 -24t7 -18q4 -9 10 -15q8 2 19 4q9 2 20 3.5t25 1.5q26 0 41.5 -14.5t15.5 -34.5q0 -29 -20.5 -45.5t-48.5 -16.5q-29 0 -55 9.5t-36 14.5q-8 -4 -21.5 -20.5t-27.5 -43t-24 -63t-10 -81.5zM600 606q-54 0 -97 -48q23 -6 43.5 -9.5t46.5 -3.5q24 0 38.5 8.5
t14.5 25.5q0 13 -12.5 20t-33.5 7z" />
    <glyph glyph-name="E.salt" horiz-adv-x="767" 
d="M519 594q28 33 79 54.5t112 21.5q68 0 107.5 -26t39.5 -67q0 -27 -10.5 -46.5t-27.5 -32t-38.5 -18t-43.5 -5.5q-38 0 -71 5t-59 12q-7 -24 -7 -45q0 -16 2.5 -27t6.5 -19q4 -9 9 -16l18 5q9 2 21.5 3.5t27.5 1.5q30 0 47 -14.5t17 -36.5q0 -35 -22.5 -51.5t-54.5 -16.5
q-33 0 -57 10.5t-35 16.5q-9 -5 -24 -17t-30 -32.5t-26 -48t-11 -63.5q0 -28 9.5 -50.5t26 -38t38 -24t45.5 -8.5q38 0 72.5 20t55.5 47q8 11 13.5 17t11.5 6q14 0 14 -17q0 -8 -7 -28.5t-21.5 -46.5t-36 -53.5t-50.5 -50.5t-65.5 -38t-80.5 -15q-51 0 -93 14.5t-72 41.5
t-46.5 65.5t-16.5 87.5q0 56 23.5 102.5t58 82.5t74.5 61t73 40q-19 22 -31.5 51.5t-12.5 73.5q0 11 2.5 25.5t6.5 25.5q-23 8 -62.5 17.5t-81.5 9.5q-63 0 -96.5 -26.5t-33.5 -64.5q0 -21 13.5 -36t33.5 -15t32.5 9t22.5 25q5 8 9 12t10 4q5 0 9.5 -6t4.5 -24
q0 -25 -12 -53t-33.5 -52t-52.5 -39.5t-69 -15.5q-81 0 -127.5 47t-46.5 127q0 52 19 93t53 69t80.5 42.5t101.5 14.5q44 0 81 -6.5t69 -17.5t60 -24.5t55 -28.5zM742 599q-29 0 -58.5 -11.5t-52.5 -39.5l50 -13.5t53 -6.5q26 0 41 9.5t15 28.5q0 16 -13 24.5t-35 8.5z" />
    <glyph glyph-name="E.salt_acute" horiz-adv-x="767" 
d="M519 594q28 33 79 54.5t112 21.5q68 0 107.5 -26t39.5 -67q0 -27 -10.5 -46.5t-27.5 -32t-38.5 -18t-43.5 -5.5q-38 0 -71 5t-59 12q-7 -24 -7 -45q0 -16 2.5 -27t6.5 -19q4 -9 9 -16l18 5q9 2 21.5 3.5t27.5 1.5q30 0 47 -14.5t17 -36.5q0 -35 -22.5 -51.5t-54.5 -16.5
q-33 0 -57 10.5t-35 16.5q-9 -5 -24 -17t-30 -32.5t-26 -48t-11 -63.5q0 -28 9.5 -50.5t26 -38t38 -24t45.5 -8.5q38 0 72.5 20t55.5 47q8 11 13.5 17t11.5 6q14 0 14 -17q0 -8 -7 -28.5t-21.5 -46.5t-36 -53.5t-50.5 -50.5t-65.5 -38t-80.5 -15q-51 0 -93 14.5t-72 41.5
t-46.5 65.5t-16.5 87.5q0 56 23.5 102.5t58 82.5t74.5 61t73 40q-19 22 -31.5 51.5t-12.5 73.5q0 11 2.5 25.5t6.5 25.5q-23 8 -62.5 17.5t-81.5 9.5q-63 0 -96.5 -26.5t-33.5 -64.5q0 -21 13.5 -36t33.5 -15t32.5 9t22.5 25q5 8 9 12t10 4q5 0 9.5 -6t4.5 -24
q0 -25 -12 -53t-33.5 -52t-52.5 -39.5t-69 -15.5q-81 0 -127.5 47t-46.5 127q0 52 19 93t53 69t80.5 42.5t101.5 14.5q44 0 81 -6.5t69 -17.5t60 -24.5t55 -28.5zM742 599q-29 0 -58.5 -11.5t-52.5 -39.5l50 -13.5t53 -6.5q26 0 41 9.5t15 28.5q0 16 -13 24.5t-35 8.5z
M786 852q6 0 14 -6.5t16 -16.5t13.5 -20.5t5.5 -18.5q0 -12 -4.5 -20t-18.5 -20q-15 -13 -33 -23t-35.5 -16.5t-33.5 -9.5t-27 -3q-8 0 -12.5 4.5t-4.5 9.5q0 6 3 10t12 9q22 13 45 36.5t37 65.5q7 19 23 19z" />
    <glyph glyph-name="E.salt_breve" horiz-adv-x="767" 
d="M519 594q28 33 79 54.5t112 21.5q68 0 107.5 -26t39.5 -67q0 -27 -10.5 -46.5t-27.5 -32t-38.5 -18t-43.5 -5.5q-38 0 -71 5t-59 12q-7 -24 -7 -45q0 -16 2.5 -27t6.5 -19q4 -9 9 -16l18 5q9 2 21.5 3.5t27.5 1.5q30 0 47 -14.5t17 -36.5q0 -35 -22.5 -51.5t-54.5 -16.5
q-33 0 -57 10.5t-35 16.5q-9 -5 -24 -17t-30 -32.5t-26 -48t-11 -63.5q0 -28 9.5 -50.5t26 -38t38 -24t45.5 -8.5q38 0 72.5 20t55.5 47q8 11 13.5 17t11.5 6q14 0 14 -17q0 -8 -7 -28.5t-21.5 -46.5t-36 -53.5t-50.5 -50.5t-65.5 -38t-80.5 -15q-51 0 -93 14.5t-72 41.5
t-46.5 65.5t-16.5 87.5q0 56 23.5 102.5t58 82.5t74.5 61t73 40q-19 22 -31.5 51.5t-12.5 73.5q0 11 2.5 25.5t6.5 25.5q-23 8 -62.5 17.5t-81.5 9.5q-63 0 -96.5 -26.5t-33.5 -64.5q0 -21 13.5 -36t33.5 -15t32.5 9t22.5 25q5 8 9 12t10 4q5 0 9.5 -6t4.5 -24
q0 -25 -12 -53t-33.5 -52t-52.5 -39.5t-69 -15.5q-81 0 -127.5 47t-46.5 127q0 52 19 93t53 69t80.5 42.5t101.5 14.5q44 0 81 -6.5t69 -17.5t60 -24.5t55 -28.5zM742 599q-29 0 -58.5 -11.5t-52.5 -39.5l50 -13.5t53 -6.5q26 0 41 9.5t15 28.5q0 16 -13 24.5t-35 8.5z
M711 694q-20 0 -39 6.5t-33.5 18.5t-23.5 28.5t-9 36.5q0 17 12.5 29.5t28.5 12.5q29 0 29 -26q0 -12 -4 -16t-4 -15q0 -12 13.5 -19.5t35.5 -7.5q31 0 44.5 12.5t13.5 29.5q0 23 10 32.5t23 9.5q16 0 25 -8t9 -21q0 -26 -17 -51q-14 -20 -40 -36t-74 -16z" />
    <glyph glyph-name="E.salt_circumflex" horiz-adv-x="767" 
d="M519 594q28 33 79 54.5t112 21.5q68 0 107.5 -26t39.5 -67q0 -27 -10.5 -46.5t-27.5 -32t-38.5 -18t-43.5 -5.5q-38 0 -71 5t-59 12q-7 -24 -7 -45q0 -16 2.5 -27t6.5 -19q4 -9 9 -16l18 5q9 2 21.5 3.5t27.5 1.5q30 0 47 -14.5t17 -36.5q0 -35 -22.5 -51.5t-54.5 -16.5
q-33 0 -57 10.5t-35 16.5q-9 -5 -24 -17t-30 -32.5t-26 -48t-11 -63.5q0 -28 9.5 -50.5t26 -38t38 -24t45.5 -8.5q38 0 72.5 20t55.5 47q8 11 13.5 17t11.5 6q14 0 14 -17q0 -8 -7 -28.5t-21.5 -46.5t-36 -53.5t-50.5 -50.5t-65.5 -38t-80.5 -15q-51 0 -93 14.5t-72 41.5
t-46.5 65.5t-16.5 87.5q0 56 23.5 102.5t58 82.5t74.5 61t73 40q-19 22 -31.5 51.5t-12.5 73.5q0 11 2.5 25.5t6.5 25.5q-23 8 -62.5 17.5t-81.5 9.5q-63 0 -96.5 -26.5t-33.5 -64.5q0 -21 13.5 -36t33.5 -15t32.5 9t22.5 25q5 8 9 12t10 4q5 0 9.5 -6t4.5 -24
q0 -25 -12 -53t-33.5 -52t-52.5 -39.5t-69 -15.5q-81 0 -127.5 47t-46.5 127q0 52 19 93t53 69t80.5 42.5t101.5 14.5q44 0 81 -6.5t69 -17.5t60 -24.5t55 -28.5zM742 599q-29 0 -58.5 -11.5t-52.5 -39.5l50 -13.5t53 -6.5q26 0 41 9.5t15 28.5q0 16 -13 24.5t-35 8.5z
M726 741l-35 -20.5l-33.5 -19.5t-27.5 -14.5t-17 -5.5q-8 0 -12 4.5t-4 9.5q0 12 15 23l20.5 15.5t16.5 14t17 17l23 24.5q11 13 20 22.5t28 9.5q21 0 26.5 -10t12.5 -26q11 -26 23 -39.5l24 -27.5q8 -8 12.5 -11.5t4.5 -10.5q0 -6 -4.5 -10.5t-12.5 -4.5t-32 10.5t-65 49.5
z" />
    <glyph glyph-name="E.salt_dieresis" horiz-adv-x="767" 
d="M519 594q28 33 79 54.5t112 21.5q68 0 107.5 -26t39.5 -67q0 -27 -10.5 -46.5t-27.5 -32t-38.5 -18t-43.5 -5.5q-38 0 -71 5t-59 12q-7 -24 -7 -45q0 -16 2.5 -27t6.5 -19q4 -9 9 -16l18 5q9 2 21.5 3.5t27.5 1.5q30 0 47 -14.5t17 -36.5q0 -35 -22.5 -51.5t-54.5 -16.5
q-33 0 -57 10.5t-35 16.5q-9 -5 -24 -17t-30 -32.5t-26 -48t-11 -63.5q0 -28 9.5 -50.5t26 -38t38 -24t45.5 -8.5q38 0 72.5 20t55.5 47q8 11 13.5 17t11.5 6q14 0 14 -17q0 -8 -7 -28.5t-21.5 -46.5t-36 -53.5t-50.5 -50.5t-65.5 -38t-80.5 -15q-51 0 -93 14.5t-72 41.5
t-46.5 65.5t-16.5 87.5q0 56 23.5 102.5t58 82.5t74.5 61t73 40q-19 22 -31.5 51.5t-12.5 73.5q0 11 2.5 25.5t6.5 25.5q-23 8 -62.5 17.5t-81.5 9.5q-63 0 -96.5 -26.5t-33.5 -64.5q0 -21 13.5 -36t33.5 -15t32.5 9t22.5 25q5 8 9 12t10 4q5 0 9.5 -6t4.5 -24
q0 -25 -12 -53t-33.5 -52t-52.5 -39.5t-69 -15.5q-81 0 -127.5 47t-46.5 127q0 52 19 93t53 69t80.5 42.5t101.5 14.5q44 0 81 -6.5t69 -17.5t60 -24.5t55 -28.5zM742 599q-29 0 -58.5 -11.5t-52.5 -39.5l50 -13.5t53 -6.5q26 0 41 9.5t15 28.5q0 16 -13 24.5t-35 8.5z
M598 736q0 12 5 25t14 23.5t21 17.5t26 7q18 0 29 -13t11 -33q0 -12 -5 -25.5t-14 -24t-21.5 -17.5t-27.5 -7q-17 0 -27.5 13.5t-10.5 33.5zM736 736q0 12 5 25t14 23.5t21 17.5t26 7q18 0 29 -13t11 -33q0 -12 -5 -25.5t-14 -24t-21.5 -17.5t-27.5 -7q-17 0 -27.5 13.5
t-10.5 33.5z" />
    <glyph glyph-name="E.salt_grave" horiz-adv-x="767" 
d="M519 594q28 33 79 54.5t112 21.5q68 0 107.5 -26t39.5 -67q0 -27 -10.5 -46.5t-27.5 -32t-38.5 -18t-43.5 -5.5q-38 0 -71 5t-59 12q-7 -24 -7 -45q0 -16 2.5 -27t6.5 -19q4 -9 9 -16l18 5q9 2 21.5 3.5t27.5 1.5q30 0 47 -14.5t17 -36.5q0 -35 -22.5 -51.5t-54.5 -16.5
q-33 0 -57 10.5t-35 16.5q-9 -5 -24 -17t-30 -32.5t-26 -48t-11 -63.5q0 -28 9.5 -50.5t26 -38t38 -24t45.5 -8.5q38 0 72.5 20t55.5 47q8 11 13.5 17t11.5 6q14 0 14 -17q0 -8 -7 -28.5t-21.5 -46.5t-36 -53.5t-50.5 -50.5t-65.5 -38t-80.5 -15q-51 0 -93 14.5t-72 41.5
t-46.5 65.5t-16.5 87.5q0 56 23.5 102.5t58 82.5t74.5 61t73 40q-19 22 -31.5 51.5t-12.5 73.5q0 11 2.5 25.5t6.5 25.5q-23 8 -62.5 17.5t-81.5 9.5q-63 0 -96.5 -26.5t-33.5 -64.5q0 -21 13.5 -36t33.5 -15t32.5 9t22.5 25q5 8 9 12t10 4q5 0 9.5 -6t4.5 -24
q0 -25 -12 -53t-33.5 -52t-52.5 -39.5t-69 -15.5q-81 0 -127.5 47t-46.5 127q0 52 19 93t53 69t80.5 42.5t101.5 14.5q44 0 81 -6.5t69 -17.5t60 -24.5t55 -28.5zM742 599q-29 0 -58.5 -11.5t-52.5 -39.5l50 -13.5t53 -6.5q26 0 41 9.5t15 28.5q0 16 -13 24.5t-35 8.5z
M689 844q16 0 23 -19q14 -42 37 -65.5t45 -36.5q9 -5 12 -9t3 -10q0 -5 -4.5 -9.5t-12.5 -4.5q-11 0 -27 3t-33.5 9.5t-35.5 16.5t-33 23q-14 12 -18.5 20t-4.5 20q0 8 5.5 18.5t13.5 20.5t16 16.5t14 6.5z" />
    <glyph glyph-name="E.salt_ogonek" horiz-adv-x="767" 
d="M519 594q28 33 79 54.5t112 21.5q68 0 107.5 -26t39.5 -67q0 -27 -10.5 -46.5t-27.5 -32t-38.5 -18t-43.5 -5.5q-38 0 -71 5t-59 12q-7 -24 -7 -45q0 -16 2.5 -27t6.5 -19q4 -9 9 -16l18 5q9 2 21.5 3.5t27.5 1.5q30 0 47 -14.5t17 -36.5q0 -35 -22.5 -51.5t-54.5 -16.5
q-33 0 -57 10.5t-35 16.5q-9 -5 -24 -17t-30 -32.5t-26 -48t-11 -63.5q0 -28 9.5 -50.5t26 -38t38 -24t45.5 -8.5q38 0 72.5 20t55.5 47q8 11 13.5 17t11.5 6q14 0 14 -17q0 -8 -7 -27.5t-20.5 -44.5t-34 -52t-48 -50t-62 -39t-75.5 -18q-14 -9 -30 -25.5t-16 -33.5
q0 -18 23.5 -30t59.5 -12q16 0 16 -10t-14 -24q-12 -13 -31.5 -25t-39.5 -12q-13 0 -29 7t-29.5 18.5t-22.5 26.5t-9 31q0 32 18.5 54.5t42.5 37.5q-82 12 -131.5 65.5t-49.5 139.5q0 56 23.5 102.5t58 82.5t74.5 61t73 40q-19 22 -31.5 51.5t-12.5 73.5q0 11 2.5 25.5
t6.5 25.5q-23 8 -62.5 17.5t-81.5 9.5q-63 0 -96.5 -26.5t-33.5 -64.5q0 -21 13.5 -36t33.5 -15t32.5 9t22.5 25q5 8 9 12t10 4q5 0 9.5 -6t4.5 -24q0 -25 -12 -53t-33.5 -52t-52.5 -39.5t-69 -15.5q-81 0 -127.5 47t-46.5 127q0 52 19 93t53 69t80.5 42.5t101.5 14.5
q44 0 81 -6.5t69 -17.5t60 -24.5t55 -28.5zM742 599q-29 0 -58.5 -11.5t-52.5 -39.5l50 -13.5t53 -6.5q26 0 41 9.5t15 28.5q0 16 -13 24.5t-35 8.5z" />
    <glyph glyph-name="E.titl" horiz-adv-x="619" 
d="M475 89q33 0 65 14.5t53 46.5q12 20 22 20q5 0 8.5 -3t3.5 -12q0 -11 -13.5 -43t-41.5 -66.5t-70.5 -61t-100.5 -26.5q-38 0 -72.5 10t-60.5 31t-41.5 52.5t-15.5 75.5q0 49 18.5 92t46.5 77t61 58t62 37q-14 14 -30.5 37.5t-16.5 61.5q0 21 8 43q-20 4 -37.5 6t-36.5 2
q-54 0 -82.5 -22.5t-28.5 -55.5q0 -18 11.5 -30.5t28.5 -12.5t28 7.5t19 21.5q8 13 16 13q5 0 8.5 -5t3.5 -20q0 -21 -7.5 -45t-24 -44.5t-42 -33.5t-61.5 -13q-35 0 -63.5 10.5t-48.5 30t-31.5 46.5t-11.5 61q0 44 16 78.5t45 58.5t68.5 36.5t86.5 12.5q51 0 95 -13t89 -30
q35 33 83 52t105 19q56 0 88.5 -21.5t32.5 -54.5q0 -23 -10 -40t-26 -27.5t-36 -15.5t-41 -5q-36 0 -63.5 3.5t-52.5 9.5q-5 -14 -5 -33q0 -14 3 -24t7 -18q4 -9 10 -15q8 2 19 4q9 2 20 3.5t25 1.5q26 0 41.5 -14.5t15.5 -34.5q0 -29 -20.5 -45.5t-48.5 -16.5
q-29 0 -55 9.5t-36 14.5q-8 -4 -21 -16t-26.5 -32t-23 -47.5t-9.5 -61.5q0 -44 28.5 -71t70.5 -27zM600 606q-54 0 -97 -48q23 -6 43.5 -9.5t46.5 -3.5q24 0 38.5 8.5t14.5 25.5q0 13 -12.5 20t-33.5 7z" />
    <glyph glyph-name="E.titl_acute" horiz-adv-x="619" 
d="M475 89q33 0 65 14.5t53 46.5q12 20 22 20q5 0 8.5 -3t3.5 -12q0 -11 -13.5 -43t-41.5 -66.5t-70.5 -61t-100.5 -26.5q-38 0 -72.5 10t-60.5 31t-41.5 52.5t-15.5 75.5q0 49 18.5 92t46.5 77t61 58t62 37q-14 14 -30.5 37.5t-16.5 61.5q0 21 8 43q-20 4 -37.5 6t-36.5 2
q-54 0 -82.5 -22.5t-28.5 -55.5q0 -18 11.5 -30.5t28.5 -12.5t28 7.5t19 21.5q8 13 16 13q5 0 8.5 -5t3.5 -20q0 -21 -7.5 -45t-24 -44.5t-42 -33.5t-61.5 -13q-35 0 -63.5 10.5t-48.5 30t-31.5 46.5t-11.5 61q0 44 16 78.5t45 58.5t68.5 36.5t86.5 12.5q51 0 95 -13t89 -30
q35 33 83 52t105 19q56 0 88.5 -21.5t32.5 -54.5q0 -23 -10 -40t-26 -27.5t-36 -15.5t-41 -5q-36 0 -63.5 3.5t-52.5 9.5q-5 -14 -5 -33q0 -14 3 -24t7 -18q4 -9 10 -15q8 2 19 4q9 2 20 3.5t25 1.5q26 0 41.5 -14.5t15.5 -34.5q0 -29 -20.5 -45.5t-48.5 -16.5
q-29 0 -55 9.5t-36 14.5q-8 -4 -21 -16t-26.5 -32t-23 -47.5t-9.5 -61.5q0 -44 28.5 -71t70.5 -27zM600 606q-54 0 -97 -48q23 -6 43.5 -9.5t46.5 -3.5q24 0 38.5 8.5t14.5 25.5q0 13 -12.5 20t-33.5 7zM646 837q6 0 14 -6.5t16 -16.5t13.5 -20.5t5.5 -18.5q0 -12 -4.5 -20
t-18.5 -20q-15 -13 -33 -23t-35.5 -16.5t-33.5 -9.5t-27 -3q-8 0 -12.5 4.5t-4.5 9.5q0 6 3 10t12 9q22 13 45 36.5t37 65.5q7 19 23 19z" />
    <glyph glyph-name="E.titl_breve" horiz-adv-x="619" 
d="M475 89q33 0 65 14.5t53 46.5q12 20 22 20q5 0 8.5 -3t3.5 -12q0 -11 -13.5 -43t-41.5 -66.5t-70.5 -61t-100.5 -26.5q-38 0 -72.5 10t-60.5 31t-41.5 52.5t-15.5 75.5q0 49 18.5 92t46.5 77t61 58t62 37q-14 14 -30.5 37.5t-16.5 61.5q0 21 8 43q-20 4 -37.5 6t-36.5 2
q-54 0 -82.5 -22.5t-28.5 -55.5q0 -18 11.5 -30.5t28.5 -12.5t28 7.5t19 21.5q8 13 16 13q5 0 8.5 -5t3.5 -20q0 -21 -7.5 -45t-24 -44.5t-42 -33.5t-61.5 -13q-35 0 -63.5 10.5t-48.5 30t-31.5 46.5t-11.5 61q0 44 16 78.5t45 58.5t68.5 36.5t86.5 12.5q51 0 95 -13t89 -30
q35 33 83 52t105 19q56 0 88.5 -21.5t32.5 -54.5q0 -23 -10 -40t-26 -27.5t-36 -15.5t-41 -5q-36 0 -63.5 3.5t-52.5 9.5q-5 -14 -5 -33q0 -14 3 -24t7 -18q4 -9 10 -15q8 2 19 4q9 2 20 3.5t25 1.5q26 0 41.5 -14.5t15.5 -34.5q0 -29 -20.5 -45.5t-48.5 -16.5
q-29 0 -55 9.5t-36 14.5q-8 -4 -21 -16t-26.5 -32t-23 -47.5t-9.5 -61.5q0 -44 28.5 -71t70.5 -27zM600 606q-54 0 -97 -48q23 -6 43.5 -9.5t46.5 -3.5q24 0 38.5 8.5t14.5 25.5q0 13 -12.5 20t-33.5 7zM574 685q-20 0 -39 6.5t-33.5 18.5t-23.5 28.5t-9 36.5
q0 17 12.5 29.5t28.5 12.5q29 0 29 -26q0 -12 -4 -16t-4 -15q0 -12 13.5 -19.5t35.5 -7.5q31 0 44.5 12.5t13.5 29.5q0 23 10 32.5t23 9.5q16 0 25 -8t9 -21q0 -26 -17 -51q-14 -20 -40 -36t-74 -16z" />
    <glyph glyph-name="E.titl_circumflex" horiz-adv-x="619" 
d="M475 89q33 0 65 14.5t53 46.5q12 20 22 20q5 0 8.5 -3t3.5 -12q0 -11 -13.5 -43t-41.5 -66.5t-70.5 -61t-100.5 -26.5q-38 0 -72.5 10t-60.5 31t-41.5 52.5t-15.5 75.5q0 49 18.5 92t46.5 77t61 58t62 37q-14 14 -30.5 37.5t-16.5 61.5q0 21 8 43q-20 4 -37.5 6t-36.5 2
q-54 0 -82.5 -22.5t-28.5 -55.5q0 -18 11.5 -30.5t28.5 -12.5t28 7.5t19 21.5q8 13 16 13q5 0 8.5 -5t3.5 -20q0 -21 -7.5 -45t-24 -44.5t-42 -33.5t-61.5 -13q-35 0 -63.5 10.5t-48.5 30t-31.5 46.5t-11.5 61q0 44 16 78.5t45 58.5t68.5 36.5t86.5 12.5q51 0 95 -13t89 -30
q35 33 83 52t105 19q56 0 88.5 -21.5t32.5 -54.5q0 -23 -10 -40t-26 -27.5t-36 -15.5t-41 -5q-36 0 -63.5 3.5t-52.5 9.5q-5 -14 -5 -33q0 -14 3 -24t7 -18q4 -9 10 -15q8 2 19 4q9 2 20 3.5t25 1.5q26 0 41.5 -14.5t15.5 -34.5q0 -29 -20.5 -45.5t-48.5 -16.5
q-29 0 -55 9.5t-36 14.5q-8 -4 -21 -16t-26.5 -32t-23 -47.5t-9.5 -61.5q0 -44 28.5 -71t70.5 -27zM600 606q-54 0 -97 -48q23 -6 43.5 -9.5t46.5 -3.5q24 0 38.5 8.5t14.5 25.5q0 13 -12.5 20t-33.5 7zM593 737l-35 -20.5l-33.5 -19.5t-27.5 -14.5t-17 -5.5q-8 0 -12 4.5
t-4 9.5q0 12 15 23l20.5 15.5t16.5 14t17 17l23 24.5q11 13 20 22.5t28 9.5q21 0 26.5 -10t12.5 -26q11 -26 23 -39.5l24 -27.5q8 -8 12.5 -11.5t4.5 -10.5q0 -6 -4.5 -10.5t-12.5 -4.5t-32 10.5t-65 49.5z" />
    <glyph glyph-name="E.titl_dieresis" horiz-adv-x="619" 
d="M475 89q33 0 65 14.5t53 46.5q12 20 22 20q5 0 8.5 -3t3.5 -12q0 -11 -13.5 -43t-41.5 -66.5t-70.5 -61t-100.5 -26.5q-38 0 -72.5 10t-60.5 31t-41.5 52.5t-15.5 75.5q0 49 18.5 92t46.5 77t61 58t62 37q-14 14 -30.5 37.5t-16.5 61.5q0 21 8 43q-20 4 -37.5 6t-36.5 2
q-54 0 -82.5 -22.5t-28.5 -55.5q0 -18 11.5 -30.5t28.5 -12.5t28 7.5t19 21.5q8 13 16 13q5 0 8.5 -5t3.5 -20q0 -21 -7.5 -45t-24 -44.5t-42 -33.5t-61.5 -13q-35 0 -63.5 10.5t-48.5 30t-31.5 46.5t-11.5 61q0 44 16 78.5t45 58.5t68.5 36.5t86.5 12.5q51 0 95 -13t89 -30
q35 33 83 52t105 19q56 0 88.5 -21.5t32.5 -54.5q0 -23 -10 -40t-26 -27.5t-36 -15.5t-41 -5q-36 0 -63.5 3.5t-52.5 9.5q-5 -14 -5 -33q0 -14 3 -24t7 -18q4 -9 10 -15q8 2 19 4q9 2 20 3.5t25 1.5q26 0 41.5 -14.5t15.5 -34.5q0 -29 -20.5 -45.5t-48.5 -16.5
q-29 0 -55 9.5t-36 14.5q-8 -4 -21 -16t-26.5 -32t-23 -47.5t-9.5 -61.5q0 -44 28.5 -71t70.5 -27zM600 606q-54 0 -97 -48q23 -6 43.5 -9.5t46.5 -3.5q24 0 38.5 8.5t14.5 25.5q0 13 -12.5 20t-33.5 7zM479 732q0 12 5 25t14 23.5t21 17.5t26 7q18 0 29 -13t11 -33
q0 -12 -5 -25.5t-14 -24t-21.5 -17.5t-27.5 -7q-17 0 -27.5 13.5t-10.5 33.5zM617 732q0 12 5 25t14 23.5t21 17.5t26 7q18 0 29 -13t11 -33q0 -12 -5 -25.5t-14 -24t-21.5 -17.5t-27.5 -7q-17 0 -27.5 13.5t-10.5 33.5z" />
    <glyph glyph-name="E.titl_grave" horiz-adv-x="619" 
d="M475 89q33 0 65 14.5t53 46.5q12 20 22 20q5 0 8.5 -3t3.5 -12q0 -11 -13.5 -43t-41.5 -66.5t-70.5 -61t-100.5 -26.5q-38 0 -72.5 10t-60.5 31t-41.5 52.5t-15.5 75.5q0 49 18.5 92t46.5 77t61 58t62 37q-14 14 -30.5 37.5t-16.5 61.5q0 21 8 43q-20 4 -37.5 6t-36.5 2
q-54 0 -82.5 -22.5t-28.5 -55.5q0 -18 11.5 -30.5t28.5 -12.5t28 7.5t19 21.5q8 13 16 13q5 0 8.5 -5t3.5 -20q0 -21 -7.5 -45t-24 -44.5t-42 -33.5t-61.5 -13q-35 0 -63.5 10.5t-48.5 30t-31.5 46.5t-11.5 61q0 44 16 78.5t45 58.5t68.5 36.5t86.5 12.5q51 0 95 -13t89 -30
q35 33 83 52t105 19q56 0 88.5 -21.5t32.5 -54.5q0 -23 -10 -40t-26 -27.5t-36 -15.5t-41 -5q-36 0 -63.5 3.5t-52.5 9.5q-5 -14 -5 -33q0 -14 3 -24t7 -18q4 -9 10 -15q8 2 19 4q9 2 20 3.5t25 1.5q26 0 41.5 -14.5t15.5 -34.5q0 -29 -20.5 -45.5t-48.5 -16.5
q-29 0 -55 9.5t-36 14.5q-8 -4 -21 -16t-26.5 -32t-23 -47.5t-9.5 -61.5q0 -44 28.5 -71t70.5 -27zM600 606q-54 0 -97 -48q23 -6 43.5 -9.5t46.5 -3.5q24 0 38.5 8.5t14.5 25.5q0 13 -12.5 20t-33.5 7zM552 840q16 0 23 -19q14 -42 37 -65.5t45 -36.5q9 -5 12 -9t3 -10
q0 -5 -4.5 -9.5t-12.5 -4.5q-11 0 -27 3t-33.5 9.5t-35.5 16.5t-33 23q-14 12 -18.5 20t-4.5 20q0 8 5.5 18.5t13.5 20.5t16 16.5t14 6.5z" />
    <glyph glyph-name="E.titl_ogonek" horiz-adv-x="619" 
d="M475 89q33 0 65 14.5t53 46.5q12 20 22 20q5 0 8.5 -3t3.5 -12q0 -11 -12.5 -40.5t-38 -62.5t-64.5 -60.5t-91 -32.5l-1 -1q-7 -4 -16 -10.5t-16.5 -14.5t-13 -17.5t-5.5 -18.5q0 -18 23.5 -30t59.5 -12q16 0 16 -10t-14 -24q-12 -13 -31.5 -25t-39.5 -12q-13 0 -29 7
t-29.5 18.5t-22.5 26.5t-9 31q0 33 20.5 56.5t45.5 37.5q-31 5 -58 17.5t-47 33t-31.5 49t-11.5 66.5q0 49 18.5 92t46.5 77t61 58t62 37q-14 14 -30.5 37.5t-16.5 61.5q0 21 8 43q-20 4 -37.5 6t-36.5 2q-54 0 -82.5 -22.5t-28.5 -55.5q0 -18 11.5 -30.5t28.5 -12.5t28 7.5
t19 21.5q8 13 16 13q5 0 8.5 -5t3.5 -20q0 -21 -7.5 -45t-24 -44.5t-42 -33.5t-61.5 -13q-35 0 -63.5 10.5t-48.5 30t-31.5 46.5t-11.5 61q0 44 16 78.5t45 58.5t68.5 36.5t86.5 12.5q51 0 95 -13t89 -30q35 33 83 52t105 19q56 0 88.5 -21.5t32.5 -54.5q0 -23 -10 -40
t-26 -27.5t-36 -15.5t-41 -5q-36 0 -63.5 3.5t-52.5 9.5q-5 -14 -5 -33q0 -14 3 -24t7 -18q4 -9 10 -15q8 2 19 4q9 2 20 3.5t25 1.5q26 0 41.5 -14.5t15.5 -34.5q0 -29 -20.5 -45.5t-48.5 -16.5q-29 0 -55 9.5t-36 14.5q-8 -4 -21 -16t-26.5 -32t-23 -47.5t-9.5 -61.5
q0 -44 28.5 -71t70.5 -27zM600 606q-54 0 -97 -48q23 -6 43.5 -9.5t46.5 -3.5q24 0 38.5 8.5t14.5 25.5q0 13 -12.5 20t-33.5 7z" />
    <glyph glyph-name="Eacute" unicode="&#xc9;" horiz-adv-x="398" 
d="M157 216q0 -54 33 -82.5t80 -28.5q19 0 35.5 6t29.5 15t23.5 19.5t18.5 20.5q8 8 13.5 14t10.5 6q13 0 13 -11q0 -8 -8 -27q-8 -20 -23.5 -47.5t-41 -53t-61 -43t-84.5 -17.5q-42 0 -77.5 14t-62 38.5t-41.5 58.5t-15 73q0 50 16 86.5t39.5 62t49 41t43.5 23.5
q-23 23 -37.5 52t-14.5 62q0 34 16.5 64t44 52.5t63.5 35.5t74 13q66 0 102 -27t36 -79q0 -38 -18.5 -62.5t-50.5 -24.5q-20 0 -34.5 12t-14.5 32q0 15 6.5 23.5t14.5 15t14.5 13.5t6.5 18q0 25 -34 25q-20 0 -37 -10.5t-29 -28t-19 -41t-7 -50.5q0 -17 3 -28t7 -18
q4 -8 11 -13q6 2 14 4q7 2 16.5 3t23.5 1q24 0 38.5 -12.5t14.5 -32.5q0 -25 -18 -40t-47 -15q-28 0 -50 8t-31 13q-7 -5 -16.5 -17.5t-18 -30.5t-14.5 -39.5t-6 -45.5zM364 839q6 0 14 -6.5t16 -16.5t13.5 -20.5t5.5 -18.5q0 -12 -4.5 -20t-18.5 -20q-15 -13 -33 -23
t-35.5 -16.5t-33.5 -9.5t-27 -3q-8 0 -12.5 4.5t-4.5 9.5q0 6 3 10t12 9q22 13 45 36.5t37 65.5q7 19 23 19z" />
    <glyph glyph-name="Ebreve" unicode="&#x114;" horiz-adv-x="398" 
d="M157 216q0 -54 33 -82.5t80 -28.5q19 0 35.5 6t29.5 15t23.5 19.5t18.5 20.5q8 8 13.5 14t10.5 6q13 0 13 -11q0 -8 -8 -27q-8 -20 -23.5 -47.5t-41 -53t-61 -43t-84.5 -17.5q-42 0 -77.5 14t-62 38.5t-41.5 58.5t-15 73q0 50 16 86.5t39.5 62t49 41t43.5 23.5
q-23 23 -37.5 52t-14.5 62q0 34 16.5 64t44 52.5t63.5 35.5t74 13q66 0 102 -27t36 -79q0 -38 -18.5 -62.5t-50.5 -24.5q-20 0 -34.5 12t-14.5 32q0 15 6.5 23.5t14.5 15t14.5 13.5t6.5 18q0 25 -34 25q-20 0 -37 -10.5t-29 -28t-19 -41t-7 -50.5q0 -17 3 -28t7 -18
q4 -8 11 -13q6 2 14 4q7 2 16.5 3t23.5 1q24 0 38.5 -12.5t14.5 -32.5q0 -25 -18 -40t-47 -15q-28 0 -50 8t-31 13q-7 -5 -16.5 -17.5t-18 -30.5t-14.5 -39.5t-6 -45.5zM289 694q-20 0 -39 6.5t-33.5 18.5t-23.5 28.5t-9 36.5q0 17 12.5 29.5t28.5 12.5q29 0 29 -26
q0 -12 -4 -16t-4 -15q0 -12 13.5 -19.5t35.5 -7.5q31 0 44.5 12.5t13.5 29.5q0 23 10 32.5t23 9.5q16 0 25 -8t9 -21q0 -26 -17 -51q-14 -20 -40 -36t-74 -16z" />
    <glyph glyph-name="Ecircumflex" unicode="&#xca;" horiz-adv-x="398" 
d="M157 216q0 -54 33 -82.5t80 -28.5q19 0 35.5 6t29.5 15t23.5 19.5t18.5 20.5q8 8 13.5 14t10.5 6q13 0 13 -11q0 -8 -8 -27q-8 -20 -23.5 -47.5t-41 -53t-61 -43t-84.5 -17.5q-42 0 -77.5 14t-62 38.5t-41.5 58.5t-15 73q0 50 16 86.5t39.5 62t49 41t43.5 23.5
q-23 23 -37.5 52t-14.5 62q0 34 16.5 64t44 52.5t63.5 35.5t74 13q66 0 102 -27t36 -79q0 -38 -18.5 -62.5t-50.5 -24.5q-20 0 -34.5 12t-14.5 32q0 15 6.5 23.5t14.5 15t14.5 13.5t6.5 18q0 25 -34 25q-20 0 -37 -10.5t-29 -28t-19 -41t-7 -50.5q0 -17 3 -28t7 -18
q4 -8 11 -13q6 2 14 4q7 2 16.5 3t23.5 1q24 0 38.5 -12.5t14.5 -32.5q0 -25 -18 -40t-47 -15q-28 0 -50 8t-31 13q-7 -5 -16.5 -17.5t-18 -30.5t-14.5 -39.5t-6 -45.5zM309 733l-35 -20.5l-33.5 -19.5t-27.5 -14.5t-17 -5.5q-8 0 -12 4.5t-4 9.5q0 12 15 23l20.5 15.5
t16.5 14t17 17l23 24.5q11 13 20 22.5t28 9.5q21 0 26.5 -10t12.5 -26q11 -26 23 -39.5l24 -27.5q8 -8 12.5 -11.5t4.5 -10.5q0 -6 -4.5 -10.5t-12.5 -4.5t-32 10.5t-65 49.5z" />
    <glyph glyph-name="Edieresis" unicode="&#xcb;" horiz-adv-x="398" 
d="M157 216q0 -54 33 -82.5t80 -28.5q19 0 35.5 6t29.5 15t23.5 19.5t18.5 20.5q8 8 13.5 14t10.5 6q13 0 13 -11q0 -8 -8 -27q-8 -20 -23.5 -47.5t-41 -53t-61 -43t-84.5 -17.5q-42 0 -77.5 14t-62 38.5t-41.5 58.5t-15 73q0 50 16 86.5t39.5 62t49 41t43.5 23.5
q-23 23 -37.5 52t-14.5 62q0 34 16.5 64t44 52.5t63.5 35.5t74 13q66 0 102 -27t36 -79q0 -38 -18.5 -62.5t-50.5 -24.5q-20 0 -34.5 12t-14.5 32q0 15 6.5 23.5t14.5 15t14.5 13.5t6.5 18q0 25 -34 25q-20 0 -37 -10.5t-29 -28t-19 -41t-7 -50.5q0 -17 3 -28t7 -18
q4 -8 11 -13q6 2 14 4q7 2 16.5 3t23.5 1q24 0 38.5 -12.5t14.5 -32.5q0 -25 -18 -40t-47 -15q-28 0 -50 8t-31 13q-7 -5 -16.5 -17.5t-18 -30.5t-14.5 -39.5t-6 -45.5zM182 730q0 12 5 25t14 23.5t21 17.5t26 7q18 0 29 -13t11 -33q0 -12 -5 -25.5t-14 -24t-21.5 -17.5
t-27.5 -7q-17 0 -27.5 13.5t-10.5 33.5zM320 730q0 12 5 25t14 23.5t21 17.5t26 7q18 0 29 -13t11 -33q0 -12 -5 -25.5t-14 -24t-21.5 -17.5t-27.5 -7q-17 0 -27.5 13.5t-10.5 33.5z" />
    <glyph glyph-name="Egrave" unicode="&#xc8;" horiz-adv-x="398" 
d="M157 216q0 -54 33 -82.5t80 -28.5q19 0 35.5 6t29.5 15t23.5 19.5t18.5 20.5q8 8 13.5 14t10.5 6q13 0 13 -11q0 -8 -8 -27q-8 -20 -23.5 -47.5t-41 -53t-61 -43t-84.5 -17.5q-42 0 -77.5 14t-62 38.5t-41.5 58.5t-15 73q0 50 16 86.5t39.5 62t49 41t43.5 23.5
q-23 23 -37.5 52t-14.5 62q0 34 16.5 64t44 52.5t63.5 35.5t74 13q66 0 102 -27t36 -79q0 -38 -18.5 -62.5t-50.5 -24.5q-20 0 -34.5 12t-14.5 32q0 15 6.5 23.5t14.5 15t14.5 13.5t6.5 18q0 25 -34 25q-20 0 -37 -10.5t-29 -28t-19 -41t-7 -50.5q0 -17 3 -28t7 -18
q4 -8 11 -13q6 2 14 4q7 2 16.5 3t23.5 1q24 0 38.5 -12.5t14.5 -32.5q0 -25 -18 -40t-47 -15q-28 0 -50 8t-31 13q-7 -5 -16.5 -17.5t-18 -30.5t-14.5 -39.5t-6 -45.5zM282 838q16 0 23 -19q14 -42 37 -65.5t45 -36.5q9 -5 12 -9t3 -10q0 -5 -4.5 -9.5t-12.5 -4.5
q-11 0 -27 3t-33.5 9.5t-35.5 16.5t-33 23q-14 12 -18.5 20t-4.5 20q0 8 5.5 18.5t13.5 20.5t16 16.5t14 6.5z" />
    <glyph glyph-name="Eogonek" unicode="&#x118;" horiz-adv-x="398" 
d="M157 216q0 -54 33 -82.5t80 -28.5q19 0 35.5 6t29.5 15t23.5 19.5t18.5 20.5q8 8 13.5 14t10.5 6q13 0 13 -11q0 -8 -8 -27q-8 -20 -23.5 -47.5t-41 -53t-61 -43t-84.5 -17.5h-9q-7 -4 -15.5 -10.5t-15.5 -14t-11.5 -16.5t-4.5 -18q0 -18 23.5 -30t59.5 -12q16 0 16 -10
t-14 -24q-12 -13 -31.5 -25t-39.5 -12q-13 0 -29 7t-29.5 18.5t-22.5 26.5t-9 31q0 17 6.5 32t16.5 27t22.5 22t25.5 17q-60 17 -97.5 64t-37.5 111q0 50 16 86.5t39.5 62t49 41t43.5 23.5q-23 23 -37.5 52t-14.5 62q0 34 16.5 64t44 52.5t63.5 35.5t74 13q66 0 102 -27
t36 -79q0 -38 -18.5 -62.5t-50.5 -24.5q-20 0 -34.5 12t-14.5 32q0 15 6.5 23.5t14.5 15t14.5 13.5t6.5 18q0 25 -34 25q-20 0 -37 -10.5t-29 -28t-19 -41t-7 -50.5q0 -17 3 -28t7 -18q4 -8 11 -13q6 2 14 4q7 2 16.5 3t23.5 1q24 0 38.5 -12.5t14.5 -32.5q0 -25 -18 -40
t-47 -15q-28 0 -50 8t-31 13q-7 -5 -16.5 -17.5t-18 -30.5t-14.5 -39.5t-6 -45.5z" />
    <glyph glyph-name="Euro" unicode="&#x20ac;" horiz-adv-x="523" 
d="M246 342q-3 -16 -5 -31.5t-3 -30.5h103q11 0 14.5 -3t3.5 -11q0 -5 -3 -14.5t-8 -19.5t-11.5 -17t-12.5 -7h-84q9 -54 38 -78.5t68 -24.5t62.5 20t39.5 41q15 20 24 20q11 0 11 -14q0 -11 -11.5 -41.5t-37 -62.5t-67 -56.5t-100.5 -24.5q-40 0 -74.5 14.5t-60.5 42.5
t-42 69t-19 95h-42q-15 0 -15 16q0 5 2.5 14.5t7 18.5t10.5 16t12 7h27q2 16 4.5 31.5t5.5 30.5h-34q-15 0 -15 16q0 5 2.5 14.5t7 18.5t10.5 16t12 7h37q21 56 53 102t71 78.5t83 50.5t90 18q62 0 97 -32.5t35 -83.5q0 -42 -19 -69.5t-48 -27.5q-20 0 -34.5 12t-14.5 33
q0 17 6.5 27t15 17.5t15 15t6.5 18.5q0 13 -8 21t-25 8q-16 0 -34 -8t-43 -31q-23 -22 -45.5 -61.5t-38.5 -87.5h96q11 0 14.5 -3t3.5 -11q0 -5 -3 -14.5t-8 -19.5t-11.5 -17t-12.5 -7h-98z" />
    <glyph glyph-name="F" unicode="F" horiz-adv-x="485" 
d="M171 -12q-37 0 -68 10.5t-54 30t-36 46.5t-13 61q0 35 13.5 62.5t34.5 46t47 28t52 9.5q23 0 31 -4t8 -10q0 -11 -13 -14q-17 -5 -32.5 -22.5t-15.5 -40.5q0 -26 17 -42.5t44 -16.5q29 0 49.5 16.5t34.5 44t23 63t16 72.5h-43q-13 0 -13 13q0 11 9.5 25.5t17.5 14.5h38
l12 63t14 57q9 29 23.5 47.5t31.5 28.5q-27 10 -51 14t-61 4q-43 0 -70 -22.5t-27 -50.5q0 -22 11.5 -33t30.5 -11q12 0 18.5 5t12.5 5q10 0 10 -11q0 -14 -8.5 -31.5t-24 -33t-37.5 -26t-48 -10.5q-23 0 -44 8.5t-36.5 23.5t-24.5 36.5t-9 47.5q0 40 18 72t48 54t69.5 33.5
t81.5 11.5q67 0 109.5 -8.5t68.5 -8.5q24 0 40.5 8.5t25.5 8.5q18 0 18 -17q0 -8 -10.5 -21t-31.5 -47t-31 -85.5t-18 -111.5h45q9 0 9 -10q0 -12 -9.5 -27.5t-20.5 -15.5h-31q-8 -61 -21 -122t-40 -109.5t-72.5 -78.5t-117.5 -30z" />
    <glyph glyph-name="F.salt" horiz-adv-x="704" 
d="M563 566q-23 12 -61.5 20t-72.5 8q-30 0 -59.5 -5t-52 -17t-36.5 -31t-14 -47q0 -30 18 -45.5t44 -15.5q23 0 38 12t26 29q5 8 9 12.5t10 4.5q5 0 9 -5.5t4 -25.5q0 -29 -9.5 -60.5t-30.5 -57.5t-54 -43t-79 -17q-39 0 -71 12.5t-54 34.5t-34 51t-12 61q0 60 26 101.5
t68.5 68t96.5 38.5t111 12q55 0 107 -10.5t94 -29.5q12 25 35.5 43.5t50.5 18.5q23 0 36 -13t13 -31q0 -32 -21 -52t-50 -28q-8 -8 -13 -23t-10 -35q-3 -13 -7 -36t-8 -49.5l-8 -53.5t-6 -48q15 0 28 6.5t13 23.5q0 13 9 13q4 0 13 -4t17 -11.5t14.5 -20t6.5 -28.5
q0 -31 -19.5 -47.5t-54.5 -16.5q-9 0 -19.5 1t-19.5 3q-4 -44 -13.5 -93t-26 -97t-42.5 -92t-63 -77.5t-87 -53.5t-114 -20q-52 0 -95.5 15t-75 43t-49.5 68t-18 91q0 55 22 96.5t56 69t75.5 41.5t80.5 14q29 0 43 -7.5t14 -15.5q0 -12 -14 -16q-33 -10 -59.5 -33.5
t-26.5 -63.5q0 -38 25.5 -57t67.5 -19t71 17t50.5 48t36.5 74.5t29 95.5q-5 1 -9.5 1.5t-9.5 0.5q-14 0 -22 -3.5t-13 -7.5l-9 -7.5t-9 -3.5q-12 0 -12 15q0 7 6 19.5t16.5 23.5t25.5 19.5t33 8.5h9.5t9.5 -1q4 19 10 44.5l12 51.5l11.5 48.5t10.5 34.5q14 40 32 61z" />
    <glyph glyph-name="F.titl" horiz-adv-x="564" 
d="M242 93q32 0 55 20t39 51.5t27 70.5t19 76q-10 2 -17 2q-14 0 -22 -3.5t-13 -7.5l-9 -7.5t-9 -3.5q-12 0 -12 15q0 7 6 19.5t16.5 23.5t25.5 19.5t33 8.5h9.5t9.5 -1q11 57 26 106.5t40 84.5q-55 20 -139 20q-52 0 -83.5 -22t-31.5 -58q0 -22 14.5 -35.5t31.5 -13.5t27 8
t19 21q9 14 16 14q5 0 8.5 -5t3.5 -21q0 -23 -8 -48t-24.5 -45.5t-43 -33.5t-62.5 -13q-31 0 -58 11t-46.5 30.5t-30.5 47t-11 60.5q0 43 17 76.5t47 56.5t71.5 35t91.5 12q65 0 114.5 -11t97.5 -34q20 25 46 43t52 18q29 0 44 -12t15 -33q0 -14 -4.5 -28t-14.5 -25
t-25.5 -18t-37.5 -7h-9.5t-9.5 1q-6 -9 -11 -29.5t-9.5 -46.5t-8 -57t-6.5 -61q15 0 28.5 6.5t13.5 23.5q0 13 9 13q4 0 13 -4t17 -11.5t14.5 -20t6.5 -28.5q0 -31 -19.5 -47.5t-54.5 -16.5q-9 0 -19.5 1.5t-18.5 4.5q-4 -38 -11.5 -80.5t-21.5 -83.5t-35.5 -78.5t-53 -65.5
t-74 -45t-97.5 -17q-44 0 -81 12t-65 34.5t-43.5 55.5t-15.5 75t17 75t44 55.5t61.5 34.5t69.5 12q26 0 38.5 -6.5t12.5 -12.5q0 -9 -14 -10q-25 -4 -43 -24t-18 -53q0 -31 19.5 -50.5t54.5 -19.5z" />
    <glyph glyph-name="G" unicode="G" horiz-adv-x="519" 
d="M310 563q-23 -21 -42.5 -52.5t-33.5 -69.5t-22 -81t-8 -86q0 -56 22 -82t54 -26q26 0 43.5 13.5t28.5 33.5t17 43.5t10 43.5q1 7 10 15t22.5 15t29.5 11.5t30 4.5q17 0 17 -15q0 -9 -6 -19t-11 -33q-3 -12 -5.5 -29l-5 -35t-4.5 -35t-3 -28q-5 -101 -22 -187t-50 -148
t-84.5 -97t-126.5 -35q-37 0 -69.5 11.5t-57 32t-39 49t-14.5 62.5q0 39 14.5 68.5t38 48.5t52 28.5t56.5 9.5q37 0 37 -15q0 -9 -13 -16q-16 -9 -29.5 -25.5t-13.5 -37.5q0 -27 16 -44.5t53 -17.5q32 0 58.5 23.5t46.5 65t33.5 97t19.5 119.5q-9 -15 -22.5 -32t-33 -32
t-45 -25t-59.5 -10q-33 0 -63 12.5t-52.5 36.5t-36 58.5t-13.5 78.5q0 87 29.5 165.5t76.5 138t105 94t116 34.5q63 0 97.5 -32.5t34.5 -83.5q0 -42 -18 -70t-47 -28q-20 0 -34 12t-14 32q0 17 6 27.5t13.5 18.5l14 15.5t6.5 18.5q0 26 -32 26q-17 0 -34.5 -7t-43.5 -29z
" />
    <glyph glyph-name="G.01" horiz-adv-x="517" 
d="M359 144q-9 -15 -22.5 -32t-33 -32t-45 -25t-59.5 -10q-33 0 -63 12.5t-52.5 36.5t-36 58.5t-13.5 78.5q0 87 29.5 165.5t76.5 138t105 94t116 34.5q63 0 97.5 -32.5t34.5 -83.5q0 -42 -18 -70t-47 -28q-20 0 -34 12t-14 32q0 17 6 27.5t13.5 18.5l14 15.5t6.5 18.5
q0 26 -32 26q-17 0 -34.5 -7t-43.5 -29q-24 -21 -43.5 -52t-33.5 -69.5t-21.5 -81.5t-7.5 -86q0 -56 22 -82t54 -26q26 0 43.5 13.5t28.5 33.5t17 43.5t10 43.5q1 7 10 15t22.5 15t29.5 11.5t30 4.5q17 0 17 -15q0 -9 -6 -19t-11 -33q-3 -12 -5.5 -29l-5 -35l-5 -35
t-3.5 -28l-17.5 -132t-26.5 -145t-44 -141.5t-68.5 -122t-99.5 -85.5t-138 -32q-56 0 -101.5 18.5t-78.5 49.5t-51 72t-18 86q0 53 21 94.5t54.5 70.5t74.5 44.5t81 15.5q23 0 28.5 -5t5.5 -10q0 -7 -15 -14q-22 -13 -31 -33.5t-9 -43.5q0 -38 24.5 -63t78.5 -25q53 0 92 32
t67.5 86t47 125t30.5 150z" />
    <glyph glyph-name="G.02" horiz-adv-x="851" 
d="M787 587q-40 0 -69.5 -17.5t-61.5 -48.5q26 -6 55 -11t60 -5q26 0 43.5 13.5t17.5 33.5t-12.5 27.5t-32.5 7.5zM763 -90q62 -9 122.5 -21t121 -22.5t122 -17.5t124.5 -7q42 0 73 8t52 20t34.5 25t21.5 24q10 14 15 18.5t12 4.5q15 0 15 -21q0 -19 -3.5 -47t-12.5 -59.5
t-25 -63t-41.5 -56.5t-60.5 -41t-83 -16q-69 0 -131 22.5t-121.5 54l-119.5 66t-125 58.5q-15 -59 -37.5 -114.5t-57.5 -98t-84 -68t-116 -25.5q-42 0 -77 11.5t-60.5 34t-39.5 55t-14 73.5q0 56 27 97t69.5 68t95 40.5t102.5 13.5q46 0 90 -3q11 41 16.5 84.5t8.5 75.5
q-19 -25 -45 -44q-23 -17 -55.5 -30.5t-74.5 -13.5q-44 0 -78 15.5t-58 42t-36.5 62.5t-12.5 77q0 52 17.5 103t43 95.5t54 80t51.5 56.5q-11 4 -30 9.5t-40 10.5t-41 9t-35 4q-63 0 -96.5 -26.5t-33.5 -64.5q0 -21 13.5 -36t33.5 -15t32.5 9t22.5 25q5 8 9 12t10 4
q5 0 9.5 -6t4.5 -24q0 -25 -9 -53t-28 -52t-49.5 -39.5t-72.5 -15.5q-41 0 -74.5 12.5t-57.5 35t-37 54.5t-13 72q0 52 19 93t53 69t80.5 42.5t101.5 14.5q44 0 84.5 -9t76.5 -23t67 -30l58 -31q49 35 110 60t130 25q59 0 91 -27.5t32 -74.5q0 -27 -10.5 -49t-29 -37.5
t-43.5 -24.5t-53 -9q-41 0 -77 7.5t-78 21.5q-15 -20 -30 -42.5t-27 -48.5t-19.5 -56t-7.5 -65q0 -64 23.5 -93.5t61.5 -29.5q21 0 35 9.5t24 25t16.5 34t11.5 36.5q2 8 11 17.5t23.5 18t33 14t39.5 5.5q19 0 19 -16q0 -9 -8.5 -23t-19 -38t-19 -61t-8.5 -92
q0 -40 -1.5 -78.5t-6.5 -76.5zM492 -282q25 0 46.5 12.5t39.5 33.5t32 48.5t25 57.5q-15 2 -30.5 3t-31.5 1q-71 0 -110.5 -25.5t-39.5 -67.5q0 -30 21 -46.5t48 -16.5z" />
    <glyph glyph-name="G.03" horiz-adv-x="781" 
d="M700 598q-35 0 -59.5 -15.5t-52.5 -41.5q31 -8 53 -12t48 -4q20 0 37 11t17 30q0 17 -12 24.5t-31 7.5zM588 86q-18 -17 -39 -29q-19 -11 -44 -20t-56 -9q-44 0 -75.5 13.5t-51.5 38t-29.5 58t-9.5 73.5q0 47 13 94t33 89.5t44.5 77t47.5 55.5q-13 3 -30 5.5t-36 4.5
t-37 3t-32 1q-54 0 -82.5 -22.5t-28.5 -55.5q0 -18 11.5 -30.5t28.5 -12.5t28 7.5t19 21.5q8 13 16 13q5 0 8.5 -5t3.5 -20q0 -21 -7.5 -45t-24 -44.5t-42 -33.5t-61.5 -13q-35 0 -63.5 10.5t-48.5 30t-31.5 46.5t-11.5 61q0 44 16 78.5t45 58.5t68.5 36.5t86.5 12.5
q79 0 141.5 -17.5t122.5 -39.5q54 40 105 62.5t110 22.5q44 0 74.5 -22t30.5 -63q0 -46 -31 -74.5t-81 -28.5q-36 0 -70 5.5t-69 15.5q-15 -20 -28.5 -46t-24.5 -55.5t-17.5 -61.5t-6.5 -63q0 -57 20.5 -83t55.5 -26q18 0 31 8.5t21.5 22t14 30l10.5 32.5q2 7 13 15.5t27 16
t35 12.5t38 5q17 0 17 -14q0 -9 -7 -19l-18 -27q-14 -22 -23 -65t-15 -92l-13.5 -112.5t-21.5 -128.5l98 -42.5t95.5 -39.5t89 -29t79.5 -11q45 0 71 20.5t26 65.5q0 24 -6 38t-13.5 22.5t-13.5 14.5t-6 15q0 16 21 16q36 0 77 -12t76 -36.5t58.5 -61.5t23.5 -87
t-15.5 -89.5t-43.5 -67.5t-68.5 -43t-89.5 -15q-68 0 -131.5 23t-124 58t-117.5 78l-111 82q-16 -50 -38.5 -94t-55 -77t-75.5 -52t-99 -19q-45 0 -82.5 13.5t-64 38t-41.5 59t-15 75.5q0 47 20.5 84t54.5 63t78.5 40t91.5 14q38 0 72.5 -3.5t66.5 -9.5q7 26 14 57.5
t13 61.5t10 54.5zM391 -323q22 0 41.5 10.5t35.5 28t29.5 41t24.5 49.5q-49 20 -98 20q-55 0 -81.5 -25.5t-26.5 -56.5q0 -32 20 -49.5t55 -17.5z" />
    <glyph glyph-name="G.04" horiz-adv-x="844" 
d="M787 587q-40 0 -69.5 -17.5t-61.5 -48.5q26 -6 55 -11t60 -5q26 0 43.5 13.5t17.5 33.5t-12.5 27.5t-32.5 7.5zM804 203l-8 -47.5t-10.5 -66l-11.5 -76l-12 -77.5l-11.5 -71.5t-10.5 -56.5q100 -18 194 -48.5l182 -60.5t170 -52t159 -22q43 0 72 10.5t47 27t25.5 37
t7.5 41.5q0 15 -3 24t-6.5 15t-6.5 10t-3 8q0 14 14 14q27 0 58.5 -15.5t57.5 -42.5t43.5 -63.5t17.5 -78.5q0 -118 -67.5 -181t-191.5 -63q-62 0 -125.5 19.5t-129 50t-132 69.5l-133 77.5t-133.5 73.5t-133 59q-17 -91 -42 -165.5t-65 -128t-99.5 -82.5t-144.5 -29
q-50 0 -92 16.5t-72 45t-47 66t-17 78.5q0 80 36.5 137.5t96 95t136 55t156.5 17.5q14 0 28.5 -0.5t28.5 -1.5q5 19 12 52.5t14 71.5l13.5 75t9.5 63q-19 -25 -45 -44q-23 -17 -55.5 -30.5t-74.5 -13.5q-44 0 -78 15.5t-58 42t-36.5 62.5t-12.5 77q0 52 17.5 103t43 95.5
t54 80t51.5 56.5q-11 4 -30 9.5t-40 10.5t-41 9t-35 4q-63 0 -96.5 -26.5t-33.5 -64.5q0 -21 13.5 -36t33.5 -15t32.5 9t22.5 25q5 8 9 12t10 4q5 0 9.5 -6t4.5 -24q0 -25 -9 -53t-28 -52t-49.5 -39.5t-72.5 -15.5q-41 0 -74.5 12.5t-57.5 35t-37 54.5t-13 72q0 52 19 93
t53 69t80.5 42.5t101.5 14.5q44 0 84.5 -9t76.5 -23t67 -30l58 -31q49 35 110 60t130 25q59 0 91 -27.5t32 -74.5q0 -27 -10.5 -49t-29 -37.5t-43.5 -24.5t-53 -9q-41 0 -77 7.5t-78 21.5q-15 -20 -30 -42.5t-27 -48.5t-19.5 -56t-7.5 -65q0 -64 23.5 -93.5t61.5 -29.5
q21 0 35 9.5t24 25t16.5 34t11.5 36.5q2 8 11 17.5t23.5 18t33 14t39.5 5.5q19 0 19 -16q0 -7 -2 -13t-5.5 -13.5t-7.5 -19t-7 -30.5zM406 -496q68 0 119.5 60.5t84.5 182.5q-21 3 -41.5 5t-40.5 2q-44 0 -82 -12.5t-66.5 -34.5t-45 -51.5t-16.5 -63.5q0 -39 23 -63.5
t65 -24.5z" />
    <glyph glyph-name="G.05" horiz-adv-x="843" 
d="M787 587q-40 0 -69.5 -17.5t-61.5 -48.5q26 -6 55 -11t60 -5q26 0 43.5 13.5t17.5 33.5t-12.5 27.5t-32.5 7.5zM802 200q-4 -18 -11 -55l-14.5 -78.5l-14.5 -80.5t-10 -60q78 -9 150 -33t127 -64t88 -97t33 -132q0 -58 -18 -105t-49.5 -80t-74 -50.5t-91.5 -17.5
q-53 0 -92.5 16.5t-66 44t-39.5 64t-13 76.5q0 23 5.5 30t10.5 7t8.5 -4t8.5 -11q14 -22 38.5 -32.5t47.5 -10.5q19 0 36.5 9t31 26t22 42.5t8.5 57.5q0 69 -45 123t-137 74q-13 -70 -33.5 -135.5t-55.5 -116.5t-86.5 -81.5t-126.5 -30.5q-38 0 -70.5 13t-56.5 36t-38 54.5
t-14 68.5q0 58 33.5 105.5t87 82t121 54.5t136.5 22q3 14 6.5 32l7.5 37l7.5 37t6.5 32q-16 -21 -40 -37q-20 -14 -51.5 -25.5t-73.5 -11.5q-44 0 -78 15.5t-58 42t-36.5 62.5t-12.5 77q0 52 17.5 103t43 95.5t54 80t51.5 56.5q-11 4 -30 9.5t-40 10.5t-41 9t-35 4
q-63 0 -96.5 -26.5t-33.5 -64.5q0 -21 13.5 -36t33.5 -15t32.5 9t22.5 25q5 8 9 12t10 4q5 0 9.5 -6t4.5 -24q0 -25 -9 -53t-28 -52t-49.5 -39.5t-72.5 -15.5q-41 0 -74.5 12.5t-57.5 35t-37 54.5t-13 72q0 52 19 93t53 69t80.5 42.5t101.5 14.5q44 0 84.5 -9t76.5 -23
t67 -30l58 -31q49 35 110 60t130 25q59 0 91 -27.5t32 -74.5q0 -27 -10.5 -49t-29 -37.5t-43.5 -24.5t-53 -9q-41 0 -77 7.5t-78 21.5q-15 -20 -30 -42.5t-27 -48.5t-19.5 -56t-7.5 -65q0 -64 23.5 -93.5t61.5 -29.5q21 0 35 9.5t24 25t16.5 34t11.5 36.5q2 8 11 17.5
t23.5 18t33 14t39.5 5.5q19 0 19 -16q0 -9 -2 -15t-5 -13.5l-7.5 -19t-9.5 -31.5zM471 -319q27 0 49.5 15.5t41.5 41.5t34 60t26 70q-51 -3 -89.5 -17t-65 -33t-40 -42t-13.5 -44t14 -36t43 -15z" />
    <glyph glyph-name="G.06" horiz-adv-x="758" 
d="M271 -427q96 0 178.5 -29.5t155.5 -78t137.5 -110.5t124 -126.5l115.5 -126.5t111.5 -110.5t113.5 -78t120 -29.5q35 0 58 9t42 22q-68 26 -134.5 70t-132.5 98.5l-133 115l-135 120t-139 113.5t-145.5 95t-153 65.5t-163.5 24.5q-21 0 -44.5 -6t-45.5 -16.5t-40.5 -25.5
t-29.5 -34q19 11 53 24.5t87 13.5zM355 -303q104 0 202.5 -23t192 -60.5t183 -85.5l175 -97.5l167.5 -97.5t161.5 -85.5t156.5 -60.5t153 -23q34 0 59 9t42.5 24t27.5 33.5t16 37.5q-29 -3 -57 -3q-116 0 -227.5 35t-221.5 88t-221 114.5t-225 114.5t-232.5 88t-245.5 35
q-62 0 -110.5 -9t-84 -22.5t-59.5 -29.5t-36 -29q12 6 32.5 14t45 15.5t52 12.5t54.5 5zM239 -563q35 0 65.5 12.5t56.5 33.5q-24 14 -44.5 21t-47.5 7q-42 0 -73.5 -14.5t-45.5 -25.5q15 -13 37.5 -23.5t51.5 -10.5zM697 587q-40 0 -69.5 -17.5t-61.5 -48.5q26 -6 55 -11
t60 -5q26 0 43.5 13.5t17.5 33.5t-12.5 27.5t-32.5 7.5zM702 164q-5 -26 -11.5 -68.5l-13.5 -91.5t-13.5 -100.5l-11.5 -94.5q175 -17 339 -52.5t314 -72.5t284.5 -64.5t251.5 -27.5q67 0 116 13.5t81 38.5t48 59.5t16 75.5q0 17 -5 30t-11 23t-11 17t-5 13q0 8 5.5 13
t12.5 5q9 0 32 -13.5t47 -45t42.5 -82.5t18.5 -126q0 -63 -20.5 -118t-58 -99t-91 -75t-119.5 -45q11 -24 22.5 -55t11.5 -73q0 -65 -22 -121t-61.5 -96.5t-94.5 -63.5t-122 -23q-49 0 -97.5 12.5t-99.5 34.5q-9 -38 -27.5 -82.5t-50 -82.5t-79 -63.5t-114.5 -25.5
q-81 0 -152 39t-134.5 103t-121.5 145.5l-112.5 165.5l-107 163.5t-106.5 140.5q-20 -20 -43.5 -39t-51 -33.5t-59.5 -23.5t-71 -9q-61 0 -107.5 17t-78 46t-47.5 68.5t-16 83.5q0 55 21 100.5t58 81t88 62t110.5 44t125.5 26t133 8.5l15 76.5l15.5 75l13.5 63.5l9 42
q-19 -25 -45 -44q-23 -17 -55.5 -30.5t-74.5 -13.5q-44 0 -78 15.5t-58 42t-36.5 62.5t-12.5 77q0 52 17.5 103t43 95.5t54 80t51.5 56.5q-11 4 -30 9.5t-40 10.5t-41 9t-35 4q-63 0 -96.5 -26.5t-33.5 -64.5q0 -21 13.5 -36t33.5 -15t32.5 9t22.5 25q5 8 9 12t10 4
q5 0 9.5 -6t4.5 -24q0 -25 -9 -53t-28 -52t-49.5 -39.5t-72.5 -15.5q-41 0 -74.5 12.5t-57.5 35t-37 54.5t-13 72q0 52 19 93t53 69t80.5 42.5t101.5 14.5q44 0 84.5 -9t76.5 -23t67 -30l58 -31q49 35 110 60t130 25q59 0 91 -27.5t32 -74.5q0 -27 -10.5 -49t-29 -37.5
t-43.5 -24.5t-53 -9q-41 0 -77 7.5t-78 21.5q-15 -20 -30 -42.5t-27 -48.5t-19.5 -56t-7.5 -65q0 -64 23.5 -93.5t61.5 -29.5q21 0 35 9.5t24 25t16.5 34t11.5 36.5q2 8 11 17.5t23.5 18t33 14t39.5 5.5q19 0 19 -16q0 -9 -3 -18t-8 -21t-11 -30t-12 -46z" />
    <glyph glyph-name="G.salt" horiz-adv-x="838" 
d="M787 587q-40 0 -69.5 -17.5t-61.5 -48.5q26 -6 55 -11t60 -5q26 0 43.5 13.5t17.5 33.5t-12.5 27.5t-32.5 7.5zM612 470q-15 -20 -30 -42.5t-27 -48.5t-19.5 -56t-7.5 -65q0 -64 23.5 -93.5t61.5 -29.5q21 0 35 9.5t24 25t16.5 34t11.5 36.5q2 8 11 17.5t23.5 18t33 14
t39.5 5.5q19 0 19 -16q0 -9 -8.5 -23t-19 -38t-19 -61t-8.5 -92q0 -99 -14 -191.5t-48.5 -164t-93.5 -114.5t-150 -43q-49 0 -89.5 15t-70 41t-46 61.5t-16.5 76.5t16.5 77t44.5 63t65 42.5t77 15.5q41 0 57 -7.5t16 -16.5q0 -11 -14 -16q-19 -6 -34 -20t-15 -43
q0 -26 16.5 -46.5t52.5 -20.5q42 0 69.5 33.5t44.5 81.5t25.5 101t11.5 93q-19 -25 -45 -44q-23 -17 -55.5 -30.5t-74.5 -13.5q-44 0 -78 15.5t-58 42t-36.5 62.5t-12.5 77q0 52 17.5 103t43 95.5t54 80t51.5 56.5q-11 4 -30 9.5t-40 10.5t-41 9t-35 4q-63 0 -96.5 -26.5
t-33.5 -64.5q0 -21 13.5 -36t33.5 -15t32.5 9t22.5 25q5 8 9 12t10 4q5 0 9.5 -6t4.5 -24q0 -25 -9 -53t-28 -52t-49.5 -39.5t-72.5 -15.5q-41 0 -74.5 12.5t-57.5 35t-37 54.5t-13 72q0 52 19 93t53 69t80.5 42.5t101.5 14.5q44 0 84.5 -9t76.5 -23t67 -30l58 -31
q49 35 110 60t130 25q59 0 91 -27.5t32 -74.5q0 -27 -10.5 -49t-29 -37.5t-43.5 -24.5t-53 -9q-41 0 -77 7.5t-78 21.5z" />
    <glyph glyph-name="G.titl" horiz-adv-x="769" 
d="M700 598q-35 0 -59.5 -15.5t-52.5 -41.5q31 -8 53 -12t48 -4q20 0 37 11t17 30q0 17 -12 24.5t-31 7.5zM286 541q-54 0 -82.5 -22.5t-28.5 -55.5q0 -18 11.5 -30.5t28.5 -12.5t28 7.5t19 21.5q8 13 16 13q5 0 8.5 -5t3.5 -20q0 -21 -7.5 -45t-24 -44.5t-42 -33.5
t-61.5 -13q-35 0 -63.5 10.5t-48.5 30t-31.5 46.5t-11.5 61q0 44 16 78.5t45 58.5t68.5 36.5t86.5 12.5q79 0 141.5 -17.5t122.5 -39.5q54 40 105 62.5t110 22.5q44 0 74.5 -22t30.5 -63q0 -46 -31 -74.5t-81 -28.5q-36 0 -70 5.5t-69 15.5q-15 -20 -28.5 -46t-24.5 -55.5
t-17.5 -61.5t-6.5 -63q0 -57 20.5 -83t55.5 -26q18 0 31 8.5t21.5 22t14 30l10.5 32.5q2 7 13 15.5t27 16t35 12.5t38 5q17 0 17 -14q0 -9 -7 -19l-18 -27q-14 -22 -28 -57t-14 -88q0 -88 -14 -166.5t-47 -137.5t-87.5 -93.5t-135.5 -34.5q-38 0 -71 11t-57 31t-38 49.5
t-14 65.5t14 67t38 53.5t55.5 35t67.5 12.5t50.5 -7t14.5 -15q0 -10 -12 -14q-17 -7 -30.5 -18.5t-13.5 -37.5q0 -23 14.5 -41.5t46.5 -18.5q37 0 62 29.5t40 72.5t22.5 90.5t10.5 82.5q-22 -25 -47 -43q-22 -17 -49.5 -30t-58.5 -13q-44 0 -75.5 13.5t-51.5 38t-29.5 58
t-9.5 73.5q0 47 13 94t33 89.5t44.5 77t47.5 55.5q-13 3 -30 5.5t-36 4.5t-37 3t-32 1z" />
    <glyph glyph-name="H" unicode="H" horiz-adv-x="751" 
d="M665 132q0 -26 8 -41t25 -15q13 0 20.5 5.5t17.5 15.5t17 10t10.5 -4.5t3.5 -9.5q0 -8 -4 -15t-12 -17t-20 -21.5t-28 -21.5t-35.5 -16.5t-43.5 -6.5q-50 0 -73.5 30.5t-23.5 80.5q0 33 8 84.5t21 108.5q-29 0 -62.5 -7t-55.5 -29q-11 -11 -23.5 -42.5t-23 -69.5
t-17 -74.5t-6.5 -58.5q0 -13 -5 -17t-16 -4q-12 0 -27.5 -1l-31.5 -2t-29 -2t-19 -1q-20 0 -20 23q0 21 9.5 59.5t23.5 87.5l30.5 104t30.5 109t23.5 103.5t9.5 87.5q0 22 -12 32t-32 10q-29 0 -56.5 -17.5t-49 -45t-34.5 -60.5t-13 -63q0 -25 12 -36.5t28 -11.5
q10 0 18.5 4t13.5 4q10 0 10 -11t-9.5 -28.5t-26.5 -34t-40.5 -28t-50.5 -11.5q-45 0 -75 30.5t-30 83.5q0 64 29.5 115.5t76 88.5t104.5 57t116 20q72 0 112.5 -31t40.5 -93q0 -34 -10 -82.5t-24 -104.5h124q8 35 16.5 68l16.5 61.5l14.5 50.5t11.5 36q6 19 25 34t41.5 25
t44.5 15t33 5q20 0 20 -16q0 -8 -12.5 -25.5t-21.5 -41.5q-8 -21 -18 -57t-20.5 -78.5t-20.5 -88t-17.5 -86.5t-12 -73.5t-4.5 -48.5z" />
    <glyph glyph-name="H.01" horiz-adv-x="921" 
d="M883 294q-11 -63 -21.5 -144t-10.5 -162q0 -117 44 -178t125 -61q48 0 90.5 14t81 35t73.5 46t69 46t67.5 35t69.5 14q49 0 83 -20.5t54 -51.5t29 -67.5t9 -68.5q0 -14 -1.5 -29t-6.5 -29q-5 -15 -15 -15q-8 0 -11 5t-7 14q-17 42 -63.5 72t-121.5 30q-44 0 -93 -15.5
l-105 -33.5t-119.5 -33.5t-136.5 -15.5q-52 0 -97.5 18t-79.5 52t-54 81.5t-20 106.5q0 61 4 112t10 91.5t12.5 71.5l11.5 54q-15 0 -38.5 -3.5t-47 -12t-42.5 -22t-26 -33.5l-34.5 -96.5t-39 -92.5t-48.5 -82t-62 -66t-80.5 -44t-104.5 -16q-52 0 -94.5 16t-72.5 44.5
t-46.5 68.5t-16.5 88q0 55 22 96.5t56 69t75.5 41.5t80.5 14q29 0 43 -7.5t14 -15.5q0 -12 -14 -16q-33 -10 -59.5 -33.5t-26.5 -63.5q0 -76 85 -76q51 0 87.5 29t63.5 75.5t47 105.5t37.5 119t36 115.5t41.5 95.5q-23 12 -59 20t-75 8q-30 0 -59.5 -5t-52 -17t-36.5 -31
t-14 -47q0 -30 18 -45.5t44 -15.5q23 0 38 12t26 29q5 8 9 12.5t10 4.5q5 0 9 -5.5t4 -25.5q0 -29 -9.5 -60.5t-30.5 -57.5t-54 -43t-79 -17q-39 0 -71 12.5t-54 34.5t-34 51t-12 61q0 60 26 101.5t68.5 68t96.5 38.5t111 12q55 0 111 -10t98 -29q16 23 43 41t54 18
q25 0 40 -15t15 -35q0 -32 -21.5 -54.5t-57.5 -25.5q-10 -12 -19 -35.5t-17 -53.5t-16 -65t-15 -71q12 2 31.5 3.5l40.5 3t40 3t30 1.5l25.5 76.5t28 70t36 64t48.5 59.5q24 25 57 40.5t71 15.5q30 0 52 -14t22 -40q0 -30 -16 -46t-39 -16q-13 0 -21 4t-14.5 9l-11.5 9
t-12 4q-18 0 -34.5 -28.5t-31 -70.5t-25.5 -91t-18 -89z" />
    <glyph glyph-name="H.salt" horiz-adv-x="938" 
d="M725 34q0 21 2.5 50.5t6.5 61.5t9 63.5t10 58.5q-15 0 -38 -3.5t-46.5 -12t-42.5 -22t-27 -33.5l-36.5 -96.5t-37.5 -92.5t-45.5 -82t-60 -66t-81 -44t-108.5 -16q-52 0 -94.5 15t-72.5 43t-46.5 68t-16.5 91q0 55 22 96.5t56 69t75.5 41.5t80.5 14q29 0 43 -7.5
t14 -15.5q0 -12 -14 -16q-33 -10 -59.5 -33.5t-26.5 -63.5q0 -76 85 -76q51 0 87.5 29t63.5 75.5t47 105.5t37.5 119t36 115.5t41.5 95.5q-23 12 -59 20t-75 8q-30 0 -59.5 -5t-52 -17t-36.5 -31t-14 -47q0 -30 18 -45.5t44 -15.5q23 0 38 12t26 29q5 8 9 12.5t10 4.5
q5 0 9 -5.5t4 -25.5q0 -29 -9.5 -60.5t-30.5 -57.5t-54 -43t-79 -17q-39 0 -71 12.5t-54 34.5t-34 51t-12 61q0 60 26 101.5t68.5 68t96.5 38.5t111 12q55 0 111 -10t98 -29q16 23 43 41t54 18q25 0 40 -15t15 -35q0 -32 -21.5 -54.5t-57.5 -25.5q-10 -12 -19 -35.5
t-17 -53.5t-16 -65t-15 -71q12 2 31.5 3.5l40.5 3t40 3t30 1.5l25.5 76.5t28 70t36 64t48.5 59.5q24 25 57 40.5t71 15.5q30 0 52 -14t22 -40q0 -30 -16 -46t-39 -16q-13 0 -21 4t-14.5 9l-11.5 9t-12 4q-17 0 -32 -24t-28 -63t-23.5 -89t-17.5 -102t-11 -101t-4 -87
q0 -22 1 -51t7.5 -55.5t20 -45t38.5 -18.5q23 0 33 6.5t16 6.5q13 0 13 -12q0 -11 -26 -37q-19 -18 -45.5 -36.5t-65.5 -18.5q-73 0 -108 51t-35 137z" />
    <glyph glyph-name="H.titl" horiz-adv-x="844" 
d="M738 159q0 -38 11 -60.5t31 -22.5q14 0 26.5 6.5t20.5 12.5q11 9 17 9q12 0 12 -11q0 -8 -4 -15t-12 -17t-19.5 -21.5t-27 -21.5t-35 -16.5t-43.5 -6.5q-56 0 -80.5 35.5t-24.5 90.5q0 17 1.5 38t3.5 42t4 39t4 28q-20 0 -39 -5.5t-35.5 -14.5t-28 -20t-15.5 -21
l-40.5 -96.5t-57.5 -95t-86.5 -72t-126.5 -28.5q-41 0 -76.5 12t-61.5 34.5t-41 55.5t-15 75t17 75t44 56.5t61.5 35.5t69.5 12q26 0 38 -6.5t12 -12.5q0 -8 -14 -11q-24 -5 -42 -26t-18 -50q0 -31 19.5 -49.5t55.5 -18.5q30 0 52.5 14.5t40 37.5t30 52.5t22.5 58.5
q19 58 32.5 103.5l25 81.5t23 63t26.5 48q-23 12 -57 21t-75 9q-38 0 -65 -22.5t-27 -56.5q0 -23 14 -36.5t31 -13.5t27.5 8t19.5 21q8 14 16 14q5 0 8.5 -5t3.5 -21q0 -23 -8 -48t-25 -45.5t-43.5 -33.5t-62.5 -13q-31 0 -57.5 10.5t-46 30t-31 46t-11.5 58.5q0 42 18 76
t47 58t67 37t77 13q29 0 58.5 -5.5t57.5 -14t52.5 -19.5t44.5 -23q25 21 48 30t45 9q23 0 35.5 -13t12.5 -30q0 -29 -19.5 -45.5t-48.5 -16.5h-10t-11 2q-7 -13 -14.5 -38.5t-14 -56t-11.5 -61.5t-8 -55q24 4 52.5 7t51.5 4q26 81 61.5 150t89.5 123q23 23 54 38t60 15
q28 0 45.5 -13.5t17.5 -38.5q0 -28 -15.5 -42.5t-36.5 -14.5q-17 0 -29.5 7t-27.5 7q-16 0 -30.5 -20.5t-27.5 -54t-24 -76.5t-18.5 -88.5t-12 -90t-4.5 -79.5z" />
    <glyph glyph-name="I" unicode="I" horiz-adv-x="475" 
d="M463 589q-12 -28 -17 -83t-12 -122t-20.5 -137t-42 -127.5t-76.5 -94.5t-124 -37q-37 0 -68 11t-54 30.5t-36 47t-13 59.5q0 35 14 62t36 45.5t49 28t53 9.5q19 0 26.5 -4t7.5 -9q0 -11 -13 -14q-17 -5 -32.5 -22.5t-15.5 -40.5q0 -26 17 -42.5t44 -16.5q40 0 64 30
t38.5 75.5t22.5 100l15 103.5t17 86t28 48q-28 -11 -54 -25t-45.5 -32.5t-31.5 -42t-12 -52.5q0 -37 24 -53q8 -5 11.5 -7.5t3.5 -8.5q0 -5 -7.5 -10t-22.5 -5q-22 0 -45.5 7.5t-43 22t-32.5 35.5t-13 48q0 36 23 61t59 43.5t78.5 32t81.5 27.5q22 8 33 20t25 16
q21 6 36.5 8.5t25.5 2.5q20 0 20 -15q0 -8 -5 -19t-17 -40z" />
    <glyph glyph-name="I.salt" horiz-adv-x="634" 
d="M563 566q-23 12 -61 22t-76 10q-61 0 -100 -23.5t-39 -70.5q0 -30 18 -45.5t44 -15.5q23 0 38 12t26 29q5 8 9 12.5t10 4.5q5 0 9 -5.5t4 -25.5q0 -29 -9.5 -60.5t-30.5 -57.5t-54 -43t-79 -17q-39 0 -71 12.5t-54 34.5t-34 51t-12 61q0 56 25 95.5t65.5 65t91 37.5
t100.5 12q55 0 107 -10.5t94 -29.5q12 25 35.5 43.5t50.5 18.5q23 0 36 -13t13 -31q0 -32 -21 -52t-50 -28q-8 -8 -13 -23t-10 -35q-8 -32 -12.5 -77.5t-10.5 -99.5t-15.5 -112.5t-25.5 -114t-41.5 -106t-63.5 -88.5t-91.5 -60.5t-126.5 -22.5q-52 0 -95.5 15t-75 43
t-49.5 68t-18 91q0 55 22.5 95.5t57 67.5t77 40t81.5 13q29 0 41 -5t12 -13q0 -12 -14 -16q-33 -10 -57.5 -33.5t-24.5 -58.5q0 -38 23.5 -59.5t65.5 -21.5t73.5 24.5t55 64.5t40.5 90t30.5 101t24.5 98t23 81q14 40 32 61z" />
    <glyph glyph-name="I.salt_acute" horiz-adv-x="634" 
d="M563 566q-23 12 -61 22t-76 10q-61 0 -100 -23.5t-39 -70.5q0 -30 18 -45.5t44 -15.5q23 0 38 12t26 29q5 8 9 12.5t10 4.5q5 0 9 -5.5t4 -25.5q0 -29 -9.5 -60.5t-30.5 -57.5t-54 -43t-79 -17q-39 0 -71 12.5t-54 34.5t-34 51t-12 61q0 56 25 95.5t65.5 65t91 37.5
t100.5 12q55 0 107 -10.5t94 -29.5q12 25 35.5 43.5t50.5 18.5q23 0 36 -13t13 -31q0 -32 -21 -52t-50 -28q-8 -8 -13 -23t-10 -35q-8 -32 -12.5 -77.5t-10.5 -99.5t-15.5 -112.5t-25.5 -114t-41.5 -106t-63.5 -88.5t-91.5 -60.5t-126.5 -22.5q-52 0 -95.5 15t-75 43
t-49.5 68t-18 91q0 55 22.5 95.5t57 67.5t77 40t81.5 13q29 0 41 -5t12 -13q0 -12 -14 -16q-33 -10 -57.5 -33.5t-24.5 -58.5q0 -38 23.5 -59.5t65.5 -21.5t73.5 24.5t55 64.5t40.5 90t30.5 101t24.5 98t23 81q14 40 32 61zM622 836q6 0 14 -6.5t16 -16.5t13.5 -20.5
t5.5 -18.5q0 -12 -4.5 -20t-18.5 -20q-15 -13 -33 -23t-35.5 -16.5t-33.5 -9.5t-27 -3q-8 0 -12.5 4.5t-4.5 9.5q0 6 3 10t12 9q22 13 45 36.5t37 65.5q7 19 23 19z" />
    <glyph glyph-name="I.salt_breve" horiz-adv-x="634" 
d="M563 566q-23 12 -61 22t-76 10q-61 0 -100 -23.5t-39 -70.5q0 -30 18 -45.5t44 -15.5q23 0 38 12t26 29q5 8 9 12.5t10 4.5q5 0 9 -5.5t4 -25.5q0 -29 -9.5 -60.5t-30.5 -57.5t-54 -43t-79 -17q-39 0 -71 12.5t-54 34.5t-34 51t-12 61q0 56 25 95.5t65.5 65t91 37.5
t100.5 12q55 0 107 -10.5t94 -29.5q12 25 35.5 43.5t50.5 18.5q23 0 36 -13t13 -31q0 -32 -21 -52t-50 -28q-8 -8 -13 -23t-10 -35q-8 -32 -12.5 -77.5t-10.5 -99.5t-15.5 -112.5t-25.5 -114t-41.5 -106t-63.5 -88.5t-91.5 -60.5t-126.5 -22.5q-52 0 -95.5 15t-75 43
t-49.5 68t-18 91q0 55 22.5 95.5t57 67.5t77 40t81.5 13q29 0 41 -5t12 -13q0 -12 -14 -16q-33 -10 -57.5 -33.5t-24.5 -58.5q0 -38 23.5 -59.5t65.5 -21.5t73.5 24.5t55 64.5t40.5 90t30.5 101t24.5 98t23 81q14 40 32 61zM517 682q-20 0 -39 6.5t-33.5 18.5t-23.5 28.5
t-9 36.5q0 17 12.5 29.5t28.5 12.5q29 0 29 -26q0 -12 -4 -16t-4 -15q0 -12 13.5 -19.5t35.5 -7.5q31 0 44.5 12.5t13.5 29.5q0 23 10 32.5t23 9.5q16 0 25 -8t9 -21q0 -26 -17 -51q-14 -20 -40 -36t-74 -16z" />
    <glyph glyph-name="I.salt_circumflex" horiz-adv-x="634" 
d="M563 566q-23 12 -61 22t-76 10q-61 0 -100 -23.5t-39 -70.5q0 -30 18 -45.5t44 -15.5q23 0 38 12t26 29q5 8 9 12.5t10 4.5q5 0 9 -5.5t4 -25.5q0 -29 -9.5 -60.5t-30.5 -57.5t-54 -43t-79 -17q-39 0 -71 12.5t-54 34.5t-34 51t-12 61q0 56 25 95.5t65.5 65t91 37.5
t100.5 12q55 0 107 -10.5t94 -29.5q12 25 35.5 43.5t50.5 18.5q23 0 36 -13t13 -31q0 -32 -21 -52t-50 -28q-8 -8 -13 -23t-10 -35q-8 -32 -12.5 -77.5t-10.5 -99.5t-15.5 -112.5t-25.5 -114t-41.5 -106t-63.5 -88.5t-91.5 -60.5t-126.5 -22.5q-52 0 -95.5 15t-75 43
t-49.5 68t-18 91q0 55 22.5 95.5t57 67.5t77 40t81.5 13q29 0 41 -5t12 -13q0 -12 -14 -16q-33 -10 -57.5 -33.5t-24.5 -58.5q0 -38 23.5 -59.5t65.5 -21.5t73.5 24.5t55 64.5t40.5 90t30.5 101t24.5 98t23 81q14 40 32 61zM399 737l-35 -20.5l-33.5 -19.5t-27.5 -14.5
t-17 -5.5q-8 0 -12 4.5t-4 9.5q0 12 15 23l20.5 15.5t16.5 14t17 17l23 24.5q11 13 20 22.5t28 9.5q21 0 26.5 -10t12.5 -26q11 -26 23 -39.5l24 -27.5q8 -8 12.5 -11.5t4.5 -10.5q0 -6 -4.5 -10.5t-12.5 -4.5t-32 10.5t-65 49.5z" />
    <glyph glyph-name="I.salt_dieresis" horiz-adv-x="634" 
d="M563 566q-23 12 -61 22t-76 10q-61 0 -100 -23.5t-39 -70.5q0 -30 18 -45.5t44 -15.5q23 0 38 12t26 29q5 8 9 12.5t10 4.5q5 0 9 -5.5t4 -25.5q0 -29 -9.5 -60.5t-30.5 -57.5t-54 -43t-79 -17q-39 0 -71 12.5t-54 34.5t-34 51t-12 61q0 56 25 95.5t65.5 65t91 37.5
t100.5 12q55 0 107 -10.5t94 -29.5q12 25 35.5 43.5t50.5 18.5q23 0 36 -13t13 -31q0 -32 -21 -52t-50 -28q-8 -8 -13 -23t-10 -35q-8 -32 -12.5 -77.5t-10.5 -99.5t-15.5 -112.5t-25.5 -114t-41.5 -106t-63.5 -88.5t-91.5 -60.5t-126.5 -22.5q-52 0 -95.5 15t-75 43
t-49.5 68t-18 91q0 55 22.5 95.5t57 67.5t77 40t81.5 13q29 0 41 -5t12 -13q0 -12 -14 -16q-33 -10 -57.5 -33.5t-24.5 -58.5q0 -38 23.5 -59.5t65.5 -21.5t73.5 24.5t55 64.5t40.5 90t30.5 101t24.5 98t23 81q14 40 32 61zM316 736q0 12 5 25t14 23.5t21 17.5t26 7
q18 0 29 -13t11 -33q0 -12 -5 -25.5t-14 -24t-21.5 -17.5t-27.5 -7q-17 0 -27.5 13.5t-10.5 33.5zM454 736q0 12 5 25t14 23.5t21 17.5t26 7q18 0 29 -13t11 -33q0 -12 -5 -25.5t-14 -24t-21.5 -17.5t-27.5 -7q-17 0 -27.5 13.5t-10.5 33.5z" />
    <glyph glyph-name="I.salt_grave" horiz-adv-x="634" 
d="M563 566q-23 12 -61 22t-76 10q-61 0 -100 -23.5t-39 -70.5q0 -30 18 -45.5t44 -15.5q23 0 38 12t26 29q5 8 9 12.5t10 4.5q5 0 9 -5.5t4 -25.5q0 -29 -9.5 -60.5t-30.5 -57.5t-54 -43t-79 -17q-39 0 -71 12.5t-54 34.5t-34 51t-12 61q0 56 25 95.5t65.5 65t91 37.5
t100.5 12q55 0 107 -10.5t94 -29.5q12 25 35.5 43.5t50.5 18.5q23 0 36 -13t13 -31q0 -32 -21 -52t-50 -28q-8 -8 -13 -23t-10 -35q-8 -32 -12.5 -77.5t-10.5 -99.5t-15.5 -112.5t-25.5 -114t-41.5 -106t-63.5 -88.5t-91.5 -60.5t-126.5 -22.5q-52 0 -95.5 15t-75 43
t-49.5 68t-18 91q0 55 22.5 95.5t57 67.5t77 40t81.5 13q29 0 41 -5t12 -13q0 -12 -14 -16q-33 -10 -57.5 -33.5t-24.5 -58.5q0 -38 23.5 -59.5t65.5 -21.5t73.5 24.5t55 64.5t40.5 90t30.5 101t24.5 98t23 81q14 40 32 61zM450 824q16 0 23 -19q14 -42 37 -65.5t45 -36.5
q9 -5 12 -9t3 -10q0 -5 -4.5 -9.5t-12.5 -4.5q-11 0 -27 3t-33.5 9.5t-35.5 16.5t-33 23q-14 12 -18.5 20t-4.5 20q0 8 5.5 18.5t13.5 20.5t16 16.5t14 6.5z" />
    <glyph glyph-name="I.titl" horiz-adv-x="547" 
d="M241 93q45 0 73.5 37.5t46.5 100.5q9 33 18 69.5l18 73l18 70.5t19 61q14 40 32 61q-27 11 -50 17t-59 6q-46 0 -78.5 -25.5t-32.5 -65.5q0 -23 14 -36t31 -13t27.5 8t18.5 21q5 6 8.5 9.5t8.5 3.5t8 -5t3 -20q0 -21 -8 -45.5t-24.5 -45.5t-43 -35t-62.5 -14
q-31 0 -58 10t-46.5 28.5t-30.5 46t-11 62.5q0 41 16.5 76t46 60.5t69.5 39.5t87 14q32 0 58 -3.5t48 -9.5t41.5 -13.5l39.5 -15.5q12 25 35.5 43.5t50.5 18.5q23 0 36 -13t13 -31q0 -32 -21 -52t-50 -28q-8 -8 -13.5 -23t-9.5 -35q-6 -29 -10.5 -66.5l-9.5 -79.5t-11 -87.5
t-15 -89.5q-11 -53 -29.5 -100.5t-50.5 -83.5t-79.5 -57.5t-115.5 -21.5q-41 0 -78.5 12t-66 34.5t-45.5 55.5t-17 75t17 75t44 55.5t61.5 34.5t69.5 12q26 0 38 -6.5t12 -12.5q0 -9 -13 -13q-24 -8 -42.5 -26.5t-18.5 -47.5q0 -31 20 -50.5t53 -19.5z" />
    <glyph glyph-name="I.titl_acute" horiz-adv-x="547" 
d="M241 93q45 0 73.5 37.5t46.5 100.5q9 33 18 69.5l18 73l18 70.5t19 61q14 40 32 61q-27 11 -50 17t-59 6q-46 0 -78.5 -25.5t-32.5 -65.5q0 -23 14 -36t31 -13t27.5 8t18.5 21q5 6 8.5 9.5t8.5 3.5t8 -5t3 -20q0 -21 -8 -45.5t-24.5 -45.5t-43 -35t-62.5 -14
q-31 0 -58 10t-46.5 28.5t-30.5 46t-11 62.5q0 41 16.5 76t46 60.5t69.5 39.5t87 14q32 0 58 -3.5t48 -9.5t41.5 -13.5l39.5 -15.5q12 25 35.5 43.5t50.5 18.5q23 0 36 -13t13 -31q0 -32 -21 -52t-50 -28q-8 -8 -13.5 -23t-9.5 -35q-6 -29 -10.5 -66.5l-9.5 -79.5t-11 -87.5
t-15 -89.5q-11 -53 -29.5 -100.5t-50.5 -83.5t-79.5 -57.5t-115.5 -21.5q-41 0 -78.5 12t-66 34.5t-45.5 55.5t-17 75t17 75t44 55.5t61.5 34.5t69.5 12q26 0 38 -6.5t12 -12.5q0 -9 -13 -13q-24 -8 -42.5 -26.5t-18.5 -47.5q0 -31 20 -50.5t53 -19.5zM526 832q6 0 14 -6.5
t16 -16.5t13.5 -20.5t5.5 -18.5q0 -12 -4.5 -20t-18.5 -20q-15 -13 -33 -23t-35.5 -16.5t-33.5 -9.5t-27 -3q-8 0 -12.5 4.5t-4.5 9.5q0 6 3 10t12 9q22 13 45 36.5t37 65.5q7 19 23 19z" />
    <glyph glyph-name="I.titl_breve" horiz-adv-x="547" 
d="M241 93q45 0 73.5 37.5t46.5 100.5q9 33 18 69.5l18 73l18 70.5t19 61q14 40 32 61q-27 11 -50 17t-59 6q-46 0 -78.5 -25.5t-32.5 -65.5q0 -23 14 -36t31 -13t27.5 8t18.5 21q5 6 8.5 9.5t8.5 3.5t8 -5t3 -20q0 -21 -8 -45.5t-24.5 -45.5t-43 -35t-62.5 -14
q-31 0 -58 10t-46.5 28.5t-30.5 46t-11 62.5q0 41 16.5 76t46 60.5t69.5 39.5t87 14q32 0 58 -3.5t48 -9.5t41.5 -13.5l39.5 -15.5q12 25 35.5 43.5t50.5 18.5q23 0 36 -13t13 -31q0 -32 -21 -52t-50 -28q-8 -8 -13.5 -23t-9.5 -35q-6 -29 -10.5 -66.5l-9.5 -79.5t-11 -87.5
t-15 -89.5q-11 -53 -29.5 -100.5t-50.5 -83.5t-79.5 -57.5t-115.5 -21.5q-41 0 -78.5 12t-66 34.5t-45.5 55.5t-17 75t17 75t44 55.5t61.5 34.5t69.5 12q26 0 38 -6.5t12 -12.5q0 -9 -13 -13q-24 -8 -42.5 -26.5t-18.5 -47.5q0 -31 20 -50.5t53 -19.5zM430 676
q-20 0 -39 6.5t-33.5 18.5t-23.5 28.5t-9 36.5q0 17 12.5 29.5t28.5 12.5q29 0 29 -26q0 -12 -4 -16t-4 -15q0 -12 13.5 -19.5t35.5 -7.5q31 0 44.5 12.5t13.5 29.5q0 23 10 32.5t23 9.5q16 0 25 -8t9 -21q0 -26 -17 -51q-14 -20 -40 -36t-74 -16z" />
    <glyph glyph-name="I.titl_circumflex" horiz-adv-x="547" 
d="M241 93q45 0 73.5 37.5t46.5 100.5q9 33 18 69.5l18 73l18 70.5t19 61q14 40 32 61q-27 11 -50 17t-59 6q-46 0 -78.5 -25.5t-32.5 -65.5q0 -23 14 -36t31 -13t27.5 8t18.5 21q5 6 8.5 9.5t8.5 3.5t8 -5t3 -20q0 -21 -8 -45.5t-24.5 -45.5t-43 -35t-62.5 -14
q-31 0 -58 10t-46.5 28.5t-30.5 46t-11 62.5q0 41 16.5 76t46 60.5t69.5 39.5t87 14q32 0 58 -3.5t48 -9.5t41.5 -13.5l39.5 -15.5q12 25 35.5 43.5t50.5 18.5q23 0 36 -13t13 -31q0 -32 -21 -52t-50 -28q-8 -8 -13.5 -23t-9.5 -35q-6 -29 -10.5 -66.5l-9.5 -79.5t-11 -87.5
t-15 -89.5q-11 -53 -29.5 -100.5t-50.5 -83.5t-79.5 -57.5t-115.5 -21.5q-41 0 -78.5 12t-66 34.5t-45.5 55.5t-17 75t17 75t44 55.5t61.5 34.5t69.5 12q26 0 38 -6.5t12 -12.5q0 -9 -13 -13q-24 -8 -42.5 -26.5t-18.5 -47.5q0 -31 20 -50.5t53 -19.5zM370 737l-35 -20.5
l-33.5 -19.5t-27.5 -14.5t-17 -5.5q-8 0 -12 4.5t-4 9.5q0 12 15 23l20.5 15.5t16.5 14t17 17l23 24.5q11 13 20 22.5t28 9.5q21 0 26.5 -10t12.5 -26q11 -26 23 -39.5l24 -27.5q8 -8 12.5 -11.5t4.5 -10.5q0 -6 -4.5 -10.5t-12.5 -4.5t-32 10.5t-65 49.5z" />
    <glyph glyph-name="I.titl_dieresis" horiz-adv-x="547" 
d="M241 93q45 0 73.5 37.5t46.5 100.5q9 33 18 69.5l18 73l18 70.5t19 61q14 40 32 61q-27 11 -50 17t-59 6q-46 0 -78.5 -25.5t-32.5 -65.5q0 -23 14 -36t31 -13t27.5 8t18.5 21q5 6 8.5 9.5t8.5 3.5t8 -5t3 -20q0 -21 -8 -45.5t-24.5 -45.5t-43 -35t-62.5 -14
q-31 0 -58 10t-46.5 28.5t-30.5 46t-11 62.5q0 41 16.5 76t46 60.5t69.5 39.5t87 14q32 0 58 -3.5t48 -9.5t41.5 -13.5l39.5 -15.5q12 25 35.5 43.5t50.5 18.5q23 0 36 -13t13 -31q0 -32 -21 -52t-50 -28q-8 -8 -13.5 -23t-9.5 -35q-6 -29 -10.5 -66.5l-9.5 -79.5t-11 -87.5
t-15 -89.5q-11 -53 -29.5 -100.5t-50.5 -83.5t-79.5 -57.5t-115.5 -21.5q-41 0 -78.5 12t-66 34.5t-45.5 55.5t-17 75t17 75t44 55.5t61.5 34.5t69.5 12q26 0 38 -6.5t12 -12.5q0 -9 -13 -13q-24 -8 -42.5 -26.5t-18.5 -47.5q0 -31 20 -50.5t53 -19.5zM259 728q0 12 5 25
t14 23.5t21 17.5t26 7q18 0 29 -13t11 -33q0 -12 -5 -25.5t-14 -24t-21.5 -17.5t-27.5 -7q-17 0 -27.5 13.5t-10.5 33.5zM397 728q0 12 5 25t14 23.5t21 17.5t26 7q18 0 29 -13t11 -33q0 -12 -5 -25.5t-14 -24t-21.5 -17.5t-27.5 -7q-17 0 -27.5 13.5t-10.5 33.5z" />
    <glyph glyph-name="I.titl_grave" horiz-adv-x="547" 
d="M241 93q45 0 73.5 37.5t46.5 100.5q9 33 18 69.5l18 73l18 70.5t19 61q14 40 32 61q-27 11 -50 17t-59 6q-46 0 -78.5 -25.5t-32.5 -65.5q0 -23 14 -36t31 -13t27.5 8t18.5 21q5 6 8.5 9.5t8.5 3.5t8 -5t3 -20q0 -21 -8 -45.5t-24.5 -45.5t-43 -35t-62.5 -14
q-31 0 -58 10t-46.5 28.5t-30.5 46t-11 62.5q0 41 16.5 76t46 60.5t69.5 39.5t87 14q32 0 58 -3.5t48 -9.5t41.5 -13.5l39.5 -15.5q12 25 35.5 43.5t50.5 18.5q23 0 36 -13t13 -31q0 -32 -21 -52t-50 -28q-8 -8 -13.5 -23t-9.5 -35q-6 -29 -10.5 -66.5l-9.5 -79.5t-11 -87.5
t-15 -89.5q-11 -53 -29.5 -100.5t-50.5 -83.5t-79.5 -57.5t-115.5 -21.5q-41 0 -78.5 12t-66 34.5t-45.5 55.5t-17 75t17 75t44 55.5t61.5 34.5t69.5 12q26 0 38 -6.5t12 -12.5q0 -9 -13 -13q-24 -8 -42.5 -26.5t-18.5 -47.5q0 -31 20 -50.5t53 -19.5zM368 826q16 0 23 -19
q14 -42 37 -65.5t45 -36.5q9 -5 12 -9t3 -10q0 -5 -4.5 -9.5t-12.5 -4.5q-11 0 -27 3t-33.5 9.5t-35.5 16.5t-33 23q-14 12 -18.5 20t-4.5 20q0 8 5.5 18.5t13.5 20.5t16 16.5t14 6.5z" />
    <glyph glyph-name="Iacute" unicode="&#xcd;" horiz-adv-x="475" 
d="M463 589q-12 -28 -17 -83t-12 -122t-20.5 -137t-42 -127.5t-76.5 -94.5t-124 -37q-37 0 -68 11t-54 30.5t-36 47t-13 59.5q0 35 14 62t36 45.5t49 28t53 9.5q19 0 26.5 -4t7.5 -9q0 -11 -13 -14q-17 -5 -32.5 -22.5t-15.5 -40.5q0 -26 17 -42.5t44 -16.5q40 0 64 30
t38.5 75.5t22.5 100l15 103.5t17 86t28 48q-28 -11 -54 -25t-45.5 -32.5t-31.5 -42t-12 -52.5q0 -37 24 -53q8 -5 11.5 -7.5t3.5 -8.5q0 -5 -7.5 -10t-22.5 -5q-22 0 -45.5 7.5t-43 22t-32.5 35.5t-13 48q0 36 23 61t59 43.5t78.5 32t81.5 27.5q22 8 33 20t25 16
q21 6 36.5 8.5t25.5 2.5q20 0 20 -15q0 -8 -5 -19t-17 -40zM433 822q6 0 14 -6.5t16 -16.5t13.5 -20.5t5.5 -18.5q0 -12 -4.5 -20t-18.5 -20q-15 -13 -33 -23t-35.5 -16.5t-33.5 -9.5t-27 -3q-8 0 -12.5 4.5t-4.5 9.5q0 6 3 10t12 9q22 13 45 36.5t37 65.5q7 19 23 19z" />
    <glyph glyph-name="Ibreve" unicode="&#x12c;" horiz-adv-x="475" 
d="M463 589q-12 -28 -17 -83t-12 -122t-20.5 -137t-42 -127.5t-76.5 -94.5t-124 -37q-37 0 -68 11t-54 30.5t-36 47t-13 59.5q0 35 14 62t36 45.5t49 28t53 9.5q19 0 26.5 -4t7.5 -9q0 -11 -13 -14q-17 -5 -32.5 -22.5t-15.5 -40.5q0 -26 17 -42.5t44 -16.5q40 0 64 30
t38.5 75.5t22.5 100l15 103.5t17 86t28 48q-28 -11 -54 -25t-45.5 -32.5t-31.5 -42t-12 -52.5q0 -37 24 -53q8 -5 11.5 -7.5t3.5 -8.5q0 -5 -7.5 -10t-22.5 -5q-22 0 -45.5 7.5t-43 22t-32.5 35.5t-13 48q0 36 23 61t59 43.5t78.5 32t81.5 27.5q22 8 33 20t25 16
q21 6 36.5 8.5t25.5 2.5q20 0 20 -15q0 -8 -5 -19t-17 -40zM421 692q-20 0 -39 6.5t-33.5 18.5t-23.5 28.5t-9 36.5q0 17 12.5 29.5t28.5 12.5q29 0 29 -26q0 -12 -4 -16t-4 -15q0 -12 13.5 -19.5t35.5 -7.5q31 0 44.5 12.5t13.5 29.5q0 23 10 32.5t23 9.5q16 0 25 -8t9 -21
q0 -26 -17 -51q-14 -20 -40 -36t-74 -16z" />
    <glyph glyph-name="Icircumflex" unicode="&#xce;" horiz-adv-x="475" 
d="M463 589q-12 -28 -17 -83t-12 -122t-20.5 -137t-42 -127.5t-76.5 -94.5t-124 -37q-37 0 -68 11t-54 30.5t-36 47t-13 59.5q0 35 14 62t36 45.5t49 28t53 9.5q19 0 26.5 -4t7.5 -9q0 -11 -13 -14q-17 -5 -32.5 -22.5t-15.5 -40.5q0 -26 17 -42.5t44 -16.5q40 0 64 30
t38.5 75.5t22.5 100l15 103.5t17 86t28 48q-28 -11 -54 -25t-45.5 -32.5t-31.5 -42t-12 -52.5q0 -37 24 -53q8 -5 11.5 -7.5t3.5 -8.5q0 -5 -7.5 -10t-22.5 -5q-22 0 -45.5 7.5t-43 22t-32.5 35.5t-13 48q0 36 23 61t59 43.5t78.5 32t81.5 27.5q22 8 33 20t25 16
q21 6 36.5 8.5t25.5 2.5q20 0 20 -15q0 -8 -5 -19t-17 -40zM403 739l-35 -20.5l-33.5 -19.5t-27.5 -14.5t-17 -5.5q-8 0 -12 4.5t-4 9.5q0 12 15 23l20.5 15.5t16.5 14t17 17l23 24.5q11 13 20 22.5t28 9.5q21 0 26.5 -10t12.5 -26q11 -26 23 -39.5l24 -27.5
q8 -8 12.5 -11.5t4.5 -10.5q0 -6 -4.5 -10.5t-12.5 -4.5t-32 10.5t-65 49.5z" />
    <glyph glyph-name="Idieresis" unicode="&#xcf;" horiz-adv-x="475" 
d="M463 589q-12 -28 -17 -83t-12 -122t-20.5 -137t-42 -127.5t-76.5 -94.5t-124 -37q-37 0 -68 11t-54 30.5t-36 47t-13 59.5q0 35 14 62t36 45.5t49 28t53 9.5q19 0 26.5 -4t7.5 -9q0 -11 -13 -14q-17 -5 -32.5 -22.5t-15.5 -40.5q0 -26 17 -42.5t44 -16.5q40 0 64 30
t38.5 75.5t22.5 100l15 103.5t17 86t28 48q-28 -11 -54 -25t-45.5 -32.5t-31.5 -42t-12 -52.5q0 -37 24 -53q8 -5 11.5 -7.5t3.5 -8.5q0 -5 -7.5 -10t-22.5 -5q-22 0 -45.5 7.5t-43 22t-32.5 35.5t-13 48q0 36 23 61t59 43.5t78.5 32t81.5 27.5q22 8 33 20t25 16
q21 6 36.5 8.5t25.5 2.5q20 0 20 -15q0 -8 -5 -19t-17 -40zM290 728q0 12 5 25t14 23.5t21 17.5t26 7q18 0 29 -13t11 -33q0 -12 -5 -25.5t-14 -24t-21.5 -17.5t-27.5 -7q-17 0 -27.5 13.5t-10.5 33.5zM428 728q0 12 5 25t14 23.5t21 17.5t26 7q18 0 29 -13t11 -33
q0 -12 -5 -25.5t-14 -24t-21.5 -17.5t-27.5 -7q-17 0 -27.5 13.5t-10.5 33.5z" />
    <glyph glyph-name="Igrave" unicode="&#xcc;" horiz-adv-x="475" 
d="M463 589q-12 -28 -17 -83t-12 -122t-20.5 -137t-42 -127.5t-76.5 -94.5t-124 -37q-37 0 -68 11t-54 30.5t-36 47t-13 59.5q0 35 14 62t36 45.5t49 28t53 9.5q19 0 26.5 -4t7.5 -9q0 -11 -13 -14q-17 -5 -32.5 -22.5t-15.5 -40.5q0 -26 17 -42.5t44 -16.5q40 0 64 30
t38.5 75.5t22.5 100l15 103.5t17 86t28 48q-28 -11 -54 -25t-45.5 -32.5t-31.5 -42t-12 -52.5q0 -37 24 -53q8 -5 11.5 -7.5t3.5 -8.5q0 -5 -7.5 -10t-22.5 -5q-22 0 -45.5 7.5t-43 22t-32.5 35.5t-13 48q0 36 23 61t59 43.5t78.5 32t81.5 27.5q22 8 33 20t25 16
q21 6 36.5 8.5t25.5 2.5q20 0 20 -15q0 -8 -5 -19t-17 -40zM346 838q16 0 23 -19q14 -42 37 -65.5t45 -36.5q9 -5 12 -9t3 -10q0 -5 -4.5 -9.5t-12.5 -4.5q-11 0 -27 3t-33.5 9.5t-35.5 16.5t-33 23q-14 12 -18.5 20t-4.5 20q0 8 5.5 18.5t13.5 20.5t16 16.5t14 6.5z" />
    <glyph glyph-name="J" unicode="J" horiz-adv-x="465" 
d="M309 598q12 5 22.5 13.5t19.5 17t17 15t15 8.5q21 6 36.5 8.5t25.5 2.5q20 0 20 -15q0 -8 -5.5 -18t-13.5 -29q-11 -25 -17 -71t-11 -104.5l-11 -125.5t-17 -135q-12 -75 -34.5 -143t-59.5 -120.5t-89.5 -83.5t-125.5 -31q-40 0 -76 13t-63 36t-42.5 54t-15.5 67
q0 38 16.5 68t42 50.5t56 31.5t57.5 11q20 0 28.5 -3.5t8.5 -11.5t-15 -14q-23 -8 -41 -26t-18 -50q0 -31 23 -50.5t58 -19.5q34 0 60 22t45.5 57t33.5 79t24 89q-43 0 -83 8t-71 24.5t-49.5 43t-18.5 64.5q0 51 22.5 91t60 71.5t86 57t99.5 48.5zM200 339q0 -38 20 -67.5
t50 -43.5q13 58 20 110t13.5 95t14 75t21.5 51q-76 -44 -107.5 -99t-31.5 -121z" />
    <glyph glyph-name="J.01" horiz-adv-x="662" 
d="M227 -104q46 0 91.5 -3.5t90.5 -10.5q23 56 36.5 116t19.5 118q-48 0 -92.5 11t-78 32.5t-53.5 53.5t-20 74q0 57 36.5 104.5t91.5 87t119 73l119 63.5q19 33 47 56.5t58 23.5q25 0 37 -13t12 -33q0 -29 -23.5 -50.5t-63.5 -32.5q-18 -30 -28 -74.5t-15 -101t-8.5 -123
t-9.5 -139.5q-5 -59 -11.5 -129t-20.5 -143q88 -17 176 -30.5t182 -13.5q42 0 73 8t52 20t34.5 25t21.5 24q10 14 15 18.5t12 4.5q15 0 15 -21q0 -19 -3.5 -47t-12.5 -59.5t-25 -63t-41.5 -56.5t-60.5 -41t-83 -16q-51 0 -99.5 13t-95 33.5t-93 46l-92.5 50.5
q-19 -63 -48.5 -120t-73 -99.5t-103.5 -67.5t-140 -25q-57 0 -102 16t-75.5 44.5t-47 67.5t-16.5 84q0 64 27.5 110t70.5 76t96 44.5t103 14.5zM174 -327q68 0 119 41.5t87 105.5q-35 11 -69.5 17.5t-71.5 6.5q-71 0 -110.5 -30t-39.5 -72q0 -30 24.5 -49.5t60.5 -19.5z
M399 297q0 -43 23 -76t56 -48q12 55 21 111t18 104.5t19.5 87.5t25.5 60q-35 -25 -65 -51.5t-51.5 -56t-34 -62.5t-12.5 -69z" />
    <glyph glyph-name="J.02" horiz-adv-x="660" 
d="M999 -490q-54 0 -110.5 22.5t-115 56.5t-119 74.5l-121.5 77.5q-20 -62 -49.5 -116.5t-73 -96t-102.5 -65.5t-137 -24q-57 0 -102 16t-75.5 44.5t-47 67.5t-16.5 84q0 64 27.5 110t71 76t96.5 44.5t104 14.5q49 0 93 -4.5t86 -12.5q23 56 37 117t20 120q-48 0 -92.5 11
t-78 32.5t-53.5 53.5t-20 74q0 57 36.5 104.5t91.5 87t119 73l119 63.5q19 33 47 56.5t58 23.5q25 0 37 -13t12 -33q0 -29 -23.5 -50.5t-63.5 -32.5q-18 -30 -28 -74.5t-15 -101t-8.5 -123t-9.5 -139.5q-5 -63 -12 -138t-23 -153q51 -18 96 -37t87 -34.5t82 -25.5t79 -10
q45 0 71 20.5t26 65.5q0 24 -6 38t-13.5 22.5t-13.5 14.5t-6 15q0 16 21 16q36 0 77 -12t76 -36.5t58.5 -61.5t23.5 -87t-15.5 -89.5t-43.5 -67.5t-68.5 -43t-89.5 -15zM239 -156q-71 0 -110.5 -30t-39.5 -72q0 -30 24.5 -49.5t60.5 -19.5q67 0 118 40.5t86 103.5
q-35 13 -69.5 20t-69.5 7zM399 297q0 -43 23 -76t56 -48q12 55 21 111t18 104.5t19.5 87.5t25.5 60q-35 -25 -65 -51.5t-51.5 -56t-34 -62.5t-12.5 -69z" />
    <glyph glyph-name="J.03" horiz-adv-x="654" 
d="M287 -89q65 0 130 -9q20 52 31.5 106.5t16.5 107.5q-48 0 -92.5 11t-78 32.5t-53.5 53.5t-20 74q0 57 36.5 104.5t91.5 87t119 73l119 63.5q19 33 47 56.5t58 23.5q25 0 37 -13t12 -33q0 -29 -23.5 -50.5t-63.5 -32.5q-18 -30 -28 -74.5t-15 -101t-8.5 -123t-9.5 -139.5
l-10.5 -122t-16.5 -136q85 -25 159 -64t129 -90t86.5 -112.5t31.5 -131.5q0 -65 -20 -115t-54 -84t-78 -52t-93 -18q-53 0 -92.5 16.5t-66 44t-39.5 64t-13 76.5q0 23 5.5 30t10.5 7t8.5 -4t8.5 -11q14 -22 38.5 -32.5t47.5 -10.5q19 0 36.5 9t31 26t22 42.5t8.5 57.5
q0 77 -48 149t-134 121q-17 -70 -44 -134.5t-70.5 -113.5t-106 -78.5t-148.5 -29.5q-57 0 -103.5 17.5t-79.5 47t-51 69.5t-18 85q0 64 31.5 112.5t82.5 81.5t114.5 49.5t128.5 16.5zM174 -327q37 0 69 13t59 36t49.5 54t40.5 68q-50 10 -110 10q-46 0 -82 -9.5t-60.5 -25.5
t-37.5 -36t-13 -41q0 -30 24.5 -49.5t60.5 -19.5zM399 297q0 -43 23 -76t56 -48q12 55 21 111t18 104.5t19.5 87.5t25.5 60q-35 -25 -65 -51.5t-51.5 -56t-34 -62.5t-12.5 -69z" />
    <glyph glyph-name="J.04" horiz-adv-x="648" 
d="M399 297q0 -43 23 -76t56 -48q12 55 21 111t18 104.5t19.5 87.5t25.5 60q-35 -25 -65 -51.5t-51.5 -56t-34 -62.5t-12.5 -69zM470 116q-48 0 -93 11t-79.5 32.5t-55.5 53.5t-21 74q0 57 36.5 104.5t91.5 87t119 73l119 63.5q19 33 47 56.5t58 23.5q25 0 37 -13t12 -33
q0 -29 -23.5 -50.5t-63.5 -32.5q-14 -20 -23.5 -63.5t-17.5 -102t-15 -128.5l-15 -143q-3 -24 -6.5 -61l-7.5 -80l-8.5 -89.5l-8.5 -89.5q175 -17 339 -52.5t314 -72.5t284.5 -64.5t251.5 -27.5q67 0 116 13.5t81 38.5t48 59.5t16 75.5q0 17 -5 30t-11 23t-11 17t-5 13
q0 8 5.5 13t12.5 5q9 0 32 -13.5t47 -45t42.5 -82.5t18.5 -126q0 -63 -20.5 -118t-58 -99t-91 -75t-119.5 -45q11 -24 22.5 -55t11.5 -73q0 -65 -22 -121t-61.5 -96.5t-94.5 -63.5t-122 -23q-49 0 -97.5 12.5t-99.5 34.5q-9 -38 -27.5 -82.5t-50 -82.5t-79 -63.5
t-114.5 -25.5q-81 0 -152 39t-134.5 103t-121.5 145.5l-112.5 165.5l-107 163.5t-106.5 140.5q-20 -20 -43.5 -39t-51 -33.5t-59.5 -23.5t-71 -9q-61 0 -107.5 17t-78 46t-47.5 68.5t-16 83.5q0 83 44.5 143.5t118.5 99.5t169 58t196 19q6 35 13 81l13.5 89.5l11.5 77
t7 44.5zM171 -427q96 0 178.5 -29.5t155.5 -78t137.5 -110.5t124 -126.5l115.5 -126.5t111.5 -110.5t113.5 -78t120 -29.5q35 0 58 9t42 22q-68 26 -134.5 70t-132.5 98.5l-133 115l-135 120t-139 113.5t-145.5 95t-153 65.5t-163.5 24.5q-21 0 -44.5 -6t-45.5 -16.5
t-40.5 -25.5t-29.5 -34q19 11 53 24.5t87 13.5zM255 -303q104 0 202.5 -23t192 -60.5t183 -85.5l175 -97.5l167.5 -97.5t161.5 -85.5t156.5 -60.5t153 -23q34 0 59 9t42.5 24t27.5 33.5t16 37.5q-29 -3 -57 -3q-116 0 -227.5 35t-221.5 88t-221 114.5t-225 114.5t-232.5 88
t-245.5 35q-62 0 -110.5 -9t-84 -22.5t-59.5 -29.5t-36 -29q12 6 32.5 14t45 15.5t52 12.5t54.5 5zM139 -563q35 0 65.5 12.5t56.5 33.5q-24 14 -44.5 21t-47.5 7q-42 0 -73.5 -14.5t-45.5 -25.5q15 -13 37.5 -23.5t51.5 -10.5z" />
    <glyph glyph-name="J.salt" horiz-adv-x="656" 
d="M288 -136q42 0 70.5 20.5t48.5 55.5t33 80.5t25 95.5q-48 0 -92.5 11t-78 32.5t-53.5 53.5t-20 74q0 57 36.5 104.5t91.5 87t119 73l119 63.5q19 33 47 56.5t58 23.5q25 0 37 -13t12 -33q0 -29 -23.5 -50.5t-63.5 -32.5q-18 -30 -28 -74.5t-15 -101t-8.5 -123
t-9.5 -139.5q-8 -92 -23.5 -181.5t-51 -160t-96 -114t-157.5 -43.5q-61 0 -110 17t-83.5 48t-53 74t-18.5 94q0 52 18.5 92t50 68t71.5 42.5t84 14.5q32 0 47 -7.5t15 -15.5q0 -12 -19 -12q-13 0 -25.5 -7.5t-23 -20t-17 -30t-6.5 -37.5q0 -38 25 -61.5t68 -23.5zM399 297
q0 -43 23 -76t56 -48q12 55 21 111t18 104.5t19.5 87.5t25.5 60q-35 -25 -65 -51.5t-51.5 -56t-34 -62.5t-12.5 -69z" />
    <glyph glyph-name="J.titl" horiz-adv-x="555" 
d="M235 -31q34 0 59 16t43.5 43.5t31.5 65.5t24 83q-43 0 -82.5 10t-69.5 29t-48 47.5t-18 66.5q0 51 32.5 93.5t81.5 78t106.5 65l106.5 56.5q17 30 42 51t52 21q23 0 33.5 -12t10.5 -29q0 -26 -21 -45.5t-57 -28.5q-17 -27 -25.5 -67t-13 -90.5t-7.5 -109.5t-8 -125
q-6 -82 -22.5 -156.5t-50 -130.5t-87 -89.5t-132.5 -33.5q-50 0 -89.5 14t-68 39t-43.5 60t-15 77t15 74.5t40.5 55t58.5 34.5t69 12q26 0 38 -6.5t12 -12.5q0 -10 -15 -10q-21 0 -40 -22t-19 -55q0 -31 20.5 -50t55.5 -19zM334 339q0 -38 20.5 -67.5t50.5 -43.5
q11 49 19 99t16 94t17 78.5t23 53.5q-31 -22 -58 -46t-46.5 -50.5t-30.5 -55.5t-11 -62z" />
    <glyph glyph-name="K" unicode="K" horiz-adv-x="720" 
d="M347 565q0 22 -12 32t-32 10q-25 0 -52 -17.5t-49.5 -45t-37 -60.5t-14.5 -63q0 -25 12 -36.5t28 -11.5q10 0 18.5 4t13.5 4q10 0 10 -11t-9.5 -28.5t-26.5 -34t-40.5 -28t-50.5 -11.5q-45 0 -75 30.5t-30 83.5q0 64 30.5 115.5t78.5 88.5t105.5 57t111.5 20
q72 0 112.5 -31t40.5 -93q0 -29 -8.5 -69t-22.5 -87q23 11 41.5 35.5t34.5 53.5t30.5 60t31 56.5t35.5 42t43 16.5q30 0 60 -6.5t44 -14.5q15 -8 15 -18q0 -12 -14 -12t-31 -8t-34 -25q-22 -23 -42 -55t-43.5 -63t-52 -57.5t-67.5 -38.5q27 -11 45 -29t30 -58
q7 -27 13.5 -55t14.5 -51t20 -37.5t32 -14.5q17 0 28.5 6.5t19.5 12.5q6 5 9.5 7t8.5 2q13 0 13 -13q0 -9 -6.5 -19.5t-17.5 -25.5q-8 -11 -20 -24.5t-27.5 -25.5t-35.5 -20.5t-44 -8.5q-41 0 -65 18t-37.5 47t-17.5 66t-4 76q0 23 -0.5 43t-3.5 35t-9 24t-17 10
q-14 -44 -25 -87t-18.5 -82t-12 -71.5t-4.5 -55.5q0 -13 -5 -17t-16 -4q-12 0 -27.5 -1l-31.5 -2t-29 -2t-19 -1q-20 0 -20 23q0 21 9.5 59.5t23.5 87.5l30.5 104t30.5 109t23.5 103.5t9.5 87.5z" />
    <glyph glyph-name="K.01" horiz-adv-x="855" 
d="M1036 -156q35 0 58 11.5t46 34.5q5 5 11 10t12 5q12 0 12 -14q0 -33 -17.5 -78t-50.5 -85t-81 -68t-109 -28q-59 0 -101.5 22t-72 60.5t-46.5 91t-25 114.5l-15.5 122.5t-17 110.5t-22 79.5t-31.5 30.5q-9 -83 -29.5 -165.5t-60 -148.5t-102 -107.5t-156.5 -41.5
q-52 0 -95.5 15t-75 43t-49.5 68t-18 91q0 55 22 96.5t56 69t75.5 41.5t80.5 14q29 0 43 -7.5t14 -15.5q0 -12 -14 -16q-33 -10 -59.5 -33.5t-26.5 -63.5q0 -38 25.5 -57t67.5 -19t73.5 26t55 68t40.5 95t30.5 106t24.5 101.5t23 82.5q14 40 32 61q-23 12 -59 20t-75 8
q-32 0 -61 -5t-51.5 -17t-36 -31t-13.5 -47q0 -30 18 -45.5t44 -15.5q23 0 38 12t26 29q5 8 9 12.5t10 4.5q5 0 9 -5.5t4 -25.5q0 -29 -9.5 -60.5t-30.5 -57.5t-54 -43t-79 -17q-39 0 -71 12.5t-54 34.5t-34 51t-12 61q0 60 26 101.5t68.5 68t96.5 38.5t111 12
q55 0 107 -10.5t94 -29.5q12 25 35.5 43.5t50.5 18.5q23 0 36 -13t13 -31q0 -32 -21 -52t-50 -28q-8 -8 -13 -23t-10 -35q-3 -11 -6.5 -30.5t-7 -42t-6.5 -45t-5 -40.5q25 8 46 34.5t41.5 62t40.5 75t42.5 72.5t48.5 54.5t57 21.5q50 0 77.5 -9t45.5 -20q16 -9 16 -23
q0 -11 -16 -11q-19 0 -48 -8t-48 -21q-35 -24 -63.5 -62.5l-58 -78t-63.5 -73t-79 -47.5q28 -9 53 -47.5t51 -90l54.5 -109.5t63 -106.5t77.5 -80.5t98 -32z" />
    <glyph glyph-name="K.salt" horiz-adv-x="849" 
d="M803 -216q-114 0 -151 144q-15 60 -20.5 119.5t-9 107.5t-10.5 78t-26 30q-9 -83 -29.5 -165.5t-60 -148.5t-102 -107.5t-156.5 -41.5q-52 0 -95.5 15t-75 43t-49.5 68t-18 91q0 55 22 96.5t56 69t75.5 41.5t80.5 14q29 0 43 -7.5t14 -15.5q0 -12 -14 -16
q-33 -10 -59.5 -33.5t-26.5 -63.5q0 -38 25.5 -57t67.5 -19t73.5 26t55 68t40.5 95t30.5 106t24.5 101.5t23 82.5q14 40 32 61q-23 12 -59 20t-75 8q-32 0 -61 -5t-51.5 -17t-36 -31t-13.5 -47q0 -30 18 -45.5t44 -15.5q23 0 38 12t26 29q5 8 9 12.5t10 4.5q5 0 9 -5.5
t4 -25.5q0 -29 -9.5 -60.5t-30.5 -57.5t-54 -43t-79 -17q-39 0 -71 12.5t-54 34.5t-34 51t-12 61q0 60 26 101.5t68.5 68t96.5 38.5t111 12q55 0 107 -10.5t94 -29.5q12 25 35.5 43.5t50.5 18.5q23 0 36 -13t13 -31q0 -32 -21 -52t-50 -28q-8 -8 -13 -23t-10 -35
q-3 -11 -6.5 -30.5t-7 -42t-6.5 -45t-5 -40.5q25 8 46 34.5t41.5 62t40.5 75t42.5 72.5t48.5 54.5t57 21.5q50 0 77.5 -9t45.5 -20q16 -9 16 -23q0 -11 -16 -11q-19 0 -48 -8t-48 -21q-35 -24 -63.5 -62.5l-58 -78t-63.5 -73t-79 -47.5q28 -9 47 -42t34 -77t29 -92.5t31 -89
t40.5 -67t58.5 -26.5q28 0 43 7.5t25 15.5q6 5 11.5 8t10.5 3q13 0 13 -15q0 -11 -12 -35.5t-35.5 -50.5t-56.5 -45.5t-75 -19.5z" />
    <glyph glyph-name="K.titl" horiz-adv-x="772" 
d="M712 82q16 0 24.5 3.5t16.5 9.5q5 4 9.5 6.5t9.5 2.5q12 0 12 -11q0 -8 -4 -15t-12 -17t-20 -21.5t-28 -21.5t-35.5 -16.5t-43.5 -6.5q-45 0 -69 23.5t-34.5 58.5t-12 76.5t-2.5 76.5t-6.5 58.5t-22.5 23.5q-5 -38 -11.5 -82.5t-18.5 -88.5t-31.5 -85t-51 -72.5t-76 -50
t-106.5 -18.5q-44 0 -80.5 12.5t-62.5 35t-41 54.5t-15 71q0 42 18 75.5t45.5 57t61 36t65.5 12.5q26 0 38 -5t12 -13q0 -9 -14 -10q-25 -4 -42.5 -24.5t-17.5 -52.5q0 -31 19.5 -50t55.5 -19q30 0 52.5 18.5t39 49t29 70.5t23.5 83l18 73.5t18 69.5t18.5 60t20.5 44
q-29 14 -57.5 18.5t-56.5 4.5q-45 0 -70 -22.5t-25 -54.5q0 -23 14.5 -36t31.5 -13t27 8t19 21q5 6 8.5 9.5t8.5 3.5t8.5 -5t3.5 -20q0 -23 -8 -48t-25 -45.5t-43.5 -33.5t-62.5 -13q-29 0 -55 9.5t-46.5 27.5t-32.5 45t-12 62q0 41 16.5 74.5t44.5 57.5t64.5 37t76.5 13
q60 0 108 -12.5t88 -35.5q17 22 38.5 35t41.5 13q27 0 42.5 -13.5t15.5 -34.5q0 -27 -21 -47.5t-51 -20.5q-10 0 -15 1q-6 -10 -11 -28.5t-9.5 -41.5t-7.5 -47.5t-5 -46.5q24 8 46 32t43.5 55t42 65t42 62t44.5 46.5t48 18.5q40 0 62.5 -7.5t36.5 -15.5q13 -8 13 -19
q0 -9 -13 -9q-15 0 -38.5 -6t-38.5 -17q-29 -19 -54.5 -53l-54 -71t-63 -69t-79.5 -46q28 -10 46.5 -33.5t31 -53t21.5 -61.5t19 -59t22.5 -44t31.5 -17z" />
    <glyph glyph-name="L" unicode="L" horiz-adv-x="720" 
d="M437 312q-19 -67 -39 -122q38 -23 75.5 -40t78.5 -17q34 0 58 12.5t40 31.5q13 16 21 16q15 0 15 -18q0 -16 -9.5 -46t-28.5 -60t-47.5 -52t-66.5 -22q-26 0 -48.5 10t-44 26.5t-41.5 37.5l-40 43q-31 -53 -76 -85t-112 -32q-36 0 -67.5 10.5t-55 30t-36.5 45.5t-13 58
q0 34 12.5 62t33.5 48t49 30.5t60 10.5q37 0 73 -10t68 -26q6 14 9.5 27l8.5 31q-44 7 -87 23t-78 40.5t-56.5 58t-21.5 75.5q0 57 35 92.5t91 35.5q32 0 55 -10.5t38 -25.5t22 -32t7 -29q0 -6 -3.5 -10.5t-10.5 -4.5q-6 0 -15 3.5t-19 3.5q-19 0 -33 -16t-14 -40
q0 -37 28 -66.5t77 -44.5q17 70 35.5 125t42.5 93.5t56.5 59t77.5 20.5q53 0 85.5 -28.5t32.5 -79.5q0 -39 -17 -78.5t-46.5 -73.5t-70 -58.5t-88.5 -32.5zM547 555q-29 0 -52 -44t-45 -148q32 8 56.5 26.5t41 41.5t25 47t8.5 43q0 15 -9.5 24.5t-24.5 9.5zM182 129
q35 0 58.5 17.5t36.5 46.5q-18 13 -41.5 24t-45.5 11q-24 0 -40.5 -14t-16.5 -36q0 -23 14.5 -36t34.5 -13z" />
    <glyph glyph-name="L.01" horiz-adv-x="497" 
d="M194 135q20 8 39.5 11.5t36.5 3.5q28 0 54.5 -8.5t56.5 -8.5q33 0 57.5 12.5t40.5 31.5q5 7 10 11.5t11 4.5q14 0 14 -18q0 -16 -10.5 -46t-30 -60t-47.5 -52t-64 -22q-24 0 -48.5 7t-48.5 16t-46 16t-42 7t-36 -6.5t-30 -14l-26.5 -14t-24.5 -6.5t-20.5 9.5t-14 22.5
t-7.5 25.5t-2 18.5q0 18 7 31t23 31q28 32 43.5 69t25 79.5t18 90.5t22.5 103q13 50 36.5 85t53 56.5t62.5 31.5t65 10q58 0 97 -32t39 -94q0 -42 -19 -69.5t-48 -27.5q-20 0 -34.5 12t-14.5 33q0 17 7 27t15.5 17.5t15.5 16.5t7 25q0 18 -13.5 27t-31.5 9q-38 0 -63 -36.5
t-38 -106.5l-18.5 -98.5t-20.5 -92t-25 -79t-33 -59.5z" />
    <glyph glyph-name="L.01_acute" horiz-adv-x="497" 
d="M194 135q20 8 39.5 11.5t36.5 3.5q28 0 54.5 -8.5t56.5 -8.5q33 0 57.5 12.5t40.5 31.5q5 7 10 11.5t11 4.5q14 0 14 -18q0 -16 -10.5 -46t-30 -60t-47.5 -52t-64 -22q-24 0 -48.5 7t-48.5 16t-46 16t-42 7t-36 -6.5t-30 -14l-26.5 -14t-24.5 -6.5t-20.5 9.5t-14 22.5
t-7.5 25.5t-2 18.5q0 18 7 31t23 31q28 32 43.5 69t25 79.5t18 90.5t22.5 103q13 50 36.5 85t53 56.5t62.5 31.5t65 10q58 0 97 -32t39 -94q0 -42 -19 -69.5t-48 -27.5q-20 0 -34.5 12t-14.5 33q0 17 7 27t15.5 17.5t15.5 16.5t7 25q0 18 -13.5 27t-31.5 9q-38 0 -63 -36.5
t-38 -106.5l-18.5 -98.5t-20.5 -92t-25 -79t-33 -59.5zM419 848q6 0 14 -6.5t16 -16.5t13.5 -20.5t5.5 -18.5q0 -12 -4.5 -20t-18.5 -20q-15 -13 -33 -23t-35.5 -16.5t-33.5 -9.5t-27 -3q-8 0 -12.5 4.5t-4.5 9.5q0 6 3 10t12 9q22 13 45 36.5t37 65.5q7 19 23 19z" />
    <glyph glyph-name="L.01_caron" horiz-adv-x="497" 
d="M194 135q20 8 39.5 11.5t36.5 3.5q28 0 54.5 -8.5t56.5 -8.5q33 0 57.5 12.5t40.5 31.5q5 7 10 11.5t11 4.5q14 0 14 -18q0 -16 -10.5 -46t-30 -60t-47.5 -52t-64 -22q-24 0 -48.5 7t-48.5 16t-46 16t-42 7t-36 -6.5t-30 -14l-26.5 -14t-24.5 -6.5t-20.5 9.5t-14 22.5
t-7.5 25.5t-2 18.5q0 18 7 31t23 31q28 32 43.5 69t25 79.5t18 90.5t22.5 103q13 50 36.5 85t53 56.5t62.5 31.5t65 10q58 0 97 -32t39 -94q0 -42 -19 -69.5t-48 -27.5q-20 0 -34.5 12t-14.5 33q0 17 7 27t15.5 17.5t15.5 16.5t7 25q0 18 -13.5 27t-31.5 9q-38 0 -63 -36.5
t-38 -106.5l-18.5 -98.5t-20.5 -92t-25 -79t-33 -59.5zM357 688q-8 0 -16.5 5.5t-18 14.5t-18.5 20t-16 21q-13 17 -18 28.5t-5 18.5q0 14 11 14q7 0 25 -15q9 -8 20.5 -15t22.5 -11.5t20 -7t13 -2.5q14 0 28.5 10.5t32.5 27.5q9 8 15.5 12.5t13.5 4.5q12 0 12 -11
q0 -8 -9 -21t-37 -42q-19 -20 -40.5 -36t-35.5 -16z" />
    <glyph glyph-name="L.salt" horiz-adv-x="877" 
d="M496 93l74.5 -65.5t66.5 -55.5t64 -38.5t67 -14.5q27 0 44.5 5t28.5 10.5t17 10.5t11 5q15 0 15 -15q0 -11 -9 -38.5t-29.5 -57t-53 -52t-80.5 -22.5t-87.5 26t-73.5 64.5t-62 83l-53 81.5q-19 -24 -44.5 -45t-55.5 -37t-64.5 -25.5t-72.5 -9.5q-48 0 -85 12.5t-62.5 35
t-38.5 53.5t-13 67t15.5 67.5t42 55.5t63 38t78.5 14q64 0 111 -20t91 -52q14 23 23.5 44t20.5 50q-62 5 -117.5 23.5t-97.5 49t-66.5 73.5t-24.5 97q0 44 16 79.5t43 60t63 38t76 13.5q81 0 122.5 -39.5t41.5 -99.5q0 -25 -8 -47.5t-21 -40t-28 -27.5t-28 -10q-12 0 -12 10
q0 9 6 23.5t6 34.5t-15.5 34.5t-41.5 14.5q-29 0 -48 -21t-19 -57q0 -24 11 -49t33 -47t54.5 -38.5t74.5 -23.5q23 66 49.5 132.5t60.5 115.5q33 47 77.5 75t96.5 28q60 0 93 -34.5t33 -89.5q0 -47 -18.5 -92t-55.5 -81.5t-92 -63t-128 -36.5q-18 -50 -37.5 -92.5
t-47.5 -87.5zM659 485q-15 -28 -29 -69t-28 -87q46 11 76.5 30t49.5 41.5t27 46t8 43.5q0 19 -11.5 31t-27.5 12q-19 0 -36 -12.5t-29 -35.5zM262 61q30 0 59 16.5t46 43.5q-24 24 -50.5 38.5t-55.5 14.5q-31 0 -49 -16.5t-18 -40.5q0 -25 19.5 -40.5t48.5 -15.5z" />
    <glyph glyph-name="L.salt_acute" horiz-adv-x="877" 
d="M496 93l74.5 -65.5t66.5 -55.5t64 -38.5t67 -14.5q27 0 44.5 5t28.5 10.5t17 10.5t11 5q15 0 15 -15q0 -11 -9 -38.5t-29.5 -57t-53 -52t-80.5 -22.5t-87.5 26t-73.5 64.5t-62 83l-53 81.5q-19 -24 -44.5 -45t-55.5 -37t-64.5 -25.5t-72.5 -9.5q-48 0 -85 12.5t-62.5 35
t-38.5 53.5t-13 67t15.5 67.5t42 55.5t63 38t78.5 14q64 0 111 -20t91 -52q14 23 23.5 44t20.5 50q-62 5 -117.5 23.5t-97.5 49t-66.5 73.5t-24.5 97q0 44 16 79.5t43 60t63 38t76 13.5q81 0 122.5 -39.5t41.5 -99.5q0 -25 -8 -47.5t-21 -40t-28 -27.5t-28 -10q-12 0 -12 10
q0 9 6 23.5t6 34.5t-15.5 34.5t-41.5 14.5q-29 0 -48 -21t-19 -57q0 -24 11 -49t33 -47t54.5 -38.5t74.5 -23.5q23 66 49.5 132.5t60.5 115.5q33 47 77.5 75t96.5 28q60 0 93 -34.5t33 -89.5q0 -47 -18.5 -92t-55.5 -81.5t-92 -63t-128 -36.5q-18 -50 -37.5 -92.5
t-47.5 -87.5zM659 485q-15 -28 -29 -69t-28 -87q46 11 76.5 30t49.5 41.5t27 46t8 43.5q0 19 -11.5 31t-27.5 12q-19 0 -36 -12.5t-29 -35.5zM262 61q30 0 59 16.5t46 43.5q-24 24 -50.5 38.5t-55.5 14.5q-31 0 -49 -16.5t-18 -40.5q0 -25 19.5 -40.5t48.5 -15.5zM833 848
q6 0 14 -6.5t16 -16.5t13.5 -20.5t5.5 -18.5q0 -12 -4.5 -20t-18.5 -20q-15 -13 -33 -23t-35.5 -16.5t-33.5 -9.5t-27 -3q-8 0 -12.5 4.5t-4.5 9.5q0 6 3 10t12 9q22 13 45 36.5t37 65.5q7 19 23 19z" />
    <glyph glyph-name="L.salt_caron" horiz-adv-x="877" 
d="M496 93l74.5 -65.5t66.5 -55.5t64 -38.5t67 -14.5q27 0 44.5 5t28.5 10.5t17 10.5t11 5q15 0 15 -15q0 -11 -9 -38.5t-29.5 -57t-53 -52t-80.5 -22.5t-87.5 26t-73.5 64.5t-62 83l-53 81.5q-19 -24 -44.5 -45t-55.5 -37t-64.5 -25.5t-72.5 -9.5q-48 0 -85 12.5t-62.5 35
t-38.5 53.5t-13 67t15.5 67.5t42 55.5t63 38t78.5 14q64 0 111 -20t91 -52q14 23 23.5 44t20.5 50q-62 5 -117.5 23.5t-97.5 49t-66.5 73.5t-24.5 97q0 44 16 79.5t43 60t63 38t76 13.5q81 0 122.5 -39.5t41.5 -99.5q0 -25 -8 -47.5t-21 -40t-28 -27.5t-28 -10q-12 0 -12 10
q0 9 6 23.5t6 34.5t-15.5 34.5t-41.5 14.5q-29 0 -48 -21t-19 -57q0 -24 11 -49t33 -47t54.5 -38.5t74.5 -23.5q23 66 49.5 132.5t60.5 115.5q33 47 77.5 75t96.5 28q60 0 93 -34.5t33 -89.5q0 -47 -18.5 -92t-55.5 -81.5t-92 -63t-128 -36.5q-18 -50 -37.5 -92.5
t-47.5 -87.5zM659 485q-15 -28 -29 -69t-28 -87q46 11 76.5 30t49.5 41.5t27 46t8 43.5q0 19 -11.5 31t-27.5 12q-19 0 -36 -12.5t-29 -35.5zM262 61q30 0 59 16.5t46 43.5q-24 24 -50.5 38.5t-55.5 14.5q-31 0 -49 -16.5t-18 -40.5q0 -25 19.5 -40.5t48.5 -15.5zM738 694
q-8 0 -16.5 5.5t-18 14.5t-18.5 20t-16 21q-13 17 -18 28.5t-5 18.5q0 14 11 14q7 0 25 -15q9 -8 20.5 -15t22.5 -11.5t20 -7t13 -2.5q14 0 28.5 10.5t32.5 27.5q9 8 15.5 12.5t13.5 4.5q12 0 12 -11q0 -8 -9 -21t-37 -42q-19 -20 -40.5 -36t-35.5 -16z" />
    <glyph glyph-name="L.titl" horiz-adv-x="821" 
d="M161 286q56 0 101.5 -18t83.5 -45q11 21 21 44t20 49q-54 4 -102 20t-84.5 43t-58 64.5t-21.5 84.5q0 38 14 69t37.5 52.5t54.5 33t66 11.5q71 0 107 -34t36 -87q0 -22 -7 -41.5t-18 -34.5t-24 -24t-25 -9q-10 0 -10 9q0 8 5 20.5t5 29.5q0 18 -13.5 30.5t-36.5 12.5
q-25 0 -41.5 -18t-16.5 -50q0 -21 9.5 -43t28.5 -41t47.5 -33.5t65.5 -20.5q20 58 43 116t53 100q29 41 67.5 65.5t83.5 24.5q53 0 81.5 -30t28.5 -78q0 -41 -16 -80t-48 -71t-80 -55t-112 -32q-16 -43 -34.5 -86t-42.5 -82l40.5 -38.5t37.5 -32.5t35 -22.5t33 -8.5
q29 0 43 13.5t14 35.5q0 20 -11 32.5t-31 12.5q-17 0 -23 -3.5t-12 -3.5q-10 0 -10 10q0 5 6.5 14t19 18t29.5 15.5t38 6.5q62 0 99 -33.5t37 -89.5q0 -33 -11 -63t-31 -52t-48.5 -35t-62.5 -13q-42 0 -76 15t-63 39.5t-53.5 55.5l-47.5 62q-38 -42 -88 -67t-116 -25
q-42 0 -74.5 11.5t-55.5 31t-35 46.5t-12 59q0 31 11.5 57.5t32.5 45.5t50.5 29.5t66.5 10.5zM574 505q-14 -24 -25.5 -60l-24.5 -76q40 10 66.5 26.5t43 36t23.5 39.5t7 38q0 17 -10 27.5t-24 10.5q-16 0 -30.5 -11t-25.5 -31zM225 124q26 0 51.5 14.5t40.5 37.5
q-21 21 -44 34t-49 13t-42 -14.5t-16 -35.5q0 -22 16.5 -35.5t42.5 -13.5z" />
    <glyph glyph-name="L.titl_acute" horiz-adv-x="821" 
d="M161 286q56 0 101.5 -18t83.5 -45q11 21 21 44t20 49q-54 4 -102 20t-84.5 43t-58 64.5t-21.5 84.5q0 38 14 69t37.5 52.5t54.5 33t66 11.5q71 0 107 -34t36 -87q0 -22 -7 -41.5t-18 -34.5t-24 -24t-25 -9q-10 0 -10 9q0 8 5 20.5t5 29.5q0 18 -13.5 30.5t-36.5 12.5
q-25 0 -41.5 -18t-16.5 -50q0 -21 9.5 -43t28.5 -41t47.5 -33.5t65.5 -20.5q20 58 43 116t53 100q29 41 67.5 65.5t83.5 24.5q53 0 81.5 -30t28.5 -78q0 -41 -16 -80t-48 -71t-80 -55t-112 -32q-16 -43 -34.5 -86t-42.5 -82l40.5 -38.5t37.5 -32.5t35 -22.5t33 -8.5
q29 0 43 13.5t14 35.5q0 20 -11 32.5t-31 12.5q-17 0 -23 -3.5t-12 -3.5q-10 0 -10 10q0 5 6.5 14t19 18t29.5 15.5t38 6.5q62 0 99 -33.5t37 -89.5q0 -33 -11 -63t-31 -52t-48.5 -35t-62.5 -13q-42 0 -76 15t-63 39.5t-53.5 55.5l-47.5 62q-38 -42 -88 -67t-116 -25
q-42 0 -74.5 11.5t-55.5 31t-35 46.5t-12 59q0 31 11.5 57.5t32.5 45.5t50.5 29.5t66.5 10.5zM574 505q-14 -24 -25.5 -60l-24.5 -76q40 10 66.5 26.5t43 36t23.5 39.5t7 38q0 17 -10 27.5t-24 10.5q-16 0 -30.5 -11t-25.5 -31zM225 124q26 0 51.5 14.5t40.5 37.5
q-21 21 -44 34t-49 13t-42 -14.5t-16 -35.5q0 -22 16.5 -35.5t42.5 -13.5zM693 844q6 0 14 -6.5t16 -16.5t13.5 -20.5t5.5 -18.5q0 -12 -4.5 -20t-18.5 -20q-15 -13 -33 -23t-35.5 -16.5t-33.5 -9.5t-27 -3q-8 0 -12.5 4.5t-4.5 9.5q0 6 3 10t12 9q22 13 45 36.5t37 65.5
q7 19 23 19z" />
    <glyph glyph-name="L.titl_caron" horiz-adv-x="821" 
d="M161 286q56 0 101.5 -18t83.5 -45q11 21 21 44t20 49q-54 4 -102 20t-84.5 43t-58 64.5t-21.5 84.5q0 38 14 69t37.5 52.5t54.5 33t66 11.5q71 0 107 -34t36 -87q0 -22 -7 -41.5t-18 -34.5t-24 -24t-25 -9q-10 0 -10 9q0 8 5 20.5t5 29.5q0 18 -13.5 30.5t-36.5 12.5
q-25 0 -41.5 -18t-16.5 -50q0 -21 9.5 -43t28.5 -41t47.5 -33.5t65.5 -20.5q20 58 43 116t53 100q29 41 67.5 65.5t83.5 24.5q53 0 81.5 -30t28.5 -78q0 -41 -16 -80t-48 -71t-80 -55t-112 -32q-16 -43 -34.5 -86t-42.5 -82l40.5 -38.5t37.5 -32.5t35 -22.5t33 -8.5
q29 0 43 13.5t14 35.5q0 20 -11 32.5t-31 12.5q-17 0 -23 -3.5t-12 -3.5q-10 0 -10 10q0 5 6.5 14t19 18t29.5 15.5t38 6.5q62 0 99 -33.5t37 -89.5q0 -33 -11 -63t-31 -52t-48.5 -35t-62.5 -13q-42 0 -76 15t-63 39.5t-53.5 55.5l-47.5 62q-38 -42 -88 -67t-116 -25
q-42 0 -74.5 11.5t-55.5 31t-35 46.5t-12 59q0 31 11.5 57.5t32.5 45.5t50.5 29.5t66.5 10.5zM574 505q-14 -24 -25.5 -60l-24.5 -76q40 10 66.5 26.5t43 36t23.5 39.5t7 38q0 17 -10 27.5t-24 10.5q-16 0 -30.5 -11t-25.5 -31zM225 124q26 0 51.5 14.5t40.5 37.5
q-21 21 -44 34t-49 13t-42 -14.5t-16 -35.5q0 -22 16.5 -35.5t42.5 -13.5zM644 692q-8 0 -16.5 5.5t-18 14.5t-18.5 20t-16 21q-13 17 -18 28.5t-5 18.5q0 14 11 14q7 0 25 -15q9 -8 20.5 -15t22.5 -11.5t20 -7t13 -2.5q14 0 28.5 10.5t32.5 27.5q9 8 15.5 12.5t13.5 4.5
q12 0 12 -11q0 -8 -9 -21t-37 -42q-19 -20 -40.5 -36t-35.5 -16z" />
    <glyph glyph-name="Lacute" unicode="&#x139;" horiz-adv-x="720" 
d="M437 312q-19 -67 -39 -122q38 -23 75.5 -40t78.5 -17q34 0 58 12.5t40 31.5q13 16 21 16q15 0 15 -18q0 -16 -9.5 -46t-28.5 -60t-47.5 -52t-66.5 -22q-26 0 -48.5 10t-44 26.5t-41.5 37.5l-40 43q-31 -53 -76 -85t-112 -32q-36 0 -67.5 10.5t-55 30t-36.5 45.5t-13 58
q0 34 12.5 62t33.5 48t49 30.5t60 10.5q37 0 73 -10t68 -26q6 14 9.5 27l8.5 31q-44 7 -87 23t-78 40.5t-56.5 58t-21.5 75.5q0 57 35 92.5t91 35.5q32 0 55 -10.5t38 -25.5t22 -32t7 -29q0 -6 -3.5 -10.5t-10.5 -4.5q-6 0 -15 3.5t-19 3.5q-19 0 -33 -16t-14 -40
q0 -37 28 -66.5t77 -44.5q17 70 35.5 125t42.5 93.5t56.5 59t77.5 20.5q53 0 85.5 -28.5t32.5 -79.5q0 -39 -17 -78.5t-46.5 -73.5t-70 -58.5t-88.5 -32.5zM547 555q-29 0 -52 -44t-45 -148q32 8 56.5 26.5t41 41.5t25 47t8.5 43q0 15 -9.5 24.5t-24.5 9.5zM182 129
q35 0 58.5 17.5t36.5 46.5q-18 13 -41.5 24t-45.5 11q-24 0 -40.5 -14t-16.5 -36q0 -23 14.5 -36t34.5 -13zM596 842q6 0 14 -6.5t16 -16.5t13.5 -20.5t5.5 -18.5q0 -12 -4.5 -20t-18.5 -20q-15 -13 -33 -23t-35.5 -16.5t-33.5 -9.5t-27 -3q-8 0 -12.5 4.5t-4.5 9.5
q0 6 3 10t12 9q22 13 45 36.5t37 65.5q7 19 23 19z" />
    <glyph glyph-name="Lcaron" unicode="&#x13d;" horiz-adv-x="720" 
d="M437 312q-19 -67 -39 -122q38 -23 75.5 -40t78.5 -17q34 0 58 12.5t40 31.5q13 16 21 16q15 0 15 -18q0 -16 -9.5 -46t-28.5 -60t-47.5 -52t-66.5 -22q-26 0 -48.5 10t-44 26.5t-41.5 37.5l-40 43q-31 -53 -76 -85t-112 -32q-36 0 -67.5 10.5t-55 30t-36.5 45.5t-13 58
q0 34 12.5 62t33.5 48t49 30.5t60 10.5q37 0 73 -10t68 -26q6 14 9.5 27l8.5 31q-44 7 -87 23t-78 40.5t-56.5 58t-21.5 75.5q0 57 35 92.5t91 35.5q32 0 55 -10.5t38 -25.5t22 -32t7 -29q0 -6 -3.5 -10.5t-10.5 -4.5q-6 0 -15 3.5t-19 3.5q-19 0 -33 -16t-14 -40
q0 -37 28 -66.5t77 -44.5q17 70 35.5 125t42.5 93.5t56.5 59t77.5 20.5q53 0 85.5 -28.5t32.5 -79.5q0 -39 -17 -78.5t-46.5 -73.5t-70 -58.5t-88.5 -32.5zM547 555q-29 0 -52 -44t-45 -148q32 8 56.5 26.5t41 41.5t25 47t8.5 43q0 15 -9.5 24.5t-24.5 9.5zM182 129
q35 0 58.5 17.5t36.5 46.5q-18 13 -41.5 24t-45.5 11q-24 0 -40.5 -14t-16.5 -36q0 -23 14.5 -36t34.5 -13zM684 605q0 23 14 38t39 15q27 0 40 -14t13 -40q0 -27 -14.5 -53.5t-34 -47.5t-38 -34t-25.5 -13q-15 0 -15 13q0 7 5 14.5t11 18t11 24t5 32.5q0 14 -5.5 22.5
t-5.5 24.5z" />
    <glyph glyph-name="Lslash" unicode="&#x141;" horiz-adv-x="720" 
d="M429 286q-8 -27 -16.5 -53l-14.5 -43q38 -23 75.5 -40t78.5 -17q34 0 58 12.5t40 31.5q13 16 21 16q15 0 15 -18q0 -16 -9.5 -46t-28.5 -60t-47.5 -52t-66.5 -22q-26 0 -48.5 10t-44 26.5t-41.5 37.5l-40 43q-31 -53 -76 -85t-112 -32q-36 0 -67.5 10.5t-55 30
t-36.5 45.5t-13 58q0 34 12.5 62t33.5 48t49 30.5t60 10.5q37 0 73 -10t68 -26l5 13t6 19h-42q-15 0 -15 16q0 10 9.5 23t22.5 13h40q2 4 2.5 7.5t1.5 6.5q-44 7 -89 16.5t-82 26.5t-60.5 44.5t-23.5 69.5q0 57 35 92.5t91 35.5q32 0 55 -10.5t38 -25.5t22 -32t7 -29
q0 -6 -3.5 -10.5t-10.5 -4.5q-6 0 -15 3.5t-19 3.5q-19 0 -33 -16t-14 -40q0 -18 9 -29t25 -17.5t37.5 -12t45.5 -12.5q14 59 32 106.5t42 81.5t55 52t71 18q53 0 85.5 -28.5t32.5 -79.5q0 -39 -15 -72.5t-42.5 -60t-66 -44.5t-86.5 -26l-4 -14h45q11 0 14.5 -3t3.5 -11
q0 -10 -11 -24t-24 -14h-44zM182 129q35 0 58.5 17.5t36.5 46.5q-18 13 -41.5 24t-45.5 11q-24 0 -40.5 -14t-16.5 -36q0 -23 14.5 -36t34.5 -13zM547 555q-15 0 -27.5 -12.5t-23 -33.5t-19.5 -48.5t-15 -57.5q64 16 91.5 48t27.5 70q0 15 -9.5 24.5t-24.5 9.5z" />
    <glyph glyph-name="M" unicode="M" horiz-adv-x="898" 
d="M802 149q0 -26 9.5 -40.5t26.5 -14.5q15 0 26.5 8.5t21.5 18.5q7 7 11 9t8 2q11 0 11 -11q0 -15 -13.5 -36.5t-35 -41.5t-49.5 -34t-57 -14q-50 0 -73.5 30.5t-23.5 80.5q0 24 6.5 61t16.5 79.5t21.5 86l21.5 80.5h-8q-14 -33 -37.5 -83l-49 -105.5l-48 -108.5t-35.5 -92
q-4 -13 -10 -21t-17 -8h-78q-9 0 -14.5 4.5t-5.5 17.5q0 3 1.5 27t3.5 61t5 81.5t5 87.5t3.5 80t1.5 59h-8l-18.5 -88t-26.5 -100t-38.5 -99t-54 -85.5t-72.5 -60.5t-94 -23q-34 0 -59 10.5t-42 28.5t-25.5 42t-8.5 50q0 27 12.5 50.5t30 41t37 27t33.5 9.5t14 -12
q0 -9 -3.5 -17.5t-3.5 -25.5q0 -19 13 -35t40 -16q35 0 64.5 25t53 65t41.5 90t30 99t18 92.5t6 70.5q0 23 -14 39t-33 16q-21 0 -44.5 -15t-43 -39t-32 -54.5t-12.5 -60.5q0 -25 12 -36.5t28 -11.5q10 0 18 4t13 4q11 0 11 -11t-9.5 -28.5t-26.5 -34t-40.5 -28t-51.5 -11.5
q-45 0 -74.5 30.5t-29.5 83.5q0 64 29 113t73 82.5t96 51t99 17.5q78 0 121.5 -33.5t64.5 -85t25.5 -112.5t4.5 -116q0 -37 -0.5 -60.5t-0.5 -24.5q1 4 12 28.5l27.5 60l36.5 77.5l39.5 81t36.5 69.5t28 44.5q6 8 21.5 16.5t36 15t45 11t49.5 4.5q18 0 18 -18
q0 -8 -11 -25.5t-20 -40.5q-8 -21 -17.5 -55t-19.5 -73.5t-18.5 -81.5t-15.5 -80t-11 -68.5t-4 -47.5z" />
    <glyph glyph-name="M.01" horiz-adv-x="1139" 
d="M923 448q-27 -25 -58.5 -60t-63.5 -77q33 -81 49 -157t16 -128q0 -38 -10 -72t-29.5 -59.5t-47.5 -40.5t-64 -15q-57 0 -89 36.5t-32 93.5q0 70 24 142t66 145q-14 35 -28 61l-22 40q-6 11 -10 11t-6 -8q-19 -130 -50.5 -234t-79 -176.5t-113 -111.5t-151.5 -39
q-48 0 -89 13t-71 38.5t-47 62.5t-17 86q0 48 19.5 87t51 66t71 41.5t80.5 14.5q29 0 43.5 -7.5t14.5 -14.5q0 -9 -17 -12q-29 -4 -49 -30t-20 -59q0 -35 22.5 -57.5t67.5 -22.5q44 0 84.5 30t72 84t50 128.5t18.5 164.5q0 78 -28.5 118.5t-91.5 40.5q-42 0 -68 -25.5
t-26 -63.5q0 -29 19.5 -48t44.5 -19q37 0 53 34q7 15 15 15q5 0 9.5 -6.5t4.5 -23.5q0 -29 -10.5 -59.5t-31 -55t-51.5 -40t-72 -15.5q-31 0 -59.5 13t-50.5 35.5t-35 52t-13 63.5q0 55 22.5 99t60.5 75t87.5 48t103.5 17q66 0 122 -23t103 -62t84.5 -90t66.5 -107
q25 35 52 68.5l56 67.5q34 40 69 74t71.5 59t73.5 39.5t75 14.5q33 0 52 -14.5t19 -36.5q0 -28 -15 -39t-36 -11q-9 0 -17 4t-16 9t-15.5 9t-15.5 4q-17 0 -27.5 -34.5t-16.5 -97.5t-8 -152.5t-2 -198.5q0 -22 3 -56t11.5 -66.5t23.5 -56t40 -23.5q23 0 33 6.5t16 6.5
q13 0 13 -12q0 -11 -26 -37q-19 -18 -45.5 -36.5t-65.5 -18.5q-44 0 -72 22.5t-44 59t-22 84t-6 97.5q0 72 3 130.5t6.5 101t6.5 68t3 31.5q0 7 -6 7q-3 0 -8.5 -4t-7.5 -6zM737 18q0 42 -6.5 81.5t-16.5 74.5q-26 -48 -41 -94t-15 -87q0 -22 10.5 -34.5t26.5 -12.5t29 18
t13 54z" />
    </font>
</defs>
</svg>
